<ttFont>
<head>
    <!-- Most of this table will be recalculated by the compiler -->
    <tableVersion value="1.0"/>
    <fontRevision value="2.10999"/>
    <checkSumAdjustment value="0xe4561aa8"/>
    <magicNumber value="0x5f0f3cf5"/>
    <flags value="00000000 00000011"/>
    <unitsPerEm value="1000"/>
    <created value="Wed Apr  5 21:30:02 2017"/>
    <modified value="Wed Apr  5 13:30:03 2017"/>
    <xMin value="-56"/>
    <yMin value="-270"/>
    <xMax value="1603"/>
    <yMax value="989"/>
    <macStyle value="00000000 00000000"/>
    <lowestRecPPEM value="7"/>
    <fontDirectionHint value="2"/>
    <indexToLocFormat value="0"/>
    <glyphDataFormat value="0"/>
  </head>
    <TTGlyph name=".notdef" xMin="176" yMin="0" xMax="575" yMax="701">
      <contour>
        <pt x="575" y="701" on="1"/>
        <pt x="575" y="0" on="1"/>
        <pt x="176" y="0" on="1"/>
        <pt x="176" y="701" on="1"/>
      </contour>
      <contour>
        <pt x="516" y="55" on="1"/>
        <pt x="516" y="646" on="1"/>
        <pt x="235" y="646" on="1"/>
        <pt x="235" y="55" on="1"/>
      </contour>
    </TTGlyph>
    <TTGlyph name="A" xMin="44" yMin="0" xMax="647" yMax="693">
      <contour>
        <pt x="499" y="152" on="1"/>
        <pt x="191" y="152" on="1"/>
        <pt x="137" y="0" on="1"/>
        <pt x="44" y="0" on="1"/>
        <pt x="296" y="693" on="1"/>
        <pt x="396" y="693" on="1"/>
        <pt x="647" y="0" on="1"/>
        <pt x="553" y="0" on="1"/>
      </contour>
      <contour>
        <pt x="473" y="224" on="1"/>
        <pt x="345" y="582" on="1"/>
        <pt x="217" y="224" on="1"/>
      </contour>
    </TTGlyph>
    <TTGlyph name="AE" xMin="13" yMin="0" xMax="833" yMax="693">
      <contour>
        <pt x="557" y="621" on="1"/>
        <pt x="557" y="385" on="1"/>
        <pt x="803" y="385" on="1"/>
        <pt x="803" y="314" on="1"/>
        <pt x="557" y="314" on="1"/>
        <pt x="557" y="72" on="1"/>
        <pt x="833" y="72" on="1"/>
        <pt x="833" y="0" on="1"/>
        <pt x="466" y="0" on="1"/>
        <pt x="466" y="152" on="1"/>
        <pt x="198" y="152" on="1"/>
        <pt x="112" y="0" on="1"/>
        <pt x="13" y="0" on="1"/>
        <pt x="408" y="693" on="1"/>
        <pt x="833" y="693" on="1"/>
        <pt x="833" y="621" on="1"/>
      </contour>
      <contour>
        <pt x="466" y="224" on="1"/>
        <pt x="466" y="627" on="1"/>
        <pt x="238" y="224" on="1"/>
      </contour>
    </TTGlyph>
    <TTGlyph name="Aacute" xMin="44" yMin="0" xMax="647" yMax="927">
      <component glyphName="A" x="0" y="0" flags="0x0"/>
      <component glyphName="acute" x="220" y="144" flags="0x4"/>
    </TTGlyph>
    <TTGlyph name="Abreve" xMin="44" yMin="0" xMax="647" yMax="902">
      <component glyphName="A" x="0" y="0" flags="0x0"/>
      <component glyphName="breve" x="194" y="144" flags="0x4"/>
    </TTGlyph>
    <TTGlyph name="Acircumflex" xMin="44" yMin="0" xMax="647" yMax="901">
      <component glyphName="A" x="0" y="0" flags="0x0"/>
      <component glyphName="circumflex" x="198" y="144" flags="0x4"/>
    </TTGlyph>
    <TTGlyph name="Adieresis" xMin="44" yMin="0" xMax="647" yMax="872">
      <component glyphName="A" x="0" y="0" flags="0x0"/>
      <component glyphName="dieresis" x="201" y="144" flags="0x4"/>
    </TTGlyph>
    <TTGlyph name="Agrave" xMin="44" yMin="0" xMax="647" yMax="927">
      <component glyphName="A" x="0" y="0" flags="0x0"/>
      <component glyphName="grave" x="220" y="144" flags="0x4"/>
    </TTGlyph>
    <TTGlyph name="Amacron" xMin="44" yMin="0" xMax="647" yMax="854">
      <component glyphName="A" x="0" y="0" flags="0x0"/>
      <component glyphName="macron" x="160" y="144" flags="0x4"/>
    </TTGlyph>
    <TTGlyph name="Aogonek" xMin="44" yMin="-202" xMax="679" yMax="693">
      <contour>
        <pt x="679" y="-139" on="1"/>
        <pt x="679" y="-202" on="1"/>
        <pt x="588" y="-202" on="1"/>
        <pt x="533" y="-202" on="0"/>
        <pt x="462" y="-144" on="0"/>
        <pt x="462" y="-97" on="1"/>
        <pt x="462" y="-58" on="0"/>
        <pt x="510" y="-8" on="0"/>
        <pt x="554" y="0" on="1"/>
        <pt x="499" y="152" on="1"/>
        <pt x="192" y="152" on="1"/>
        <pt x="137" y="0" on="1"/>
        <pt x="44" y="0" on="1"/>
        <pt x="296" y="693" on="1"/>
        <pt x="396" y="693" on="1"/>
        <pt x="647" y="2" on="1"/>
        <pt x="647" y="-56" on="1"/>
        <pt x="600" y="-56" on="1"/>
        <pt x="544" y="-56" on="0"/>
        <pt x="544" y="-97" on="1"/>
        <pt x="544" y="-139" on="0"/>
        <pt x="600" y="-139" on="1"/>
      </contour>
      <contour>
        <pt x="473" y="224" on="1"/>
        <pt x="345" y="581" on="1"/>
        <pt x="217" y="224" on="1"/>
      </contour>
    </TTGlyph>
    <TTGlyph name="Aring" xMin="44" yMin="0" xMax="647" yMax="961">
      <component glyphName="A" x="0" y="0" flags="0x0"/>
      <component glyphName="ring" x="232" y="144" flags="0x4"/>
    </TTGlyph>
    <TTGlyph name="Atilde" xMin="44" yMin="0" xMax="647" yMax="855">
      <component glyphName="A" x="0" y="0" flags="0x0"/>
      <component glyphName="tilde" x="186" y="144" flags="0x4"/>
    </TTGlyph>
    <TTGlyph name="B" xMin="75" yMin="0" xMax="561" yMax="693">
      <contour>
        <pt x="479" y="345" on="0"/>
        <pt x="561" y="247" on="0"/>
        <pt x="561" y="183" on="1"/>
        <pt x="561" y="132" on="0"/>
        <pt x="506" y="48" on="0"/>
        <pt x="403" y="0" on="0"/>
        <pt x="335" y="0" on="1"/>
        <pt x="75" y="0" on="1"/>
        <pt x="75" y="693" on="1"/>
        <pt x="323" y="693" on="1"/>
        <pt x="394" y="693" on="0"/>
        <pt x="494" y="645" on="0"/>
        <pt x="545" y="562" on="0"/>
        <pt x="545" y="509" on="1"/>
        <pt x="545" y="451" on="0"/>
        <pt x="475" y="374" on="0"/>
        <pt x="412" y="356" on="1"/>
      </contour>
      <contour>
        <pt x="166" y="392" on="1"/>
        <pt x="319" y="392" on="1"/>
        <pt x="382" y="392" on="0"/>
        <pt x="453" y="453" on="0"/>
        <pt x="453" y="505" on="1"/>
        <pt x="453" y="558" on="0"/>
        <pt x="382" y="620" on="0"/>
        <pt x="319" y="620" on="1"/>
        <pt x="166" y="620" on="1"/>
      </contour>
      <contour>
        <pt x="396" y="72" on="0"/>
        <pt x="471" y="138" on="0"/>
        <pt x="471" y="196" on="1"/>
        <pt x="471" y="253" on="0"/>
        <pt x="390" y="319" on="0"/>
        <pt x="323" y="319" on="1"/>
        <pt x="166" y="319" on="1"/>
        <pt x="166" y="72" on="1"/>
        <pt x="330" y="72" on="1"/>
      </contour>
    </TTGlyph>
    <TTGlyph name="C" xMin="39" yMin="-6" xMax="709" yMax="700">
      <contour>
        <pt x="500" y="700" on="0"/>
        <pt x="669" y="598" on="0"/>
        <pt x="709" y="502" on="1"/>
        <pt x="599" y="502" on="1"/>
        <pt x="569" y="559" on="0"/>
        <pt x="461" y="619" on="0"/>
        <pt x="392" y="619" on="1"/>
        <pt x="318" y="619" on="0"/>
        <pt x="199" y="552" on="0"/>
        <pt x="132" y="428" on="0"/>
        <pt x="132" y="347" on="1"/>
        <pt x="132" y="266" on="0"/>
        <pt x="199" y="142" on="0"/>
        <pt x="318" y="74" on="0"/>
        <pt x="392" y="74" on="1"/>
        <pt x="461" y="74" on="0"/>
        <pt x="569" y="135" on="0"/>
        <pt x="599" y="192" on="1"/>
        <pt x="709" y="192" on="1"/>
        <pt x="669" y="96" on="0"/>
        <pt x="500" y="-6" on="0"/>
        <pt x="392" y="-6" on="1"/>
        <pt x="295" y="-6" on="0"/>
        <pt x="133" y="85" on="0"/>
        <pt x="39" y="246" on="0"/>
        <pt x="39" y="347" on="1"/>
        <pt x="39" y="449" on="0"/>
        <pt x="133" y="610" on="0"/>
        <pt x="295" y="700" on="0"/>
        <pt x="392" y="700" on="1"/>
      </contour>
    </TTGlyph>
    <TTGlyph name="Cacute" xMin="39" yMin="-6" xMax="709" yMax="927">
      <component glyphName="C" x="0" y="0" flags="0x0"/>
      <component glyphName="acute" x="263" y="144" flags="0x4"/>
    </TTGlyph>
    <TTGlyph name="Ccaron" xMin="39" yMin="-6" xMax="709" yMax="901">
      <component glyphName="C" x="0" y="0" flags="0x0"/>
      <component glyphName="caron" x="240" y="144" flags="0x4"/>
    </TTGlyph>
    <TTGlyph name="Ccedilla" xMin="39" yMin="-260" xMax="709" yMax="700">
      <contour>
        <pt x="461" y="74" on="0"/>
        <pt x="569" y="135" on="0"/>
        <pt x="599" y="192" on="1"/>
        <pt x="709" y="192" on="1"/>
        <pt x="671" y="103" on="0"/>
        <pt x="521" y="2" on="0"/>
        <pt x="423" y="-5" on="1"/>
        <pt x="423" y="-53" on="1"/>
        <pt x="481" y="-53" on="0"/>
        <pt x="553" y="-108" on="0"/>
        <pt x="553" y="-155" on="1"/>
        <pt x="553" y="-202" on="0"/>
        <pt x="482" y="-260" on="0"/>
        <pt x="426" y="-260" on="1"/>
        <pt x="307" y="-260" on="1"/>
        <pt x="307" y="-197" on="1"/>
        <pt x="414" y="-197" on="1"/>
        <pt x="470" y="-197" on="0"/>
        <pt x="470" y="-155" on="1"/>
        <pt x="470" y="-114" on="0"/>
        <pt x="414" y="-114" on="1"/>
        <pt x="359" y="-114" on="1"/>
        <pt x="359" y="-5" on="1"/>
        <pt x="269" y="3" on="0"/>
        <pt x="123" y="97" on="0"/>
        <pt x="39" y="252" on="0"/>
        <pt x="39" y="347" on="1"/>
        <pt x="39" y="449" on="0"/>
        <pt x="133" y="610" on="0"/>
        <pt x="295" y="700" on="0"/>
        <pt x="392" y="700" on="1"/>
        <pt x="500" y="700" on="0"/>
        <pt x="669" y="598" on="0"/>
        <pt x="709" y="502" on="1"/>
        <pt x="599" y="502" on="1"/>
        <pt x="569" y="559" on="0"/>
        <pt x="461" y="619" on="0"/>
        <pt x="392" y="619" on="1"/>
        <pt x="318" y="619" on="0"/>
        <pt x="199" y="552" on="0"/>
        <pt x="132" y="428" on="0"/>
        <pt x="132" y="347" on="1"/>
        <pt x="132" y="266" on="0"/>
        <pt x="199" y="142" on="0"/>
        <pt x="318" y="74" on="0"/>
        <pt x="392" y="74" on="1"/>
      </contour>
    </TTGlyph>
    <TTGlyph name="D" xMin="75" yMin="0" xMax="656" yMax="693">
      <contour>
        <pt x="656" y="236" on="0"/>
        <pt x="568" y="81" on="0"/>
        <pt x="405" y="0" on="0"/>
        <pt x="294" y="0" on="1"/>
        <pt x="75" y="0" on="1"/>
        <pt x="75" y="693" on="1"/>
        <pt x="294" y="693" on="1"/>
        <pt x="405" y="693" on="0"/>
        <pt x="568" y="608" on="0"/>
        <pt x="656" y="451" on="0"/>
        <pt x="656" y="343" on="1"/>
      </contour>
      <contour>
        <pt x="425" y="70" on="0"/>
        <pt x="563" y="214" on="0"/>
        <pt x="563" y="343" on="1"/>
        <pt x="563" y="472" on="0"/>
        <pt x="425" y="616" on="0"/>
        <pt x="294" y="616" on="1"/>
        <pt x="166" y="616" on="1"/>
        <pt x="166" y="70" on="1"/>
        <pt x="294" y="70" on="1"/>
      </contour>
    </TTGlyph>
    <TTGlyph name="Dcaron" xMin="75" yMin="0" xMax="656" yMax="901">
      <component glyphName="D" x="0" y="0" flags="0x0"/>
      <component glyphName="caron" x="200" y="144" flags="0x4"/>
    </TTGlyph>
    <TTGlyph name="Dcroat" xMin="4" yMin="0" xMax="672" yMax="693">
      <component glyphName="Eth" x="0" y="0" flags="0x0"/>
    </TTGlyph>
    <TTGlyph name="E" xMin="75" yMin="0" xMax="442" yMax="693">
      <contour>
        <pt x="166" y="621" on="1"/>
        <pt x="166" y="385" on="1"/>
        <pt x="412" y="385" on="1"/>
        <pt x="412" y="314" on="1"/>
        <pt x="166" y="314" on="1"/>
        <pt x="166" y="72" on="1"/>
        <pt x="442" y="72" on="1"/>
        <pt x="442" y="0" on="1"/>
        <pt x="75" y="0" on="1"/>
        <pt x="75" y="693" on="1"/>
        <pt x="442" y="693" on="1"/>
        <pt x="442" y="621" on="1"/>
      </contour>
    </TTGlyph>
    <TTGlyph name="Eacute" xMin="75" yMin="0" xMax="442" yMax="927">
      <component glyphName="E" x="0" y="0" flags="0x0"/>
      <component glyphName="acute" x="127" y="144" flags="0x4"/>
    </TTGlyph>
    <TTGlyph name="Ecaron" xMin="75" yMin="0" xMax="442" yMax="901">
      <component glyphName="E" x="0" y="0" flags="0x0"/>
      <component glyphName="caron" x="104" y="144" flags="0x4"/>
    </TTGlyph>
    <TTGlyph name="Ecircumflex" xMin="75" yMin="0" xMax="442" yMax="901">
      <component glyphName="E" x="0" y="0" flags="0x0"/>
      <component glyphName="circumflex" x="104" y="144" flags="0x4"/>
    </TTGlyph>
    <TTGlyph name="Edieresis" xMin="75" yMin="0" xMax="442" yMax="872">
      <component glyphName="E" x="0" y="0" flags="0x0"/>
      <component glyphName="dieresis" x="108" y="144" flags="0x4"/>
    </TTGlyph>
    <TTGlyph name="Edotaccent" xMin="75" yMin="0" xMax="442" yMax="872">
      <component glyphName="E" x="0" y="0" flags="0x0"/>
      <component glyphName="dotaccent" x="189" y="144" flags="0x4"/>
    </TTGlyph>
    <TTGlyph name="Egrave" xMin="75" yMin="0" xMax="442" yMax="927">
      <component glyphName="E" x="0" y="0" flags="0x0"/>
      <component glyphName="grave" x="127" y="144" flags="0x4"/>
    </TTGlyph>
    <TTGlyph name="Emacron" xMin="75" yMin="0" xMax="442" yMax="854">
      <component glyphName="E" x="0" y="0" flags="0x0"/>
      <component glyphName="macron" x="67" y="144" flags="0x4"/>
    </TTGlyph>
    <TTGlyph name="Eogonek" xMin="75" yMin="-202" xMax="474" yMax="693">
      <contour>
        <pt x="474" y="-139" on="1"/>
        <pt x="474" y="-202" on="1"/>
        <pt x="383" y="-202" on="1"/>
        <pt x="327" y="-202" on="0"/>
        <pt x="256" y="-145" on="0"/>
        <pt x="256" y="-97" on="1"/>
        <pt x="256" y="-60" on="0"/>
        <pt x="301" y="-9" on="0"/>
        <pt x="341" y="0" on="1"/>
        <pt x="75" y="0" on="1"/>
        <pt x="75" y="693" on="1"/>
        <pt x="442" y="693" on="1"/>
        <pt x="442" y="621" on="1"/>
        <pt x="166" y="621" on="1"/>
        <pt x="166" y="385" on="1"/>
        <pt x="412" y="385" on="1"/>
        <pt x="412" y="314" on="1"/>
        <pt x="166" y="314" on="1"/>
        <pt x="166" y="72" on="1"/>
        <pt x="442" y="72" on="1"/>
        <pt x="442" y="-56" on="1"/>
        <pt x="395" y="-56" on="1"/>
        <pt x="339" y="-56" on="0"/>
        <pt x="339" y="-97" on="1"/>
        <pt x="339" y="-139" on="0"/>
        <pt x="395" y="-139" on="1"/>
      </contour>
    </TTGlyph>
    <TTGlyph name="Eth" xMin="4" yMin="0" xMax="672" yMax="693">
      <contour>
        <pt x="421" y="693" on="0"/>
        <pt x="584" y="608" on="0"/>
        <pt x="672" y="451" on="0"/>
        <pt x="672" y="343" on="1"/>
        <pt x="672" y="236" on="0"/>
        <pt x="584" y="81" on="0"/>
        <pt x="421" y="0" on="0"/>
        <pt x="310" y="0" on="1"/>
        <pt x="91" y="0" on="1"/>
        <pt x="91" y="302" on="1"/>
        <pt x="4" y="302" on="1"/>
        <pt x="4" y="384" on="1"/>
        <pt x="91" y="384" on="1"/>
        <pt x="91" y="693" on="1"/>
        <pt x="310" y="693" on="1"/>
      </contour>
      <contour>
        <pt x="440" y="70" on="0"/>
        <pt x="579" y="214" on="0"/>
        <pt x="579" y="343" on="1"/>
        <pt x="579" y="472" on="0"/>
        <pt x="440" y="616" on="0"/>
        <pt x="310" y="616" on="1"/>
        <pt x="182" y="616" on="1"/>
        <pt x="182" y="384" on="1"/>
        <pt x="374" y="384" on="1"/>
        <pt x="374" y="302" on="1"/>
        <pt x="182" y="302" on="1"/>
        <pt x="182" y="70" on="1"/>
        <pt x="310" y="70" on="1"/>
      </contour>
    </TTGlyph>
    <TTGlyph name="Euro" xMin="28" yMin="-6" xMax="775" yMax="700">
      <contour>
        <pt x="527" y="74" on="0"/>
        <pt x="635" y="135" on="0"/>
        <pt x="665" y="192" on="1"/>
        <pt x="775" y="192" on="1"/>
        <pt x="735" y="96" on="0"/>
        <pt x="566" y="-6" on="0"/>
        <pt x="458" y="-6" on="1"/>
        <pt x="381" y="-6" on="0"/>
        <pt x="245" y="52" on="0"/>
        <pt x="146" y="159" on="0"/>
        <pt x="123" y="229" on="1"/>
        <pt x="28" y="229" on="1"/>
        <pt x="28" y="297" on="1"/>
        <pt x="108" y="297" on="1"/>
        <pt x="105" y="321" on="0"/>
        <pt x="105" y="347" on="1"/>
        <pt x="105" y="373" on="0"/>
        <pt x="108" y="398" on="1"/>
        <pt x="28" y="398" on="1"/>
        <pt x="28" y="465" on="1"/>
        <pt x="123" y="465" on="1"/>
        <pt x="158" y="572" on="0"/>
        <pt x="341" y="700" on="0"/>
        <pt x="458" y="700" on="1"/>
        <pt x="566" y="700" on="0"/>
        <pt x="735" y="598" on="0"/>
        <pt x="775" y="502" on="1"/>
        <pt x="665" y="502" on="1"/>
        <pt x="635" y="559" on="0"/>
        <pt x="527" y="619" on="0"/>
        <pt x="458" y="619" on="1"/>
        <pt x="375" y="619" on="0"/>
        <pt x="249" y="538" on="0"/>
        <pt x="220" y="465" on="1"/>
        <pt x="458" y="465" on="1"/>
        <pt x="458" y="398" on="1"/>
        <pt x="202" y="398" on="1"/>
        <pt x="198" y="377" on="0"/>
        <pt x="198" y="347" on="1"/>
        <pt x="198" y="318" on="0"/>
        <pt x="202" y="297" on="1"/>
        <pt x="458" y="297" on="1"/>
        <pt x="458" y="229" on="1"/>
        <pt x="220" y="229" on="1"/>
        <pt x="249" y="156" on="0"/>
        <pt x="376" y="74" on="0"/>
        <pt x="458" y="74" on="1"/>
      </contour>
    </TTGlyph>
    <TTGlyph name="F" xMin="75" yMin="0" xMax="465" yMax="693">
      <contour>
        <pt x="465" y="693" on="1"/>
        <pt x="465" y="620" on="1"/>
        <pt x="166" y="620" on="1"/>
        <pt x="166" y="385" on="1"/>
        <pt x="402" y="385" on="1"/>
        <pt x="402" y="313" on="1"/>
        <pt x="166" y="313" on="1"/>
        <pt x="166" y="0" on="1"/>
        <pt x="75" y="0" on="1"/>
        <pt x="75" y="693" on="1"/>
      </contour>
    </TTGlyph>
    <TTGlyph name="G" xMin="39" yMin="-6" xMax="738" yMax="700">
      <contour>
        <pt x="500" y="700" on="0"/>
        <pt x="669" y="598" on="0"/>
        <pt x="709" y="502" on="1"/>
        <pt x="599" y="502" on="1"/>
        <pt x="569" y="559" on="0"/>
        <pt x="461" y="619" on="0"/>
        <pt x="392" y="619" on="1"/>
        <pt x="318" y="619" on="0"/>
        <pt x="199" y="552" on="0"/>
        <pt x="132" y="428" on="0"/>
        <pt x="132" y="347" on="1"/>
        <pt x="132" y="266" on="0"/>
        <pt x="199" y="142" on="0"/>
        <pt x="318" y="74" on="0"/>
        <pt x="392" y="74" on="1"/>
        <pt x="498" y="74" on="0"/>
        <pt x="631" y="198" on="0"/>
        <pt x="642" y="304" on="1"/>
        <pt x="356" y="304" on="1"/>
        <pt x="356" y="376" on="1"/>
        <pt x="738" y="376" on="1"/>
        <pt x="738" y="304" on="1"/>
        <pt x="729" y="216" on="0"/>
        <pt x="634" y="74" on="0"/>
        <pt x="483" y="-6" on="0"/>
        <pt x="392" y="-6" on="1"/>
        <pt x="295" y="-6" on="0"/>
        <pt x="133" y="85" on="0"/>
        <pt x="39" y="246" on="0"/>
        <pt x="39" y="347" on="1"/>
        <pt x="39" y="449" on="0"/>
        <pt x="133" y="610" on="0"/>
        <pt x="295" y="700" on="0"/>
        <pt x="392" y="700" on="1"/>
      </contour>
    </TTGlyph>
    <TTGlyph name="Gbreve" xMin="39" yMin="-6" xMax="738" yMax="902">
      <component glyphName="G" x="0" y="0" flags="0x0"/>
      <component glyphName="breve" x="236" y="144" flags="0x4"/>
    </TTGlyph>
    <TTGlyph name="H" xMin="75" yMin="0" xMax="607" yMax="693">
      <contour>
        <pt x="607" y="693" on="1"/>
        <pt x="607" y="0" on="1"/>
        <pt x="515" y="0" on="1"/>
        <pt x="515" y="313" on="1"/>
        <pt x="166" y="313" on="1"/>
        <pt x="166" y="0" on="1"/>
        <pt x="75" y="0" on="1"/>
        <pt x="75" y="693" on="1"/>
        <pt x="166" y="693" on="1"/>
        <pt x="166" y="385" on="1"/>
        <pt x="515" y="385" on="1"/>
        <pt x="515" y="693" on="1"/>
      </contour>
    </TTGlyph>
    <TTGlyph name="I" xMin="75" yMin="0" xMax="166" yMax="693">
      <contour>
        <pt x="166" y="693" on="1"/>
        <pt x="166" y="0" on="1"/>
        <pt x="75" y="0" on="1"/>
        <pt x="75" y="693" on="1"/>
      </contour>
    </TTGlyph>
    <TTGlyph name="ITF" xMin="147" yMin="0" xMax="1603" yMax="671">
      <contour>
        <pt x="354" y="671" on="1"/>
        <pt x="354" y="0" on="1"/>
        <pt x="147" y="0" on="1"/>
        <pt x="147" y="671" on="1"/>
      </contour>
      <contour>
        <pt x="604" y="671" on="1"/>
        <pt x="604" y="475" on="1"/>
        <pt x="397" y="475" on="1"/>
        <pt x="397" y="671" on="1"/>
      </contour>
      <contour>
        <pt x="854" y="671" on="1"/>
        <pt x="854" y="0" on="1"/>
        <pt x="647" y="0" on="1"/>
        <pt x="647" y="671" on="1"/>
      </contour>
      <contour>
        <pt x="1104" y="671" on="1"/>
        <pt x="1104" y="475" on="1"/>
        <pt x="896" y="475" on="1"/>
        <pt x="896" y="671" on="1"/>
      </contour>
      <contour>
        <pt x="1354" y="671" on="1"/>
        <pt x="1354" y="0" on="1"/>
        <pt x="1146" y="0" on="1"/>
        <pt x="1146" y="671" on="1"/>
      </contour>
      <contour>
        <pt x="1603" y="671" on="1"/>
        <pt x="1603" y="475" on="1"/>
        <pt x="1396" y="475" on="1"/>
        <pt x="1396" y="671" on="1"/>
      </contour>
      <contour>
        <pt x="1603" y="433" on="1"/>
        <pt x="1603" y="237" on="1"/>
        <pt x="1396" y="237" on="1"/>
        <pt x="1396" y="433" on="1"/>
      </contour>
    </TTGlyph>
    <TTGlyph name="Iacute" xMin="5" yMin="0" xMax="218" yMax="927">
      <component glyphName="I" x="0" y="0" flags="0x0"/>
      <component glyphName="acute" x="-5" y="144" flags="0x4"/>
    </TTGlyph>
    <TTGlyph name="Icircumflex" xMin="-18" yMin="0" xMax="259" yMax="901">
      <component glyphName="I" x="0" y="0" flags="0x0"/>
      <component glyphName="circumflex" x="-28" y="144" flags="0x4"/>
    </TTGlyph>
    <TTGlyph name="Idieresis" xMin="-14" yMin="0" xMax="255" yMax="872">
      <component glyphName="I" x="0" y="0" flags="0x0"/>
      <component glyphName="dieresis" x="-24" y="144" flags="0x4"/>
    </TTGlyph>
    <TTGlyph name="Idotaccent" xMin="66" yMin="0" xMax="174" yMax="872">
      <component glyphName="I" x="0" y="0" flags="0x0"/>
      <component glyphName="dotaccent" x="56" y="144" flags="0x4"/>
    </TTGlyph>
    <TTGlyph name="Igrave" xMin="5" yMin="0" xMax="218" yMax="927">
      <component glyphName="I" x="0" y="0" flags="0x0"/>
      <component glyphName="grave" x="-5" y="144" flags="0x4"/>
    </TTGlyph>
    <TTGlyph name="Imacron" xMin="-56" yMin="0" xMax="296" yMax="854">
      <component glyphName="I" x="0" y="0" flags="0x0"/>
      <component glyphName="macron" x="-66" y="144" flags="0x4"/>
    </TTGlyph>
    <TTGlyph name="Iogonek" xMin="-19" yMin="-201" xMax="199" yMax="693">
      <contour>
        <pt x="199" y="-138" on="1"/>
        <pt x="199" y="-201" on="1"/>
        <pt x="108" y="-201" on="1"/>
        <pt x="52" y="-201" on="0"/>
        <pt x="-19" y="-144" on="0"/>
        <pt x="-19" y="-96" on="1"/>
        <pt x="-19" y="-57" on="0"/>
        <pt x="32" y="-5" on="0"/>
        <pt x="75" y="3" on="1"/>
        <pt x="75" y="693" on="1"/>
        <pt x="166" y="693" on="1"/>
        <pt x="166" y="6" on="1"/>
        <pt x="167" y="6" on="1"/>
        <pt x="167" y="-55" on="1"/>
        <pt x="120" y="-55" on="1"/>
        <pt x="64" y="-55" on="0"/>
        <pt x="64" y="-96" on="1"/>
        <pt x="64" y="-138" on="0"/>
        <pt x="120" y="-138" on="1"/>
      </contour>
    </TTGlyph>
    <TTGlyph name="J" xMin="50" yMin="-7" xMax="437" yMax="693">
      <contour>
        <pt x="437" y="693" on="1"/>
        <pt x="437" y="181" on="1"/>
        <pt x="437" y="95" on="0"/>
        <pt x="331" y="-7" on="0"/>
        <pt x="244" y="-7" on="1"/>
        <pt x="157" y="-7" on="0"/>
        <pt x="50" y="95" on="0"/>
        <pt x="50" y="181" on="1"/>
        <pt x="143" y="181" on="1"/>
        <pt x="144" y="133" on="0"/>
        <pt x="193" y="73" on="0"/>
        <pt x="244" y="73" on="1"/>
        <pt x="296" y="73" on="0"/>
        <pt x="346" y="134" on="0"/>
        <pt x="346" y="181" on="1"/>
        <pt x="346" y="693" on="1"/>
      </contour>
    </TTGlyph>
    <TTGlyph name="K" xMin="75" yMin="0" xMax="570" yMax="693">
      <contour>
        <pt x="246" y="342" on="1"/>
        <pt x="570" y="0" on="1"/>
        <pt x="449" y="0" on="1"/>
        <pt x="166" y="310" on="1"/>
        <pt x="166" y="0" on="1"/>
        <pt x="75" y="0" on="1"/>
        <pt x="75" y="693" on="1"/>
        <pt x="166" y="693" on="1"/>
        <pt x="166" y="372" on="1"/>
        <pt x="451" y="693" on="1"/>
        <pt x="570" y="693" on="1"/>
      </contour>
    </TTGlyph>
    <TTGlyph name="L" xMin="75" yMin="0" xMax="409" yMax="693">
      <contour>
        <pt x="166" y="70" on="1"/>
        <pt x="409" y="70" on="1"/>
        <pt x="409" y="0" on="1"/>
        <pt x="75" y="0" on="1"/>
        <pt x="75" y="693" on="1"/>
        <pt x="166" y="693" on="1"/>
      </contour>
    </TTGlyph>
    <TTGlyph name="Lacute" xMin="75" yMin="0" xMax="409" yMax="927">
      <component glyphName="L" x="0" y="0" flags="0x0"/>
      <component glyphName="acute" x="89" y="144" flags="0x4"/>
    </TTGlyph>
    <TTGlyph name="Lcaron" xMin="75" yMin="0" xMax="409" yMax="693">
      <contour>
        <pt x="166" y="70" on="1"/>
        <pt x="409" y="70" on="1"/>
        <pt x="409" y="0" on="1"/>
        <pt x="75" y="0" on="1"/>
        <pt x="75" y="693" on="1"/>
        <pt x="166" y="693" on="1"/>
      </contour>
      <contour>
        <pt x="385" y="638" on="0"/>
        <pt x="385" y="601" on="1"/>
        <pt x="385" y="487" on="0"/>
        <pt x="284" y="487" on="1"/>
        <pt x="284" y="531" on="1"/>
        <pt x="308" y="531" on="0"/>
        <pt x="331" y="557" on="0"/>
        <pt x="331" y="584" on="1"/>
        <pt x="331" y="607" on="1"/>
        <pt x="282" y="607" on="1"/>
        <pt x="282" y="693" on="1"/>
        <pt x="374" y="693" on="1"/>
      </contour>
    </TTGlyph>
    <TTGlyph name="Lslash" xMin="4" yMin="0" xMax="425" yMax="693">
      <contour>
        <pt x="425" y="70" on="1"/>
        <pt x="425" y="0" on="1"/>
        <pt x="91" y="0" on="1"/>
        <pt x="91" y="303" on="1"/>
        <pt x="4" y="272" on="1"/>
        <pt x="4" y="354" on="1"/>
        <pt x="91" y="385" on="1"/>
        <pt x="91" y="693" on="1"/>
        <pt x="182" y="693" on="1"/>
        <pt x="182" y="418" on="1"/>
        <pt x="286" y="456" on="1"/>
        <pt x="286" y="374" on="1"/>
        <pt x="182" y="336" on="1"/>
        <pt x="182" y="70" on="1"/>
      </contour>
    </TTGlyph>
    <TTGlyph name="M" xMin="75" yMin="0" xMax="782" yMax="693">
      <contour>
        <pt x="782" y="693" on="1"/>
        <pt x="782" y="0" on="1"/>
        <pt x="690" y="0" on="1"/>
        <pt x="690" y="505" on="1"/>
        <pt x="458" y="0" on="1"/>
        <pt x="399" y="0" on="1"/>
        <pt x="166" y="505" on="1"/>
        <pt x="166" y="0" on="1"/>
        <pt x="75" y="0" on="1"/>
        <pt x="75" y="693" on="1"/>
        <pt x="168" y="693" on="1"/>
        <pt x="429" y="125" on="1"/>
        <pt x="689" y="693" on="1"/>
      </contour>
    </TTGlyph>
    <TTGlyph name="N" xMin="75" yMin="0" xMax="623" yMax="693">
      <contour>
        <pt x="623" y="0" on="1"/>
        <pt x="532" y="0" on="1"/>
        <pt x="166" y="550" on="1"/>
        <pt x="166" y="0" on="1"/>
        <pt x="75" y="0" on="1"/>
        <pt x="75" y="693" on="1"/>
        <pt x="166" y="693" on="1"/>
        <pt x="532" y="143" on="1"/>
        <pt x="532" y="693" on="1"/>
        <pt x="623" y="693" on="1"/>
      </contour>
    </TTGlyph>
    <TTGlyph name="Nacute" xMin="75" yMin="0" xMax="623" yMax="927">
      <component glyphName="N" x="0" y="0" flags="0x0"/>
      <component glyphName="acute" x="224" y="144" flags="0x4"/>
    </TTGlyph>
    <TTGlyph name="Ncaron" xMin="75" yMin="0" xMax="623" yMax="901">
      <component glyphName="N" x="0" y="0" flags="0x0"/>
      <component glyphName="caron" x="201" y="144" flags="0x4"/>
    </TTGlyph>
    <TTGlyph name="Ntilde" xMin="75" yMin="0" xMax="623" yMax="855">
      <component glyphName="N" x="0" y="0" flags="0x0"/>
      <component glyphName="tilde" x="190" y="144" flags="0x4"/>
    </TTGlyph>
    <TTGlyph name="O" xMin="39" yMin="-7" xMax="744" yMax="700">
      <contour>
        <pt x="489" y="700" on="0"/>
        <pt x="650" y="610" on="0"/>
        <pt x="744" y="449" on="0"/>
        <pt x="744" y="347" on="1"/>
        <pt x="744" y="246" on="0"/>
        <pt x="650" y="84" on="0"/>
        <pt x="489" y="-7" on="0"/>
        <pt x="392" y="-7" on="1"/>
        <pt x="295" y="-7" on="0"/>
        <pt x="133" y="84" on="0"/>
        <pt x="39" y="246" on="0"/>
        <pt x="39" y="347" on="1"/>
        <pt x="39" y="449" on="0"/>
        <pt x="133" y="610" on="0"/>
        <pt x="295" y="700" on="0"/>
        <pt x="392" y="700" on="1"/>
      </contour>
      <contour>
        <pt x="318" y="619" on="0"/>
        <pt x="199" y="552" on="0"/>
        <pt x="131" y="428" on="0"/>
        <pt x="131" y="347" on="1"/>
        <pt x="131" y="266" on="0"/>
        <pt x="199" y="142" on="0"/>
        <pt x="318" y="74" on="0"/>
        <pt x="392" y="74" on="1"/>
        <pt x="466" y="74" on="0"/>
        <pt x="584" y="142" on="0"/>
        <pt x="651" y="266" on="0"/>
        <pt x="651" y="347" on="1"/>
        <pt x="651" y="428" on="0"/>
        <pt x="584" y="552" on="0"/>
        <pt x="466" y="619" on="0"/>
        <pt x="392" y="619" on="1"/>
      </contour>
    </TTGlyph>
    <TTGlyph name="OE" xMin="39" yMin="-7" xMax="1017" yMax="700">
      <contour>
        <pt x="742" y="385" on="1"/>
        <pt x="987" y="385" on="1"/>
        <pt x="987" y="313" on="1"/>
        <pt x="742" y="313" on="1"/>
        <pt x="742" y="72" on="1"/>
        <pt x="1017" y="72" on="1"/>
        <pt x="1017" y="0" on="1"/>
        <pt x="651" y="0" on="1"/>
        <pt x="651" y="130" on="1"/>
        <pt x="606" y="62" on="0"/>
        <pt x="473" y="-7" on="0"/>
        <pt x="392" y="-7" on="1"/>
        <pt x="295" y="-7" on="0"/>
        <pt x="133" y="84" on="0"/>
        <pt x="39" y="246" on="0"/>
        <pt x="39" y="347" on="1"/>
        <pt x="39" y="450" on="0"/>
        <pt x="134" y="610" on="0"/>
        <pt x="295" y="700" on="0"/>
        <pt x="392" y="700" on="1"/>
        <pt x="474" y="700" on="0"/>
        <pt x="606" y="632" on="0"/>
        <pt x="651" y="562" on="1"/>
        <pt x="651" y="693" on="1"/>
        <pt x="1017" y="693" on="1"/>
        <pt x="1017" y="620" on="1"/>
        <pt x="742" y="620" on="1"/>
      </contour>
      <contour>
        <pt x="466" y="74" on="0"/>
        <pt x="584" y="142" on="0"/>
        <pt x="651" y="266" on="0"/>
        <pt x="651" y="347" on="1"/>
        <pt x="651" y="428" on="0"/>
        <pt x="584" y="552" on="0"/>
        <pt x="466" y="619" on="0"/>
        <pt x="392" y="619" on="1"/>
        <pt x="318" y="619" on="0"/>
        <pt x="199" y="552" on="0"/>
        <pt x="131" y="428" on="0"/>
        <pt x="131" y="347" on="1"/>
        <pt x="131" y="266" on="0"/>
        <pt x="199" y="142" on="0"/>
        <pt x="318" y="74" on="0"/>
        <pt x="392" y="74" on="1"/>
      </contour>
    </TTGlyph>
    <TTGlyph name="Oacute" xMin="39" yMin="-7" xMax="744" yMax="927">
      <component glyphName="O" x="0" y="0" flags="0x0"/>
      <component glyphName="acute" x="266" y="144" flags="0x4"/>
    </TTGlyph>
    <TTGlyph name="Ocircumflex" xMin="39" yMin="-7" xMax="744" yMax="901">
      <component glyphName="O" x="0" y="0" flags="0x0"/>
      <component glyphName="circumflex" x="243" y="144" flags="0x4"/>
    </TTGlyph>
    <TTGlyph name="Odieresis" xMin="39" yMin="-7" xMax="744" yMax="872">
      <component glyphName="O" x="0" y="0" flags="0x0"/>
      <component glyphName="dieresis" x="247" y="144" flags="0x4"/>
    </TTGlyph>
    <TTGlyph name="Ograve" xMin="39" yMin="-7" xMax="744" yMax="927">
      <component glyphName="O" x="0" y="0" flags="0x0"/>
      <component glyphName="grave" x="266" y="144" flags="0x4"/>
    </TTGlyph>
    <TTGlyph name="Ohungarumlaut" xMin="39" yMin="-7" xMax="744" yMax="899">
      <component glyphName="O" x="0" y="0" flags="0x0"/>
      <component glyphName="hungarumlaut" x="267" y="144" flags="0x4"/>
    </TTGlyph>
    <TTGlyph name="Omacron" xMin="39" yMin="-7" xMax="744" yMax="854">
      <component glyphName="O" x="0" y="0" flags="0x0"/>
      <component glyphName="macron" x="205" y="144" flags="0x4"/>
    </TTGlyph>
    <TTGlyph name="Oslash" xMin="28" yMin="-7" xMax="756" yMax="700">
      <contour>
        <pt x="657" y="586" on="1"/>
        <pt x="698" y="539" on="0"/>
        <pt x="744" y="417" on="0"/>
        <pt x="744" y="347" on="1"/>
        <pt x="744" y="246" on="0"/>
        <pt x="650" y="84" on="0"/>
        <pt x="489" y="-7" on="0"/>
        <pt x="392" y="-7" on="1"/>
        <pt x="330" y="-7" on="0"/>
        <pt x="220" y="30" on="0"/>
        <pt x="174" y="65" on="1"/>
        <pt x="114" y="0" on="1"/>
        <pt x="28" y="0" on="1"/>
        <pt x="128" y="107" on="1"/>
        <pt x="85" y="154" on="0"/>
        <pt x="39" y="277" on="0"/>
        <pt x="39" y="347" on="1"/>
        <pt x="39" y="449" on="0"/>
        <pt x="133" y="610" on="0"/>
        <pt x="295" y="700" on="0"/>
        <pt x="392" y="700" on="1"/>
        <pt x="453" y="700" on="0"/>
        <pt x="564" y="663" on="0"/>
        <pt x="610" y="629" on="1"/>
        <pt x="670" y="693" on="1"/>
        <pt x="756" y="693" on="1"/>
      </contour>
      <contour>
        <pt x="131" y="242" on="0"/>
        <pt x="186" y="171" on="1"/>
        <pt x="553" y="567" on="1"/>
        <pt x="484" y="619" on="0"/>
        <pt x="392" y="619" on="1"/>
        <pt x="318" y="619" on="0"/>
        <pt x="199" y="552" on="0"/>
        <pt x="131" y="428" on="0"/>
        <pt x="131" y="347" on="1"/>
      </contour>
      <contour>
        <pt x="651" y="449" on="0"/>
        <pt x="597" y="522" on="1"/>
        <pt x="231" y="126" on="1"/>
        <pt x="298" y="74" on="0"/>
        <pt x="392" y="74" on="1"/>
        <pt x="466" y="74" on="0"/>
        <pt x="584" y="142" on="0"/>
        <pt x="651" y="266" on="0"/>
        <pt x="651" y="347" on="1"/>
      </contour>
    </TTGlyph>
    <TTGlyph name="Otilde" xMin="39" yMin="-7" xMax="744" yMax="855">
      <component glyphName="O" x="0" y="0" flags="0x0"/>
      <component glyphName="tilde" x="232" y="144" flags="0x4"/>
    </TTGlyph>
    <TTGlyph name="P" xMin="75" yMin="0" xMax="540" yMax="693">
      <contour>
        <pt x="166" y="286" on="1"/>
        <pt x="166" y="0" on="1"/>
        <pt x="75" y="0" on="1"/>
        <pt x="75" y="693" on="1"/>
        <pt x="300" y="693" on="1"/>
        <pt x="378" y="693" on="0"/>
        <pt x="486" y="640" on="0"/>
        <pt x="540" y="547" on="0"/>
        <pt x="540" y="489" on="1"/>
        <pt x="540" y="401" on="0"/>
        <pt x="421" y="286" on="0"/>
        <pt x="300" y="286" on="1"/>
      </contour>
      <contour>
        <pt x="375" y="358" on="0"/>
        <pt x="448" y="427" on="0"/>
        <pt x="448" y="489" on="1"/>
        <pt x="448" y="551" on="0"/>
        <pt x="376" y="620" on="0"/>
        <pt x="300" y="620" on="1"/>
        <pt x="166" y="620" on="1"/>
        <pt x="166" y="358" on="1"/>
        <pt x="300" y="358" on="1"/>
      </contour>
    </TTGlyph>
    <TTGlyph name="Q" xMin="39" yMin="-131" xMax="756" yMax="700">
      <contour>
        <pt x="636" y="-131" on="1"/>
        <pt x="496" y="8" on="1"/>
        <pt x="448" y="-7" on="0"/>
        <pt x="392" y="-7" on="1"/>
        <pt x="295" y="-7" on="0"/>
        <pt x="133" y="84" on="0"/>
        <pt x="39" y="246" on="0"/>
        <pt x="39" y="347" on="1"/>
        <pt x="39" y="449" on="0"/>
        <pt x="133" y="610" on="0"/>
        <pt x="295" y="700" on="0"/>
        <pt x="392" y="700" on="1"/>
        <pt x="489" y="700" on="0"/>
        <pt x="650" y="610" on="0"/>
        <pt x="744" y="449" on="0"/>
        <pt x="744" y="347" on="1"/>
        <pt x="744" y="248" on="0"/>
        <pt x="656" y="90" on="0"/>
        <pt x="579" y="44" on="1"/>
        <pt x="756" y="-131" on="1"/>
      </contour>
      <contour>
        <pt x="131" y="266" on="0"/>
        <pt x="199" y="142" on="0"/>
        <pt x="318" y="74" on="0"/>
        <pt x="392" y="74" on="1"/>
        <pt x="466" y="74" on="0"/>
        <pt x="584" y="142" on="0"/>
        <pt x="651" y="266" on="0"/>
        <pt x="651" y="347" on="1"/>
        <pt x="651" y="428" on="0"/>
        <pt x="584" y="552" on="0"/>
        <pt x="466" y="619" on="0"/>
        <pt x="392" y="619" on="1"/>
        <pt x="318" y="619" on="0"/>
        <pt x="199" y="552" on="0"/>
        <pt x="131" y="428" on="0"/>
        <pt x="131" y="347" on="1"/>
      </contour>
    </TTGlyph>
    <TTGlyph name="R" xMin="75" yMin="0" xMax="551" yMax="693">
      <contour>
        <pt x="437" y="0" on="1"/>
        <pt x="255" y="286" on="1"/>
        <pt x="166" y="286" on="1"/>
        <pt x="166" y="0" on="1"/>
        <pt x="75" y="0" on="1"/>
        <pt x="75" y="693" on="1"/>
        <pt x="300" y="693" on="1"/>
        <pt x="378" y="693" on="0"/>
        <pt x="486" y="640" on="0"/>
        <pt x="540" y="547" on="0"/>
        <pt x="540" y="489" on="1"/>
        <pt x="540" y="414" on="0"/>
        <pt x="450" y="304" on="0"/>
        <pt x="360" y="290" on="1"/>
        <pt x="551" y="0" on="1"/>
      </contour>
      <contour>
        <pt x="166" y="358" on="1"/>
        <pt x="300" y="358" on="1"/>
        <pt x="375" y="358" on="0"/>
        <pt x="448" y="427" on="0"/>
        <pt x="448" y="489" on="1"/>
        <pt x="448" y="551" on="0"/>
        <pt x="376" y="620" on="0"/>
        <pt x="300" y="620" on="1"/>
        <pt x="166" y="620" on="1"/>
      </contour>
    </TTGlyph>
    <TTGlyph name="Racute" xMin="75" yMin="0" xMax="551" yMax="927">
      <component glyphName="R" x="0" y="0" flags="0x0"/>
      <component glyphName="acute" x="183" y="144" flags="0x4"/>
    </TTGlyph>
    <TTGlyph name="Rcaron" xMin="75" yMin="0" xMax="551" yMax="901">
      <component glyphName="R" x="0" y="0" flags="0x0"/>
      <component glyphName="caron" x="160" y="144" flags="0x4"/>
    </TTGlyph>
    <TTGlyph name="S" xMin="60" yMin="-7" xMax="527" yMax="700">
      <contour>
        <pt x="527" y="142" on="0"/>
        <pt x="473" y="50" on="0"/>
        <pt x="367" y="-7" on="0"/>
        <pt x="293" y="-7" on="1"/>
        <pt x="227" y="-7" on="0"/>
        <pt x="121" y="36" on="0"/>
        <pt x="60" y="117" on="0"/>
        <pt x="60" y="173" on="1"/>
        <pt x="157" y="173" on="1"/>
        <pt x="161" y="126" on="0"/>
        <pt x="228" y="68" on="0"/>
        <pt x="293" y="68" on="1"/>
        <pt x="360" y="68" on="0"/>
        <pt x="438" y="136" on="0"/>
        <pt x="438" y="189" on="1"/>
        <pt x="438" y="229" on="0"/>
        <pt x="394" y="276" on="0"/>
        <pt x="328" y="300" on="0"/>
        <pt x="273" y="312" on="1"/>
        <pt x="204" y="328" on="0"/>
        <pt x="119" y="362" on="0"/>
        <pt x="60" y="438" on="0"/>
        <pt x="60" y="505" on="1"/>
        <pt x="60" y="563" on="0"/>
        <pt x="116" y="651" on="0"/>
        <pt x="221" y="700" on="0"/>
        <pt x="291" y="700" on="1"/>
        <pt x="386" y="700" on="0"/>
        <pt x="505" y="607" on="0"/>
        <pt x="514" y="525" on="1"/>
        <pt x="413" y="525" on="1"/>
        <pt x="409" y="566" on="0"/>
        <pt x="340" y="624" on="0"/>
        <pt x="282" y="624" on="1"/>
        <pt x="223" y="624" on="0"/>
        <pt x="149" y="565" on="0"/>
        <pt x="149" y="508" on="1"/>
        <pt x="149" y="467" on="0"/>
        <pt x="193" y="419" on="0"/>
        <pt x="258" y="395" on="0"/>
        <pt x="316" y="382" on="1"/>
        <pt x="384" y="366" on="0"/>
        <pt x="468" y="333" on="0"/>
        <pt x="527" y="259" on="0"/>
        <pt x="527" y="194" on="1"/>
      </contour>
    </TTGlyph>
    <TTGlyph name="Sacute" xMin="60" yMin="-7" xMax="527" yMax="927">
      <component glyphName="S" x="0" y="0" flags="0x0"/>
      <component glyphName="acute" x="168" y="144" flags="0x4"/>
    </TTGlyph>
    <TTGlyph name="Scaron" xMin="60" yMin="-7" xMax="527" yMax="901">
      <component glyphName="S" x="0" y="0" flags="0x0"/>
      <component glyphName="caron" x="146" y="144" flags="0x4"/>
    </TTGlyph>
    <TTGlyph name="T" xMin="44" yMin="0" xMax="501" yMax="693">
      <contour>
        <pt x="501" y="693" on="1"/>
        <pt x="501" y="620" on="1"/>
        <pt x="318" y="620" on="1"/>
        <pt x="318" y="0" on="1"/>
        <pt x="227" y="0" on="1"/>
        <pt x="227" y="620" on="1"/>
        <pt x="44" y="620" on="1"/>
        <pt x="44" y="693" on="1"/>
      </contour>
    </TTGlyph>
    <TTGlyph name="Tcaron" xMin="44" yMin="0" xMax="501" yMax="901">
      <component glyphName="T" x="0" y="0" flags="0x0"/>
      <component glyphName="caron" x="125" y="144" flags="0x4"/>
    </TTGlyph>
    <TTGlyph name="Thorn" xMin="75" yMin="0" xMax="540" yMax="693">
      <contour>
        <pt x="166" y="144" on="1"/>
        <pt x="166" y="0" on="1"/>
        <pt x="75" y="0" on="1"/>
        <pt x="75" y="693" on="1"/>
        <pt x="165" y="693" on="1"/>
        <pt x="165" y="550" on="1"/>
        <pt x="300" y="550" on="1"/>
        <pt x="417" y="550" on="0"/>
        <pt x="540" y="437" on="0"/>
        <pt x="540" y="346" on="1"/>
        <pt x="540" y="259" on="0"/>
        <pt x="421" y="144" on="0"/>
        <pt x="300" y="144" on="1"/>
      </contour>
      <contour>
        <pt x="375" y="216" on="0"/>
        <pt x="448" y="285" on="0"/>
        <pt x="448" y="346" on="1"/>
        <pt x="448" y="409" on="0"/>
        <pt x="376" y="478" on="0"/>
        <pt x="300" y="478" on="1"/>
        <pt x="166" y="478" on="1"/>
        <pt x="166" y="216" on="1"/>
        <pt x="300" y="216" on="1"/>
      </contour>
    </TTGlyph>
    <TTGlyph name="U" xMin="74" yMin="-7" xMax="600" yMax="693">
      <contour>
        <pt x="166" y="693" on="1"/>
        <pt x="166" y="243" on="1"/>
        <pt x="166" y="157" on="0"/>
        <pt x="257" y="72" on="0"/>
        <pt x="337" y="72" on="1"/>
        <pt x="417" y="72" on="0"/>
        <pt x="509" y="157" on="0"/>
        <pt x="509" y="243" on="1"/>
        <pt x="509" y="693" on="1"/>
        <pt x="600" y="693" on="1"/>
        <pt x="600" y="243" on="1"/>
        <pt x="600" y="161" on="0"/>
        <pt x="530" y="48" on="0"/>
        <pt x="410" y="-7" on="0"/>
        <pt x="337" y="-7" on="1"/>
        <pt x="263" y="-7" on="0"/>
        <pt x="144" y="48" on="0"/>
        <pt x="74" y="161" on="0"/>
        <pt x="74" y="243" on="1"/>
        <pt x="74" y="693" on="1"/>
      </contour>
    </TTGlyph>
    <TTGlyph name="Uacute" xMin="74" yMin="-7" xMax="600" yMax="927">
      <component glyphName="U" x="0" y="0" flags="0x0"/>
      <component glyphName="acute" x="211" y="144" flags="0x4"/>
    </TTGlyph>
    <TTGlyph name="Ucircumflex" xMin="74" yMin="-7" xMax="600" yMax="901">
      <component glyphName="U" x="0" y="0" flags="0x0"/>
      <component glyphName="circumflex" x="188" y="144" flags="0x4"/>
    </TTGlyph>
    <TTGlyph name="Udieresis" xMin="74" yMin="-7" xMax="600" yMax="872">
      <component glyphName="U" x="0" y="0" flags="0x0"/>
      <component glyphName="dieresis" x="192" y="144" flags="0x4"/>
    </TTGlyph>
    <TTGlyph name="Ugrave" xMin="74" yMin="-7" xMax="600" yMax="927">
      <component glyphName="U" x="0" y="0" flags="0x0"/>
      <component glyphName="grave" x="211" y="144" flags="0x4"/>
    </TTGlyph>
    <TTGlyph name="Uhungarumlaut" xMin="74" yMin="-7" xMax="600" yMax="899">
      <component glyphName="U" x="0" y="0" flags="0x0"/>
      <component glyphName="hungarumlaut" x="212" y="144" flags="0x4"/>
    </TTGlyph>
    <TTGlyph name="Umacron" xMin="74" yMin="-7" xMax="600" yMax="854">
      <component glyphName="U" x="0" y="0" flags="0x0"/>
      <component glyphName="macron" x="150" y="144" flags="0x4"/>
    </TTGlyph>
    <TTGlyph name="Uogonek" xMin="74" yMin="-146" xMax="600" yMax="693">
      <contour>
        <pt x="166" y="693" on="1"/>
        <pt x="166" y="243" on="1"/>
        <pt x="166" y="157" on="0"/>
        <pt x="257" y="72" on="0"/>
        <pt x="337" y="72" on="1"/>
        <pt x="417" y="72" on="0"/>
        <pt x="509" y="157" on="0"/>
        <pt x="509" y="243" on="1"/>
        <pt x="509" y="693" on="1"/>
        <pt x="600" y="693" on="1"/>
        <pt x="600" y="243" on="1"/>
        <pt x="600" y="140" on="0"/>
        <pt x="500" y="25" on="0"/>
        <pt x="431" y="6" on="1"/>
        <pt x="393" y="-5" on="0"/>
        <pt x="365" y="-24" on="0"/>
        <pt x="365" y="-42" on="1"/>
        <pt x="365" y="-83" on="0"/>
        <pt x="417" y="-83" on="1"/>
        <pt x="500" y="-83" on="1"/>
        <pt x="500" y="-146" on="1"/>
        <pt x="409" y="-146" on="1"/>
        <pt x="353" y="-146" on="0"/>
        <pt x="282" y="-89" on="0"/>
        <pt x="282" y="-41" on="1"/>
        <pt x="282" y="-22" on="0"/>
        <pt x="290" y="-4" on="1"/>
        <pt x="193" y="9" on="0"/>
        <pt x="74" y="134" on="0"/>
        <pt x="74" y="243" on="1"/>
        <pt x="74" y="693" on="1"/>
      </contour>
    </TTGlyph>
    <TTGlyph name="Uring" xMin="74" yMin="-7" xMax="600" yMax="961">
      <component glyphName="U" x="0" y="0" flags="0x0"/>
      <component glyphName="ring" x="222" y="144" flags="0x4"/>
    </TTGlyph>
    <TTGlyph name="V" xMin="24" yMin="0" xMax="656" yMax="693">
      <contour>
        <pt x="121" y="693" on="1"/>
        <pt x="339" y="97" on="1"/>
        <pt x="559" y="693" on="1"/>
        <pt x="656" y="693" on="1"/>
        <pt x="389" y="0" on="1"/>
        <pt x="291" y="0" on="1"/>
        <pt x="24" y="693" on="1"/>
      </contour>
    </TTGlyph>
    <TTGlyph name="W" xMin="24" yMin="-1" xMax="956" yMax="693">
      <contour>
        <pt x="956" y="693" on="1"/>
        <pt x="746" y="0" on="1"/>
        <pt x="644" y="0" on="1"/>
        <pt x="488" y="560" on="1"/>
        <pt x="321" y="0" on="1"/>
        <pt x="220" y="-1" on="1"/>
        <pt x="24" y="693" on="1"/>
        <pt x="120" y="693" on="1"/>
        <pt x="274" y="104" on="1"/>
        <pt x="442" y="693" on="1"/>
        <pt x="542" y="693" on="1"/>
        <pt x="697" y="106" on="1"/>
        <pt x="860" y="693" on="1"/>
      </contour>
    </TTGlyph>
    <TTGlyph name="X" xMin="50" yMin="0" xMax="580" yMax="693">
      <contour>
        <pt x="366" y="346" on="1"/>
        <pt x="579" y="0" on="1"/>
        <pt x="479" y="0" on="1"/>
        <pt x="310" y="273" on="1"/>
        <pt x="151" y="0" on="1"/>
        <pt x="50" y="0" on="1"/>
        <pt x="264" y="347" on="1"/>
        <pt x="50" y="693" on="1"/>
        <pt x="151" y="693" on="1"/>
        <pt x="320" y="419" on="1"/>
        <pt x="479" y="693" on="1"/>
        <pt x="580" y="693" on="1"/>
      </contour>
    </TTGlyph>
    <TTGlyph name="Y" xMin="15" yMin="0" xMax="557" yMax="693">
      <contour>
        <pt x="557" y="693" on="1"/>
        <pt x="332" y="262" on="1"/>
        <pt x="332" y="0" on="1"/>
        <pt x="241" y="0" on="1"/>
        <pt x="241" y="262" on="1"/>
        <pt x="15" y="693" on="1"/>
        <pt x="115" y="693" on="1"/>
        <pt x="286" y="346" on="1"/>
        <pt x="456" y="693" on="1"/>
      </contour>
    </TTGlyph>
    <TTGlyph name="Yacute" xMin="15" yMin="0" xMax="557" yMax="927">
      <component glyphName="Y" x="0" y="0" flags="0x0"/>
      <component glyphName="acute" x="161" y="144" flags="0x4"/>
    </TTGlyph>
    <TTGlyph name="Ydieresis" xMin="15" yMin="0" xMax="557" yMax="872">
      <component glyphName="Y" x="0" y="0" flags="0x0"/>
      <component glyphName="dieresis" x="142" y="144" flags="0x4"/>
    </TTGlyph>
    <TTGlyph name="Z" xMin="50" yMin="0" xMax="492" yMax="693">
      <contour>
        <pt x="155" y="72" on="1"/>
        <pt x="492" y="72" on="1"/>
        <pt x="492" y="0" on="1"/>
        <pt x="50" y="0" on="1"/>
        <pt x="50" y="72" on="1"/>
        <pt x="388" y="620" on="1"/>
        <pt x="50" y="620" on="1"/>
        <pt x="50" y="693" on="1"/>
        <pt x="492" y="693" on="1"/>
        <pt x="492" y="620" on="1"/>
      </contour>
    </TTGlyph>
    <TTGlyph name="Zacute" xMin="50" yMin="0" xMax="492" yMax="927">
      <component glyphName="Z" x="0" y="0" flags="0x0"/>
      <component glyphName="acute" x="146" y="144" flags="0x4"/>
    </TTGlyph>
    <TTGlyph name="Zcaron" xMin="50" yMin="0" xMax="492" yMax="901">
      <component glyphName="Z" x="0" y="0" flags="0x0"/>
      <component glyphName="caron" x="123" y="144" flags="0x4"/>
    </TTGlyph>
    <TTGlyph name="Zdotaccent" xMin="50" yMin="0" xMax="492" yMax="872">
      <component glyphName="Z" x="0" y="0" flags="0x0"/>
      <component glyphName="dotaccent" x="207" y="144" flags="0x4"/>
    </TTGlyph>
    <TTGlyph name="a" xMin="39" yMin="-9" xMax="595" yMax="558">
      <contour>
        <pt x="371" y="558" on="0"/>
        <pt x="476" y="492" on="0"/>
        <pt x="503" y="439" on="1"/>
        <pt x="503" y="549" on="1"/>
        <pt x="595" y="549" on="1"/>
        <pt x="595" y="0" on="1"/>
        <pt x="503" y="0" on="1"/>
        <pt x="503" y="112" on="1"/>
        <pt x="476" y="58" on="0"/>
        <pt x="371" y="-9" on="0"/>
        <pt x="301" y="-9" on="1"/>
        <pt x="227" y="-9" on="0"/>
        <pt x="108" y="64" on="0"/>
        <pt x="39" y="195" on="0"/>
        <pt x="39" y="278" on="1"/>
        <pt x="39" y="361" on="0"/>
        <pt x="108" y="488" on="0"/>
        <pt x="227" y="558" on="0"/>
        <pt x="301" y="558" on="1"/>
      </contour>
      <contour>
        <pt x="268" y="479" on="0"/>
        <pt x="183" y="431" on="0"/>
        <pt x="132" y="340" on="0"/>
        <pt x="132" y="278" on="1"/>
        <pt x="132" y="216" on="0"/>
        <pt x="183" y="121" on="0"/>
        <pt x="268" y="69" on="0"/>
        <pt x="317" y="69" on="1"/>
        <pt x="367" y="69" on="0"/>
        <pt x="452" y="119" on="0"/>
        <pt x="503" y="212" on="0"/>
        <pt x="503" y="274" on="1"/>
        <pt x="503" y="336" on="0"/>
        <pt x="452" y="429" on="0"/>
        <pt x="367" y="479" on="0"/>
        <pt x="317" y="479" on="1"/>
      </contour>
    </TTGlyph>
    <TTGlyph name="aacute" xMin="39" yMin="-9" xMax="595" yMax="783">
      <component glyphName="a" x="0" y="0" flags="0x0"/>
      <component glyphName="acute" x="209" y="0" flags="0x0"/>
    </TTGlyph>
    <TTGlyph name="abreve" xMin="39" yMin="-9" xMax="595" yMax="758">
      <component glyphName="a" x="0" y="0" flags="0x0"/>
      <component glyphName="breve" x="182" y="0" flags="0x0"/>
    </TTGlyph>
    <TTGlyph name="acircumflex" xMin="39" yMin="-9" xMax="595" yMax="757">
      <component glyphName="a" x="0" y="0" flags="0x0"/>
      <component glyphName="circumflex" x="186" y="0" flags="0x0"/>
    </TTGlyph>
    <TTGlyph name="acute" xMin="10" yMin="587" xMax="223" yMax="783">
      <contour>
        <pt x="223" y="699" on="1"/>
        <pt x="10" y="587" on="1"/>
        <pt x="10" y="657" on="1"/>
        <pt x="223" y="783" on="1"/>
      </contour>
    </TTGlyph>
    <TTGlyph name="adieresis" xMin="39" yMin="-9" xMax="595" yMax="728">
      <component glyphName="a" x="0" y="0" flags="0x0"/>
      <component glyphName="dieresis" x="190" y="0" flags="0x0"/>
    </TTGlyph>
    <TTGlyph name="ae" xMin="39" yMin="-9" xMax="1046" yMax="558">
      <contour>
        <pt x="1046" y="268" on="0"/>
        <pt x="1042" y="243" on="1"/>
        <pt x="598" y="243" on="1"/>
        <pt x="603" y="189" on="0"/>
        <pt x="656" y="109" on="0"/>
        <pt x="735" y="66" on="0"/>
        <pt x="780" y="66" on="1"/>
        <pt x="837" y="66" on="0"/>
        <pt x="912" y="116" on="0"/>
        <pt x="929" y="157" on="1"/>
        <pt x="1027" y="157" on="1"/>
        <pt x="1001" y="84" on="0"/>
        <pt x="878" y="-9" on="0"/>
        <pt x="785" y="-9" on="1"/>
        <pt x="724" y="-9" on="0"/>
        <pt x="622" y="46" on="0"/>
        <pt x="592" y="93" on="1"/>
        <pt x="592" y="0" on="1"/>
        <pt x="501" y="0" on="1"/>
        <pt x="501" y="94" on="1"/>
        <pt x="470" y="47" on="0"/>
        <pt x="365" y="-9" on="0"/>
        <pt x="301" y="-9" on="1"/>
        <pt x="227" y="-9" on="0"/>
        <pt x="108" y="64" on="0"/>
        <pt x="39" y="195" on="0"/>
        <pt x="39" y="278" on="1"/>
        <pt x="39" y="361" on="0"/>
        <pt x="108" y="489" on="0"/>
        <pt x="231" y="558" on="0"/>
        <pt x="309" y="558" on="1"/>
        <pt x="439" y="558" on="0"/>
        <pt x="501" y="460" on="1"/>
        <pt x="501" y="549" on="1"/>
        <pt x="592" y="549" on="1"/>
        <pt x="592" y="460" on="1"/>
        <pt x="630" y="513" on="0"/>
        <pt x="725" y="558" on="0"/>
        <pt x="789" y="558" on="1"/>
        <pt x="864" y="558" on="0"/>
        <pt x="981" y="490" on="0"/>
        <pt x="1046" y="371" on="0"/>
        <pt x="1046" y="297" on="1"/>
      </contour>
      <contour>
        <pt x="952" y="309" on="1"/>
        <pt x="951" y="389" on="0"/>
        <pt x="856" y="483" on="0"/>
        <pt x="781" y="483" on="1"/>
        <pt x="735" y="483" on="0"/>
        <pt x="656" y="440" on="0"/>
        <pt x="604" y="361" on="0"/>
        <pt x="598" y="309" on="1"/>
      </contour>
      <contour>
        <pt x="367" y="69" on="0"/>
        <pt x="452" y="119" on="0"/>
        <pt x="503" y="212" on="0"/>
        <pt x="503" y="274" on="1"/>
        <pt x="503" y="336" on="0"/>
        <pt x="452" y="429" on="0"/>
        <pt x="367" y="479" on="0"/>
        <pt x="317" y="479" on="1"/>
        <pt x="268" y="479" on="0"/>
        <pt x="183" y="431" on="0"/>
        <pt x="132" y="340" on="0"/>
        <pt x="132" y="278" on="1"/>
        <pt x="132" y="216" on="0"/>
        <pt x="183" y="121" on="0"/>
        <pt x="268" y="69" on="0"/>
        <pt x="317" y="69" on="1"/>
      </contour>
    </TTGlyph>
    <TTGlyph name="agrave" xMin="39" yMin="-9" xMax="595" yMax="783">
      <component glyphName="a" x="0" y="0" flags="0x0"/>
      <component glyphName="grave" x="209" y="0" flags="0x0"/>
    </TTGlyph>
    <TTGlyph name="amacron" xMin="39" yMin="-9" xMax="595" yMax="710">
      <component glyphName="a" x="0" y="0" flags="0x0"/>
      <component glyphName="macron" x="148" y="0" flags="0x0"/>
    </TTGlyph>
    <TTGlyph name="ampersand" xMin="38" yMin="-8" xMax="653" yMax="740">
      <contour>
        <pt x="542" y="0" on="1"/>
        <pt x="437" y="140" on="1"/>
        <pt x="419" y="75" on="0"/>
        <pt x="312" y="-8" on="0"/>
        <pt x="242" y="-8" on="1"/>
        <pt x="186" y="-8" on="0"/>
        <pt x="92" y="44" on="0"/>
        <pt x="38" y="137" on="0"/>
        <pt x="38" y="196" on="1"/>
        <pt x="38" y="255" on="0"/>
        <pt x="91" y="348" on="0"/>
        <pt x="182" y="399" on="0"/>
        <pt x="236" y="399" on="1"/>
        <pt x="244" y="399" on="0"/>
        <pt x="255" y="394" on="0"/>
        <pt x="262" y="390" on="1"/>
        <pt x="222" y="420" on="1"/>
        <pt x="188" y="465" on="0"/>
        <pt x="153" y="540" on="0"/>
        <pt x="153" y="579" on="1"/>
        <pt x="153" y="621" on="0"/>
        <pt x="196" y="695" on="0"/>
        <pt x="277" y="740" on="0"/>
        <pt x="333" y="740" on="1"/>
        <pt x="388" y="740" on="0"/>
        <pt x="470" y="696" on="0"/>
        <pt x="513" y="624" on="0"/>
        <pt x="513" y="583" on="1"/>
        <pt x="513" y="562" on="0"/>
        <pt x="506" y="537" on="1"/>
        <pt x="414" y="537" on="1"/>
        <pt x="420" y="555" on="0"/>
        <pt x="420" y="578" on="1"/>
        <pt x="420" y="615" on="0"/>
        <pt x="371" y="665" on="0"/>
        <pt x="333" y="665" on="1"/>
        <pt x="294" y="665" on="0"/>
        <pt x="245" y="615" on="0"/>
        <pt x="245" y="578" on="1"/>
        <pt x="245" y="554" on="0"/>
        <pt x="265" y="507" on="0"/>
        <pt x="291" y="472" on="1"/>
        <pt x="653" y="0" on="1"/>
      </contour>
      <contour>
        <pt x="275" y="66" on="0"/>
        <pt x="331" y="101" on="0"/>
        <pt x="364" y="161" on="0"/>
        <pt x="364" y="197" on="1"/>
        <pt x="364" y="233" on="0"/>
        <pt x="331" y="292" on="0"/>
        <pt x="275" y="327" on="0"/>
        <pt x="242" y="327" on="1"/>
        <pt x="192" y="327" on="0"/>
        <pt x="122" y="252" on="0"/>
        <pt x="122" y="197" on="1"/>
        <pt x="122" y="142" on="0"/>
        <pt x="192" y="66" on="0"/>
        <pt x="242" y="66" on="1"/>
      </contour>
    </TTGlyph>
    <TTGlyph name="aogonek" xMin="39" yMin="-202" xMax="627" yMax="558">
      <contour>
        <pt x="627" y="-139" on="1"/>
        <pt x="627" y="-202" on="1"/>
        <pt x="536" y="-202" on="1"/>
        <pt x="480" y="-202" on="0"/>
        <pt x="409" y="-145" on="0"/>
        <pt x="409" y="-97" on="1"/>
        <pt x="409" y="-58" on="0"/>
        <pt x="460" y="-6" on="0"/>
        <pt x="503" y="2" on="1"/>
        <pt x="503" y="112" on="1"/>
        <pt x="476" y="58" on="0"/>
        <pt x="371" y="-9" on="0"/>
        <pt x="301" y="-9" on="1"/>
        <pt x="227" y="-9" on="0"/>
        <pt x="108" y="64" on="0"/>
        <pt x="39" y="195" on="0"/>
        <pt x="39" y="278" on="1"/>
        <pt x="39" y="361" on="0"/>
        <pt x="108" y="488" on="0"/>
        <pt x="227" y="558" on="0"/>
        <pt x="301" y="558" on="1"/>
        <pt x="371" y="558" on="0"/>
        <pt x="476" y="492" on="0"/>
        <pt x="503" y="439" on="1"/>
        <pt x="503" y="549" on="1"/>
        <pt x="595" y="549" on="1"/>
        <pt x="595" y="-56" on="1"/>
        <pt x="548" y="-56" on="1"/>
        <pt x="492" y="-56" on="0"/>
        <pt x="492" y="-97" on="1"/>
        <pt x="492" y="-139" on="0"/>
        <pt x="548" y="-139" on="1"/>
      </contour>
      <contour>
        <pt x="367" y="69" on="0"/>
        <pt x="452" y="119" on="0"/>
        <pt x="503" y="212" on="0"/>
        <pt x="503" y="274" on="1"/>
        <pt x="503" y="336" on="0"/>
        <pt x="452" y="429" on="0"/>
        <pt x="367" y="479" on="0"/>
        <pt x="317" y="479" on="1"/>
        <pt x="268" y="479" on="0"/>
        <pt x="183" y="431" on="0"/>
        <pt x="132" y="340" on="0"/>
        <pt x="132" y="278" on="1"/>
        <pt x="132" y="216" on="0"/>
        <pt x="183" y="121" on="0"/>
        <pt x="268" y="69" on="0"/>
        <pt x="317" y="69" on="1"/>
      </contour>
    </TTGlyph>
    <TTGlyph name="approxequal" xMin="38" yMin="201" xMax="483" yMax="558">
      <component glyphName="asciitilde" x="0" y="-47" flags="0x4"/>
      <component glyphName="asciitilde" x="0" y="164" flags="0x4"/>
    </TTGlyph>
    <TTGlyph name="aring" xMin="39" yMin="-9" xMax="595" yMax="817">
      <component glyphName="a" x="0" y="0" flags="0x0"/>
      <component glyphName="ring" x="220" y="0" flags="0x0"/>
    </TTGlyph>
    <TTGlyph name="asciicircum" xMin="38" yMin="170" xMax="594" yMax="693">
      <contour>
        <pt x="134" y="170" on="1"/>
        <pt x="38" y="170" on="1"/>
        <pt x="274" y="693" on="1"/>
        <pt x="358" y="693" on="1"/>
        <pt x="594" y="170" on="1"/>
        <pt x="498" y="170" on="1"/>
        <pt x="316" y="579" on="1"/>
      </contour>
    </TTGlyph>
    <TTGlyph name="asciitilde" xMin="38" yMin="248" xMax="483" yMax="394">
      <contour>
        <pt x="210" y="394" on="0"/>
        <pt x="249" y="377" on="0"/>
        <pt x="276" y="359" on="1"/>
        <pt x="296" y="345" on="0"/>
        <pt x="327" y="330" on="0"/>
        <pt x="345" y="330" on="1"/>
        <pt x="371" y="330" on="0"/>
        <pt x="411" y="362" on="0"/>
        <pt x="415" y="391" on="1"/>
        <pt x="483" y="391" on="1"/>
        <pt x="470" y="319" on="0"/>
        <pt x="393" y="248" on="0"/>
        <pt x="337" y="248" on="1"/>
        <pt x="310" y="248" on="0"/>
        <pt x="270" y="266" on="0"/>
        <pt x="245" y="283" on="1"/>
        <pt x="223" y="298" on="0"/>
        <pt x="194" y="312" on="0"/>
        <pt x="175" y="312" on="1"/>
        <pt x="150" y="312" on="0"/>
        <pt x="109" y="279" on="0"/>
        <pt x="105" y="251" on="1"/>
        <pt x="38" y="251" on="1"/>
        <pt x="51" y="323" on="0"/>
        <pt x="127" y="394" on="0"/>
        <pt x="183" y="394" on="1"/>
      </contour>
    </TTGlyph>
    <TTGlyph name="asterisk" xMin="58" yMin="360" xMax="426" yMax="734">
      <contour>
        <pt x="386" y="673" on="1"/>
        <pt x="426" y="601" on="1"/>
        <pt x="283" y="547" on="1"/>
        <pt x="426" y="493" on="1"/>
        <pt x="386" y="420" on="1"/>
        <pt x="266" y="511" on="1"/>
        <pt x="286" y="360" on="1"/>
        <pt x="204" y="360" on="1"/>
        <pt x="222" y="511" on="1"/>
        <pt x="100" y="418" on="1"/>
        <pt x="58" y="493" on="1"/>
        <pt x="200" y="547" on="1"/>
        <pt x="58" y="601" on="1"/>
        <pt x="100" y="674" on="1"/>
        <pt x="222" y="582" on="1"/>
        <pt x="204" y="734" on="1"/>
        <pt x="286" y="734" on="1"/>
        <pt x="266" y="582" on="1"/>
      </contour>
    </TTGlyph>
    <TTGlyph name="at" xMin="55" yMin="-252" xMax="1102" yMax="785">
      <contour>
        <pt x="782" y="785" on="0"/>
        <pt x="988" y="679" on="0"/>
        <pt x="1102" y="486" on="0"/>
        <pt x="1102" y="360" on="1"/>
        <pt x="1102" y="257" on="0"/>
        <pt x="1025" y="88" on="0"/>
        <pt x="901" y="-9" on="0"/>
        <pt x="836" y="-9" on="1"/>
        <pt x="777" y="-9" on="0"/>
        <pt x="722" y="61" on="0"/>
        <pt x="724" y="113" on="1"/>
        <pt x="689" y="57" on="0"/>
        <pt x="586" y="-9" on="0"/>
        <pt x="517" y="-9" on="1"/>
        <pt x="456" y="-9" on="0"/>
        <pt x="356" y="51" on="0"/>
        <pt x="299" y="159" on="0"/>
        <pt x="299" y="229" on="1"/>
        <pt x="299" y="256" on="0"/>
        <pt x="303" y="279" on="1"/>
        <pt x="315" y="361" on="0"/>
        <pt x="406" y="488" on="0"/>
        <pt x="538" y="557" on="0"/>
        <pt x="611" y="557" on="1"/>
        <pt x="677" y="557" on="0"/>
        <pt x="779" y="499" on="0"/>
        <pt x="834" y="396" on="0"/>
        <pt x="834" y="332" on="1"/>
        <pt x="834" y="306" on="0"/>
        <pt x="830" y="285" on="1"/>
        <pt x="805" y="124" on="1"/>
        <pt x="804" y="119" on="0"/>
        <pt x="804" y="110" on="1"/>
        <pt x="804" y="89" on="0"/>
        <pt x="825" y="68" on="0"/>
        <pt x="844" y="68" on="1"/>
        <pt x="881" y="68" on="0"/>
        <pt x="957" y="143" on="0"/>
        <pt x="1008" y="277" on="0"/>
        <pt x="1008" y="360" on="1"/>
        <pt x="1008" y="464" on="0"/>
        <pt x="920" y="622" on="0"/>
        <pt x="751" y="709" on="0"/>
        <pt x="634" y="709" on="1"/>
        <pt x="494" y="709" on="0"/>
        <pt x="273" y="576" on="0"/>
        <pt x="149" y="346" on="0"/>
        <pt x="149" y="206" on="1"/>
        <pt x="149" y="85" on="0"/>
        <pt x="252" y="-84" on="0"/>
        <pt x="437" y="-172" on="0"/>
        <pt x="560" y="-176" on="1"/>
        <pt x="541" y="-252" on="1"/>
        <pt x="400" y="-248" on="0"/>
        <pt x="180" y="-140" on="0"/>
        <pt x="55" y="64" on="0"/>
        <pt x="55" y="206" on="1"/>
        <pt x="55" y="367" on="0"/>
        <pt x="207" y="632" on="0"/>
        <pt x="477" y="785" on="0"/>
        <pt x="646" y="785" on="1"/>
      </contour>
      <contour>
        <pt x="740" y="294" on="0"/>
        <pt x="740" y="312" on="1"/>
        <pt x="740" y="385" on="0"/>
        <pt x="659" y="479" on="0"/>
        <pt x="597" y="479" on="1"/>
        <pt x="551" y="479" on="0"/>
        <pt x="465" y="425" on="0"/>
        <pt x="404" y="331" on="0"/>
        <pt x="396" y="274" on="1"/>
        <pt x="393" y="255" on="0"/>
        <pt x="393" y="235" on="1"/>
        <pt x="393" y="187" on="0"/>
        <pt x="430" y="111" on="0"/>
        <pt x="494" y="68" on="0"/>
        <pt x="535" y="68" on="1"/>
        <pt x="581" y="68" on="0"/>
        <pt x="668" y="122" on="0"/>
        <pt x="729" y="217" on="0"/>
        <pt x="737" y="274" on="1"/>
      </contour>
    </TTGlyph>
    <TTGlyph name="atilde" xMin="39" yMin="-9" xMax="595" yMax="711">
      <component glyphName="a" x="0" y="0" flags="0x0"/>
      <component glyphName="tilde" x="175" y="0" flags="0x0"/>
    </TTGlyph>
    <TTGlyph name="b" xMin="75" yMin="-9" xMax="631" yMax="740">
      <contour>
        <pt x="443" y="558" on="0"/>
        <pt x="562" y="488" on="0"/>
        <pt x="631" y="361" on="0"/>
        <pt x="631" y="278" on="1"/>
        <pt x="631" y="195" on="0"/>
        <pt x="562" y="64" on="0"/>
        <pt x="443" y="-9" on="0"/>
        <pt x="369" y="-9" on="1"/>
        <pt x="299" y="-9" on="0"/>
        <pt x="194" y="58" on="0"/>
        <pt x="166" y="112" on="1"/>
        <pt x="166" y="0" on="1"/>
        <pt x="75" y="0" on="1"/>
        <pt x="75" y="740" on="1"/>
        <pt x="166" y="740" on="1"/>
        <pt x="166" y="439" on="1"/>
        <pt x="194" y="492" on="0"/>
        <pt x="299" y="558" on="0"/>
        <pt x="369" y="558" on="1"/>
      </contour>
      <contour>
        <pt x="302" y="479" on="0"/>
        <pt x="217" y="429" on="0"/>
        <pt x="166" y="336" on="0"/>
        <pt x="166" y="274" on="1"/>
        <pt x="166" y="212" on="0"/>
        <pt x="217" y="119" on="0"/>
        <pt x="302" y="69" on="0"/>
        <pt x="351" y="69" on="1"/>
        <pt x="400" y="69" on="0"/>
        <pt x="486" y="120" on="0"/>
        <pt x="537" y="216" on="0"/>
        <pt x="537" y="278" on="1"/>
        <pt x="537" y="340" on="0"/>
        <pt x="486" y="431" on="0"/>
        <pt x="401" y="479" on="0"/>
        <pt x="351" y="479" on="1"/>
      </contour>
    </TTGlyph>
    <TTGlyph name="backslash" xMin="156" yMin="-170" xMax="559" yMax="942">
      <contour>
        <pt x="469" y="-170" on="1"/>
        <pt x="156" y="942" on="1"/>
        <pt x="247" y="942" on="1"/>
        <pt x="559" y="-170" on="1"/>
      </contour>
    </TTGlyph>
    <TTGlyph name="bar" xMin="105" yMin="-106" xMax="196" yMax="795">
      <contour>
        <pt x="196" y="-106" on="1"/>
        <pt x="105" y="-106" on="1"/>
        <pt x="105" y="795" on="1"/>
        <pt x="196" y="795" on="1"/>
      </contour>
    </TTGlyph>
    <TTGlyph name="braceleft" xMin="145" yMin="-217" xMax="444" yMax="961">
      <contour>
        <pt x="281" y="360" on="0"/>
        <pt x="332" y="289" on="0"/>
        <pt x="332" y="236" on="1"/>
        <pt x="332" y="212" on="0"/>
        <pt x="326" y="161" on="0"/>
        <pt x="325" y="153" on="1"/>
        <pt x="324" y="148" on="0"/>
        <pt x="316" y="84" on="0"/>
        <pt x="316" y="44" on="1"/>
        <pt x="316" y="-55" on="0"/>
        <pt x="384" y="-179" on="0"/>
        <pt x="444" y="-201" on="1"/>
        <pt x="444" y="-217" on="1"/>
        <pt x="353" y="-217" on="1"/>
        <pt x="323" y="-204" on="0"/>
        <pt x="271" y="-159" on="0"/>
        <pt x="229" y="-57" on="0"/>
        <pt x="229" y="27" on="1"/>
        <pt x="229" y="69" on="0"/>
        <pt x="238" y="127" on="1"/>
        <pt x="246" y="187" on="0"/>
        <pt x="246" y="222" on="1"/>
        <pt x="246" y="330" on="0"/>
        <pt x="145" y="351" on="1"/>
        <pt x="145" y="393" on="1"/>
        <pt x="246" y="413" on="0"/>
        <pt x="246" y="522" on="1"/>
        <pt x="246" y="557" on="0"/>
        <pt x="238" y="617" on="1"/>
        <pt x="229" y="675" on="0"/>
        <pt x="229" y="717" on="1"/>
        <pt x="229" y="801" on="0"/>
        <pt x="271" y="903" on="0"/>
        <pt x="323" y="948" on="0"/>
        <pt x="353" y="961" on="1"/>
        <pt x="444" y="961" on="1"/>
        <pt x="444" y="945" on="1"/>
        <pt x="384" y="923" on="0"/>
        <pt x="316" y="799" on="0"/>
        <pt x="316" y="700" on="1"/>
        <pt x="316" y="660" on="0"/>
        <pt x="324" y="596" on="0"/>
        <pt x="325" y="591" on="1"/>
        <pt x="326" y="583" on="0"/>
        <pt x="332" y="532" on="0"/>
        <pt x="332" y="508" on="1"/>
        <pt x="332" y="456" on="0"/>
        <pt x="280" y="384" on="0"/>
        <pt x="227" y="373" on="1"/>
        <pt x="227" y="371" on="1"/>
      </contour>
    </TTGlyph>
    <TTGlyph name="braceright" xMin="106" yMin="-217" xMax="405" yMax="961">
      <contour>
        <pt x="270" y="384" on="0"/>
        <pt x="219" y="456" on="0"/>
        <pt x="219" y="508" on="1"/>
        <pt x="219" y="532" on="0"/>
        <pt x="225" y="583" on="0"/>
        <pt x="226" y="591" on="1"/>
        <pt x="227" y="596" on="0"/>
        <pt x="235" y="660" on="0"/>
        <pt x="235" y="700" on="1"/>
        <pt x="235" y="799" on="0"/>
        <pt x="167" y="922" on="0"/>
        <pt x="106" y="945" on="1"/>
        <pt x="106" y="961" on="1"/>
        <pt x="198" y="961" on="1"/>
        <pt x="228" y="948" on="0"/>
        <pt x="280" y="903" on="0"/>
        <pt x="322" y="801" on="0"/>
        <pt x="322" y="717" on="1"/>
        <pt x="322" y="675" on="0"/>
        <pt x="313" y="617" on="1"/>
        <pt x="305" y="557" on="0"/>
        <pt x="305" y="522" on="1"/>
        <pt x="305" y="412" on="0"/>
        <pt x="405" y="393" on="1"/>
        <pt x="405" y="351" on="1"/>
        <pt x="305" y="331" on="0"/>
        <pt x="305" y="222" on="1"/>
        <pt x="305" y="187" on="0"/>
        <pt x="313" y="127" on="1"/>
        <pt x="322" y="69" on="0"/>
        <pt x="322" y="27" on="1"/>
        <pt x="322" y="-57" on="0"/>
        <pt x="280" y="-159" on="0"/>
        <pt x="228" y="-204" on="0"/>
        <pt x="198" y="-217" on="1"/>
        <pt x="106" y="-217" on="1"/>
        <pt x="106" y="-201" on="1"/>
        <pt x="167" y="-178" on="0"/>
        <pt x="235" y="-55" on="0"/>
        <pt x="235" y="44" on="1"/>
        <pt x="235" y="84" on="0"/>
        <pt x="227" y="148" on="0"/>
        <pt x="226" y="153" on="1"/>
        <pt x="225" y="161" on="0"/>
        <pt x="219" y="212" on="0"/>
        <pt x="219" y="236" on="1"/>
        <pt x="219" y="289" on="0"/>
        <pt x="269" y="360" on="0"/>
        <pt x="323" y="371" on="1"/>
        <pt x="323" y="373" on="1"/>
      </contour>
    </TTGlyph>
    <TTGlyph name="bracketleft" xMin="160" yMin="-171" xMax="330" yMax="942">
      <contour>
        <pt x="330" y="942" on="1"/>
        <pt x="330" y="866" on="1"/>
        <pt x="244" y="866" on="1"/>
        <pt x="244" y="-94" on="1"/>
        <pt x="330" y="-94" on="1"/>
        <pt x="330" y="-171" on="1"/>
        <pt x="160" y="-171" on="1"/>
        <pt x="160" y="942" on="1"/>
      </contour>
    </TTGlyph>
    <TTGlyph name="bracketright" xMin="144" yMin="-171" xMax="315" yMax="942">
      <contour>
        <pt x="144" y="-171" on="1"/>
        <pt x="144" y="-94" on="1"/>
        <pt x="230" y="-94" on="1"/>
        <pt x="230" y="866" on="1"/>
        <pt x="144" y="866" on="1"/>
        <pt x="144" y="942" on="1"/>
        <pt x="315" y="942" on="1"/>
        <pt x="315" y="-171" on="1"/>
      </contour>
    </TTGlyph>
    <TTGlyph name="breve" xMin="10" yMin="610" xMax="295" yMax="758">
      <contour>
        <pt x="85" y="610" on="0"/>
        <pt x="10" y="683" on="0"/>
        <pt x="10" y="740" on="1"/>
        <pt x="10" y="758" on="1"/>
        <pt x="67" y="758" on="1"/>
        <pt x="67" y="721" on="0"/>
        <pt x="105" y="684" on="0"/>
        <pt x="152" y="684" on="1"/>
        <pt x="199" y="684" on="0"/>
        <pt x="237" y="721" on="0"/>
        <pt x="237" y="758" on="1"/>
        <pt x="295" y="758" on="1"/>
        <pt x="295" y="739" on="1"/>
        <pt x="295" y="682" on="0"/>
        <pt x="219" y="610" on="0"/>
        <pt x="152" y="610" on="1"/>
      </contour>
    </TTGlyph>
    <TTGlyph name="brokenbar" xMin="105" yMin="-106" xMax="196" yMax="795">
      <contour>
        <pt x="105" y="795" on="1"/>
        <pt x="196" y="795" on="1"/>
        <pt x="196" y="417" on="1"/>
        <pt x="105" y="417" on="1"/>
      </contour>
      <contour>
        <pt x="196" y="-106" on="1"/>
        <pt x="105" y="-106" on="1"/>
        <pt x="105" y="272" on="1"/>
        <pt x="196" y="272" on="1"/>
      </contour>
    </TTGlyph>
    <TTGlyph name="bullet" xMin="100" yMin="211" xMax="346" yMax="456">
      <contour>
        <pt x="100" y="385" on="0"/>
        <pt x="171" y="456" on="0"/>
        <pt x="222" y="456" on="1"/>
        <pt x="274" y="456" on="0"/>
        <pt x="346" y="385" on="0"/>
        <pt x="346" y="333" on="1"/>
        <pt x="346" y="282" on="0"/>
        <pt x="274" y="211" on="0"/>
        <pt x="222" y="211" on="1"/>
        <pt x="171" y="211" on="0"/>
        <pt x="100" y="282" on="0"/>
        <pt x="100" y="333" on="1"/>
      </contour>
    </TTGlyph>
    <TTGlyph name="c" xMin="39" yMin="-9" xMax="554" yMax="558">
      <contour>
        <pt x="404" y="558" on="0"/>
        <pt x="529" y="466" on="0"/>
        <pt x="554" y="381" on="1"/>
        <pt x="456" y="381" on="1"/>
        <pt x="440" y="429" on="0"/>
        <pt x="362" y="483" on="0"/>
        <pt x="305" y="483" on="1"/>
        <pt x="227" y="483" on="0"/>
        <pt x="132" y="374" on="0"/>
        <pt x="132" y="274" on="1"/>
        <pt x="132" y="175" on="0"/>
        <pt x="227" y="66" on="0"/>
        <pt x="305" y="66" on="1"/>
        <pt x="363" y="66" on="0"/>
        <pt x="439" y="118" on="0"/>
        <pt x="456" y="168" on="1"/>
        <pt x="554" y="168" on="1"/>
        <pt x="529" y="87" on="0"/>
        <pt x="402" y="-9" on="0"/>
        <pt x="305" y="-9" on="1"/>
        <pt x="228" y="-9" on="0"/>
        <pt x="107" y="61" on="0"/>
        <pt x="39" y="190" on="0"/>
        <pt x="39" y="274" on="1"/>
        <pt x="39" y="359" on="0"/>
        <pt x="107" y="488" on="0"/>
        <pt x="227" y="558" on="0"/>
        <pt x="305" y="558" on="1"/>
      </contour>
    </TTGlyph>
    <TTGlyph name="cacute" xMin="39" yMin="-9" xMax="554" yMax="783">
      <component glyphName="c" x="0" y="0" flags="0x0"/>
      <component glyphName="acute" x="174" y="0" flags="0x0"/>
    </TTGlyph>
    <TTGlyph name="caron" xMin="10" yMin="597" xMax="287" yMax="757">
      <contour>
        <pt x="287" y="680" on="1"/>
        <pt x="148" y="597" on="1"/>
        <pt x="10" y="680" on="1"/>
        <pt x="10" y="757" on="1"/>
        <pt x="148" y="671" on="1"/>
        <pt x="287" y="757" on="1"/>
      </contour>
    </TTGlyph>
    <TTGlyph name="ccaron" xMin="39" yMin="-9" xMax="554" yMax="757">
      <component glyphName="c" x="0" y="0" flags="0x0"/>
      <component glyphName="caron" x="152" y="0" flags="0x0"/>
    </TTGlyph>
    <TTGlyph name="ccedilla" xMin="39" yMin="-260" xMax="554" yMax="558">
      <contour>
        <pt x="363" y="66" on="0"/>
        <pt x="439" y="118" on="0"/>
        <pt x="456" y="168" on="1"/>
        <pt x="554" y="168" on="1"/>
        <pt x="530" y="93" on="0"/>
        <pt x="420" y="-1" on="0"/>
        <pt x="335" y="-8" on="1"/>
        <pt x="335" y="-53" on="1"/>
        <pt x="393" y="-53" on="0"/>
        <pt x="465" y="-108" on="0"/>
        <pt x="465" y="-155" on="1"/>
        <pt x="465" y="-202" on="0"/>
        <pt x="394" y="-260" on="0"/>
        <pt x="338" y="-260" on="1"/>
        <pt x="219" y="-260" on="1"/>
        <pt x="219" y="-197" on="1"/>
        <pt x="326" y="-197" on="1"/>
        <pt x="382" y="-197" on="0"/>
        <pt x="382" y="-155" on="1"/>
        <pt x="382" y="-114" on="0"/>
        <pt x="326" y="-114" on="1"/>
        <pt x="271" y="-114" on="1"/>
        <pt x="271" y="-7" on="1"/>
        <pt x="202" y="0" on="0"/>
        <pt x="97" y="74" on="0"/>
        <pt x="39" y="196" on="0"/>
        <pt x="39" y="274" on="1"/>
        <pt x="39" y="359" on="0"/>
        <pt x="107" y="488" on="0"/>
        <pt x="227" y="558" on="0"/>
        <pt x="305" y="558" on="1"/>
        <pt x="404" y="558" on="0"/>
        <pt x="529" y="466" on="0"/>
        <pt x="554" y="381" on="1"/>
        <pt x="456" y="381" on="1"/>
        <pt x="440" y="429" on="0"/>
        <pt x="362" y="483" on="0"/>
        <pt x="305" y="483" on="1"/>
        <pt x="227" y="483" on="0"/>
        <pt x="132" y="374" on="0"/>
        <pt x="132" y="274" on="1"/>
        <pt x="132" y="175" on="0"/>
        <pt x="227" y="66" on="0"/>
        <pt x="305" y="66" on="1"/>
      </contour>
    </TTGlyph>
    <TTGlyph name="cedilla" xMin="10" yMin="-260" xMax="256" yMax="7">
      <contour>
        <pt x="184" y="-53" on="0"/>
        <pt x="256" y="-108" on="0"/>
        <pt x="256" y="-155" on="1"/>
        <pt x="256" y="-202" on="0"/>
        <pt x="185" y="-260" on="0"/>
        <pt x="129" y="-260" on="1"/>
        <pt x="10" y="-260" on="1"/>
        <pt x="10" y="-197" on="1"/>
        <pt x="117" y="-197" on="1"/>
        <pt x="173" y="-197" on="0"/>
        <pt x="173" y="-155" on="1"/>
        <pt x="173" y="-114" on="0"/>
        <pt x="117" y="-114" on="1"/>
        <pt x="62" y="-114" on="1"/>
        <pt x="62" y="7" on="1"/>
        <pt x="126" y="7" on="1"/>
        <pt x="126" y="-53" on="1"/>
      </contour>
    </TTGlyph>
    <TTGlyph name="cent" xMin="71" yMin="-89" xMax="561" yMax="610">
      <contour>
        <pt x="446" y="75" on="0"/>
        <pt x="476" y="167" on="1"/>
        <pt x="561" y="167" on="1"/>
        <pt x="551" y="101" on="0"/>
        <pt x="444" y="7" on="0"/>
        <pt x="359" y="0" on="1"/>
        <pt x="359" y="-89" on="1"/>
        <pt x="299" y="-89" on="1"/>
        <pt x="299" y="0" on="1"/>
        <pt x="225" y="7" on="0"/>
        <pt x="122" y="80" on="0"/>
        <pt x="71" y="193" on="0"/>
        <pt x="71" y="260" on="1"/>
        <pt x="71" y="327" on="0"/>
        <pt x="122" y="441" on="0"/>
        <pt x="225" y="515" on="0"/>
        <pt x="299" y="522" on="1"/>
        <pt x="299" y="610" on="1"/>
        <pt x="359" y="610" on="1"/>
        <pt x="359" y="522" on="1"/>
        <pt x="444" y="514" on="0"/>
        <pt x="551" y="420" on="0"/>
        <pt x="561" y="354" on="1"/>
        <pt x="476" y="354" on="1"/>
        <pt x="446" y="446" on="0"/>
        <pt x="330" y="446" on="1"/>
        <pt x="251" y="446" on="0"/>
        <pt x="156" y="347" on="0"/>
        <pt x="156" y="261" on="1"/>
        <pt x="156" y="174" on="0"/>
        <pt x="251" y="75" on="0"/>
        <pt x="330" y="75" on="1"/>
      </contour>
    </TTGlyph>
    <TTGlyph name="circumflex" xMin="10" yMin="597" xMax="287" yMax="757">
      <contour>
        <pt x="148" y="683" on="1"/>
        <pt x="10" y="597" on="1"/>
        <pt x="10" y="674" on="1"/>
        <pt x="148" y="757" on="1"/>
        <pt x="287" y="674" on="1"/>
        <pt x="287" y="597" on="1"/>
      </contour>
    </TTGlyph>
    <TTGlyph name="colon" xMin="85" yMin="0" xMax="202" yMax="543">
      <contour>
        <pt x="85" y="509" on="0"/>
        <pt x="119" y="543" on="0"/>
        <pt x="143" y="543" on="1"/>
        <pt x="168" y="543" on="0"/>
        <pt x="202" y="509" on="0"/>
        <pt x="202" y="485" on="1"/>
        <pt x="202" y="461" on="0"/>
        <pt x="168" y="427" on="0"/>
        <pt x="143" y="427" on="1"/>
        <pt x="119" y="427" on="0"/>
        <pt x="85" y="461" on="0"/>
        <pt x="85" y="485" on="1"/>
      </contour>
      <contour>
        <pt x="85" y="83" on="0"/>
        <pt x="119" y="117" on="0"/>
        <pt x="143" y="117" on="1"/>
        <pt x="168" y="117" on="0"/>
        <pt x="202" y="83" on="0"/>
        <pt x="202" y="58" on="1"/>
        <pt x="202" y="34" on="0"/>
        <pt x="168" y="0" on="0"/>
        <pt x="143" y="0" on="1"/>
        <pt x="119" y="0" on="0"/>
        <pt x="85" y="34" on="0"/>
        <pt x="85" y="58" on="1"/>
      </contour>
    </TTGlyph>
    <TTGlyph name="comma" xMin="39" yMin="-143" xMax="145" yMax="67">
      <contour>
        <pt x="145" y="14" on="0"/>
        <pt x="145" y="-30" on="1"/>
        <pt x="145" y="-143" on="0"/>
        <pt x="42" y="-143" on="1"/>
        <pt x="42" y="-99" on="1"/>
        <pt x="67" y="-99" on="0"/>
        <pt x="90" y="-75" on="0"/>
        <pt x="90" y="-49" on="1"/>
        <pt x="90" y="-26" on="1"/>
        <pt x="39" y="-26" on="1"/>
        <pt x="39" y="67" on="1"/>
        <pt x="132" y="67" on="1"/>
      </contour>
    </TTGlyph>
    <TTGlyph name="copyright" xMin="48" yMin="-9" xMax="741" yMax="700">
      <contour>
        <pt x="293" y="700" on="0"/>
        <pt x="136" y="610" on="0"/>
        <pt x="48" y="449" on="0"/>
        <pt x="48" y="346" on="1"/>
        <pt x="48" y="243" on="0"/>
        <pt x="136" y="81" on="0"/>
        <pt x="293" y="-9" on="0"/>
        <pt x="395" y="-9" on="1"/>
        <pt x="497" y="-9" on="0"/>
        <pt x="654" y="81" on="0"/>
        <pt x="741" y="243" on="0"/>
        <pt x="741" y="346" on="1"/>
        <pt x="741" y="449" on="0"/>
        <pt x="654" y="610" on="0"/>
        <pt x="497" y="700" on="0"/>
        <pt x="395" y="700" on="1"/>
      </contour>
      <contour>
        <pt x="486" y="660" on="0"/>
        <pt x="623" y="582" on="0"/>
        <pt x="696" y="440" on="0"/>
        <pt x="696" y="346" on="1"/>
        <pt x="696" y="252" on="0"/>
        <pt x="623" y="109" on="0"/>
        <pt x="486" y="31" on="0"/>
        <pt x="395" y="31" on="1"/>
        <pt x="303" y="31" on="0"/>
        <pt x="167" y="109" on="0"/>
        <pt x="93" y="252" on="0"/>
        <pt x="93" y="346" on="1"/>
        <pt x="93" y="440" on="0"/>
        <pt x="167" y="582" on="0"/>
        <pt x="303" y="660" on="0"/>
        <pt x="395" y="660" on="1"/>
      </contour>
      <contour>
        <pt x="470" y="578" on="0"/>
        <pt x="577" y="501" on="0"/>
        <pt x="597" y="433" on="1"/>
        <pt x="510" y="433" on="1"/>
        <pt x="498" y="472" on="0"/>
        <pt x="437" y="510" on="0"/>
        <pt x="394" y="510" on="1"/>
        <pt x="335" y="510" on="0"/>
        <pt x="262" y="428" on="0"/>
        <pt x="262" y="347" on="1"/>
        <pt x="262" y="266" on="0"/>
        <pt x="335" y="183" on="0"/>
        <pt x="394" y="183" on="1"/>
        <pt x="482" y="183" on="0"/>
        <pt x="510" y="260" on="1"/>
        <pt x="597" y="260" on="1"/>
        <pt x="576" y="196" on="0"/>
        <pt x="468" y="115" on="0"/>
        <pt x="394" y="115" on="1"/>
        <pt x="334" y="115" on="0"/>
        <pt x="234" y="173" on="0"/>
        <pt x="177" y="279" on="0"/>
        <pt x="177" y="347" on="1"/>
        <pt x="177" y="415" on="0"/>
        <pt x="234" y="520" on="0"/>
        <pt x="334" y="578" on="0"/>
        <pt x="394" y="578" on="1"/>
      </contour>
    </TTGlyph>
    <TTGlyph name="currency" xMin="60" yMin="170" xMax="477" yMax="586">
      <contour>
        <pt x="445" y="319" on="0"/>
        <pt x="415" y="275" on="1"/>
        <pt x="477" y="215" on="1"/>
        <pt x="432" y="170" on="1"/>
        <pt x="370" y="232" on="1"/>
        <pt x="325" y="201" on="0"/>
        <pt x="264" y="201" on="1"/>
        <pt x="206" y="201" on="0"/>
        <pt x="164" y="229" on="1"/>
        <pt x="105" y="170" on="1"/>
        <pt x="60" y="215" on="1"/>
        <pt x="119" y="274" on="1"/>
        <pt x="91" y="318" on="0"/>
        <pt x="91" y="377" on="1"/>
        <pt x="91" y="437" on="0"/>
        <pt x="121" y="481" on="1"/>
        <pt x="60" y="541" on="1"/>
        <pt x="105" y="586" on="1"/>
        <pt x="166" y="525" on="1"/>
        <pt x="211" y="553" on="0"/>
        <pt x="268" y="553" on="1"/>
        <pt x="327" y="553" on="0"/>
        <pt x="370" y="524" on="1"/>
        <pt x="432" y="586" on="1"/>
        <pt x="477" y="541" on="1"/>
        <pt x="416" y="480" on="1"/>
        <pt x="445" y="435" on="0"/>
        <pt x="445" y="377" on="1"/>
      </contour>
      <contour>
        <pt x="309" y="257" on="0"/>
        <pt x="372" y="320" on="0"/>
        <pt x="372" y="377" on="1"/>
        <pt x="372" y="434" on="0"/>
        <pt x="311" y="498" on="0"/>
        <pt x="267" y="498" on="1"/>
        <pt x="223" y="498" on="0"/>
        <pt x="164" y="434" on="0"/>
        <pt x="164" y="377" on="1"/>
        <pt x="164" y="320" on="0"/>
        <pt x="221" y="257" on="0"/>
        <pt x="265" y="257" on="1"/>
      </contour>
    </TTGlyph>
    <TTGlyph name="d" xMin="39" yMin="-9" xMax="595" yMax="740">
      <contour>
        <pt x="371" y="558" on="0"/>
        <pt x="476" y="492" on="0"/>
        <pt x="503" y="439" on="1"/>
        <pt x="503" y="740" on="1"/>
        <pt x="595" y="740" on="1"/>
        <pt x="595" y="0" on="1"/>
        <pt x="503" y="0" on="1"/>
        <pt x="503" y="112" on="1"/>
        <pt x="476" y="58" on="0"/>
        <pt x="371" y="-9" on="0"/>
        <pt x="301" y="-9" on="1"/>
        <pt x="227" y="-9" on="0"/>
        <pt x="108" y="64" on="0"/>
        <pt x="39" y="195" on="0"/>
        <pt x="39" y="278" on="1"/>
        <pt x="39" y="361" on="0"/>
        <pt x="108" y="488" on="0"/>
        <pt x="227" y="558" on="0"/>
        <pt x="301" y="558" on="1"/>
      </contour>
      <contour>
        <pt x="268" y="479" on="0"/>
        <pt x="183" y="431" on="0"/>
        <pt x="132" y="340" on="0"/>
        <pt x="132" y="278" on="1"/>
        <pt x="132" y="216" on="0"/>
        <pt x="183" y="121" on="0"/>
        <pt x="268" y="69" on="0"/>
        <pt x="317" y="69" on="1"/>
        <pt x="367" y="69" on="0"/>
        <pt x="452" y="119" on="0"/>
        <pt x="503" y="212" on="0"/>
        <pt x="503" y="274" on="1"/>
        <pt x="503" y="336" on="0"/>
        <pt x="452" y="429" on="0"/>
        <pt x="367" y="479" on="0"/>
        <pt x="317" y="479" on="1"/>
      </contour>
    </TTGlyph>
    <TTGlyph name="dagger" xMin="49" yMin="-260" xMax="506" yMax="781">
      <contour>
        <pt x="506" y="476" on="1"/>
        <pt x="313" y="485" on="1"/>
        <pt x="323" y="-260" on="1"/>
        <pt x="232" y="-260" on="1"/>
        <pt x="242" y="485" on="1"/>
        <pt x="49" y="476" on="1"/>
        <pt x="49" y="549" on="1"/>
        <pt x="242" y="539" on="1"/>
        <pt x="232" y="781" on="1"/>
        <pt x="323" y="781" on="1"/>
        <pt x="313" y="539" on="1"/>
        <pt x="506" y="549" on="1"/>
      </contour>
    </TTGlyph>
    <TTGlyph name="daggerdbl" xMin="50" yMin="-260" xMax="507" yMax="781">
      <contour>
        <pt x="314" y="485" on="1"/>
        <pt x="314" y="36" on="1"/>
        <pt x="507" y="45" on="1"/>
        <pt x="507" y="-27" on="1"/>
        <pt x="314" y="-18" on="1"/>
        <pt x="324" y="-260" on="1"/>
        <pt x="233" y="-260" on="1"/>
        <pt x="243" y="-18" on="1"/>
        <pt x="50" y="-27" on="1"/>
        <pt x="50" y="45" on="1"/>
        <pt x="243" y="36" on="1"/>
        <pt x="243" y="485" on="1"/>
        <pt x="50" y="476" on="1"/>
        <pt x="50" y="549" on="1"/>
        <pt x="243" y="539" on="1"/>
        <pt x="233" y="781" on="1"/>
        <pt x="324" y="781" on="1"/>
        <pt x="314" y="539" on="1"/>
        <pt x="507" y="549" on="1"/>
        <pt x="507" y="476" on="1"/>
      </contour>
    </TTGlyph>
    <TTGlyph name="dcaron" xMin="39" yMin="-9" xMax="749" yMax="740">
      <contour>
        <pt x="371" y="558" on="0"/>
        <pt x="476" y="492" on="0"/>
        <pt x="503" y="439" on="1"/>
        <pt x="503" y="740" on="1"/>
        <pt x="595" y="740" on="1"/>
        <pt x="595" y="0" on="1"/>
        <pt x="503" y="0" on="1"/>
        <pt x="503" y="112" on="1"/>
        <pt x="476" y="58" on="0"/>
        <pt x="371" y="-9" on="0"/>
        <pt x="301" y="-9" on="1"/>
        <pt x="227" y="-9" on="0"/>
        <pt x="108" y="64" on="0"/>
        <pt x="39" y="195" on="0"/>
        <pt x="39" y="278" on="1"/>
        <pt x="39" y="361" on="0"/>
        <pt x="108" y="488" on="0"/>
        <pt x="227" y="558" on="0"/>
        <pt x="301" y="558" on="1"/>
      </contour>
      <contour>
        <pt x="749" y="685" on="0"/>
        <pt x="749" y="648" on="1"/>
        <pt x="749" y="589" on="0"/>
        <pt x="698" y="535" on="0"/>
        <pt x="648" y="535" on="1"/>
        <pt x="648" y="578" on="1"/>
        <pt x="672" y="578" on="0"/>
        <pt x="695" y="604" on="0"/>
        <pt x="695" y="631" on="1"/>
        <pt x="695" y="654" on="1"/>
        <pt x="646" y="654" on="1"/>
        <pt x="646" y="740" on="1"/>
        <pt x="738" y="740" on="1"/>
      </contour>
      <contour>
        <pt x="268" y="479" on="0"/>
        <pt x="183" y="431" on="0"/>
        <pt x="132" y="340" on="0"/>
        <pt x="132" y="278" on="1"/>
        <pt x="132" y="216" on="0"/>
        <pt x="183" y="121" on="0"/>
        <pt x="268" y="69" on="0"/>
        <pt x="317" y="69" on="1"/>
        <pt x="367" y="69" on="0"/>
        <pt x="452" y="119" on="0"/>
        <pt x="503" y="212" on="0"/>
        <pt x="503" y="274" on="1"/>
        <pt x="503" y="336" on="0"/>
        <pt x="452" y="429" on="0"/>
        <pt x="367" y="479" on="0"/>
        <pt x="317" y="479" on="1"/>
      </contour>
    </TTGlyph>
    <TTGlyph name="dcroat" xMin="39" yMin="-9" xMax="655" yMax="740">
      <contour>
        <pt x="655" y="590" on="1"/>
        <pt x="595" y="590" on="1"/>
        <pt x="595" y="0" on="1"/>
        <pt x="503" y="0" on="1"/>
        <pt x="503" y="112" on="1"/>
        <pt x="476" y="58" on="0"/>
        <pt x="371" y="-9" on="0"/>
        <pt x="301" y="-9" on="1"/>
        <pt x="227" y="-9" on="0"/>
        <pt x="108" y="64" on="0"/>
        <pt x="39" y="195" on="0"/>
        <pt x="39" y="278" on="1"/>
        <pt x="39" y="361" on="0"/>
        <pt x="108" y="488" on="0"/>
        <pt x="227" y="558" on="0"/>
        <pt x="301" y="558" on="1"/>
        <pt x="371" y="558" on="0"/>
        <pt x="476" y="492" on="0"/>
        <pt x="503" y="439" on="1"/>
        <pt x="503" y="590" on="1"/>
        <pt x="419" y="590" on="1"/>
        <pt x="419" y="649" on="1"/>
        <pt x="503" y="649" on="1"/>
        <pt x="503" y="740" on="1"/>
        <pt x="595" y="740" on="1"/>
        <pt x="595" y="649" on="1"/>
        <pt x="655" y="649" on="1"/>
      </contour>
      <contour>
        <pt x="367" y="69" on="0"/>
        <pt x="452" y="119" on="0"/>
        <pt x="503" y="212" on="0"/>
        <pt x="503" y="274" on="1"/>
        <pt x="503" y="336" on="0"/>
        <pt x="452" y="429" on="0"/>
        <pt x="367" y="479" on="0"/>
        <pt x="317" y="479" on="1"/>
        <pt x="268" y="479" on="0"/>
        <pt x="183" y="431" on="0"/>
        <pt x="132" y="340" on="0"/>
        <pt x="132" y="278" on="1"/>
        <pt x="132" y="216" on="0"/>
        <pt x="183" y="121" on="0"/>
        <pt x="268" y="69" on="0"/>
        <pt x="317" y="69" on="1"/>
      </contour>
    </TTGlyph>
    <TTGlyph name="degree" xMin="29" yMin="347" xMax="383" yMax="700">
      <contour>
        <pt x="256" y="700" on="0"/>
        <pt x="337" y="656" on="0"/>
        <pt x="383" y="576" on="0"/>
        <pt x="383" y="523" on="1"/>
        <pt x="383" y="471" on="0"/>
        <pt x="335" y="391" on="0"/>
        <pt x="252" y="347" on="0"/>
        <pt x="201" y="347" on="1"/>
        <pt x="125" y="347" on="0"/>
        <pt x="29" y="443" on="0"/>
        <pt x="29" y="523" on="1"/>
        <pt x="29" y="576" on="0"/>
        <pt x="75" y="656" on="0"/>
        <pt x="156" y="700" on="0"/>
        <pt x="206" y="700" on="1"/>
      </contour>
      <contour>
        <pt x="161" y="645" on="0"/>
        <pt x="102" y="581" on="0"/>
        <pt x="102" y="523" on="1"/>
        <pt x="102" y="465" on="0"/>
        <pt x="159" y="403" on="0"/>
        <pt x="202" y="403" on="1"/>
        <pt x="246" y="403" on="0"/>
        <pt x="309" y="466" on="0"/>
        <pt x="309" y="523" on="1"/>
        <pt x="309" y="580" on="0"/>
        <pt x="248" y="645" on="0"/>
        <pt x="204" y="645" on="1"/>
      </contour>
    </TTGlyph>
    <TTGlyph name="dieresis" xMin="10" yMin="620" xMax="279" yMax="728">
      <contour>
        <pt x="10" y="697" on="0"/>
        <pt x="42" y="728" on="0"/>
        <pt x="64" y="728" on="1"/>
        <pt x="87" y="728" on="0"/>
        <pt x="118" y="697" on="0"/>
        <pt x="118" y="674" on="1"/>
        <pt x="118" y="652" on="0"/>
        <pt x="87" y="620" on="0"/>
        <pt x="64" y="620" on="1"/>
        <pt x="42" y="620" on="0"/>
        <pt x="10" y="652" on="0"/>
        <pt x="10" y="674" on="1"/>
      </contour>
      <contour>
        <pt x="171" y="697" on="0"/>
        <pt x="203" y="728" on="0"/>
        <pt x="225" y="728" on="1"/>
        <pt x="248" y="728" on="0"/>
        <pt x="279" y="697" on="0"/>
        <pt x="279" y="674" on="1"/>
        <pt x="279" y="652" on="0"/>
        <pt x="248" y="620" on="0"/>
        <pt x="225" y="620" on="1"/>
        <pt x="203" y="620" on="0"/>
        <pt x="171" y="652" on="0"/>
        <pt x="171" y="674" on="1"/>
      </contour>
    </TTGlyph>
    <TTGlyph name="divide" xMin="110" yMin="95" xMax="619" yMax="637">
      <contour>
        <pt x="306" y="603" on="0"/>
        <pt x="340" y="637" on="0"/>
        <pt x="365" y="637" on="1"/>
        <pt x="389" y="637" on="0"/>
        <pt x="423" y="603" on="0"/>
        <pt x="423" y="579" on="1"/>
        <pt x="423" y="554" on="0"/>
        <pt x="389" y="520" on="0"/>
        <pt x="365" y="520" on="1"/>
        <pt x="340" y="520" on="0"/>
        <pt x="306" y="554" on="0"/>
        <pt x="306" y="579" on="1"/>
      </contour>
      <contour>
        <pt x="619" y="406" on="1"/>
        <pt x="619" y="326" on="1"/>
        <pt x="110" y="326" on="1"/>
        <pt x="110" y="406" on="1"/>
      </contour>
      <contour>
        <pt x="306" y="177" on="0"/>
        <pt x="340" y="211" on="0"/>
        <pt x="365" y="211" on="1"/>
        <pt x="389" y="211" on="0"/>
        <pt x="423" y="177" on="0"/>
        <pt x="423" y="153" on="1"/>
        <pt x="423" y="129" on="0"/>
        <pt x="389" y="95" on="0"/>
        <pt x="365" y="95" on="1"/>
        <pt x="340" y="95" on="0"/>
        <pt x="306" y="129" on="0"/>
        <pt x="306" y="153" on="1"/>
      </contour>
    </TTGlyph>
    <TTGlyph name="dollar" xMin="60" yMin="-87" xMax="527" yMax="780">
      <contour>
        <pt x="527" y="146" on="0"/>
        <pt x="479" y="58" on="0"/>
        <pt x="386" y="-1" on="0"/>
        <pt x="320" y="-6" on="1"/>
        <pt x="320" y="-87" on="1"/>
        <pt x="264" y="-87" on="1"/>
        <pt x="264" y="-6" on="1"/>
        <pt x="174" y="1" on="0"/>
        <pt x="60" y="96" on="0"/>
        <pt x="60" y="173" on="1"/>
        <pt x="157" y="173" on="1"/>
        <pt x="160" y="132" on="0"/>
        <pt x="213" y="76" on="0"/>
        <pt x="264" y="70" on="1"/>
        <pt x="264" y="315" on="1"/>
        <pt x="199" y="330" on="0"/>
        <pt x="117" y="365" on="0"/>
        <pt x="60" y="440" on="0"/>
        <pt x="60" y="505" on="1"/>
        <pt x="60" y="586" on="0"/>
        <pt x="170" y="692" on="0"/>
        <pt x="264" y="699" on="1"/>
        <pt x="264" y="780" on="1"/>
        <pt x="320" y="780" on="1"/>
        <pt x="320" y="699" on="1"/>
        <pt x="404" y="692" on="0"/>
        <pt x="508" y="601" on="0"/>
        <pt x="517" y="525" on="1"/>
        <pt x="417" y="525" on="1"/>
        <pt x="414" y="558" on="0"/>
        <pt x="363" y="612" on="0"/>
        <pt x="320" y="621" on="1"/>
        <pt x="320" y="381" on="1"/>
        <pt x="385" y="367" on="0"/>
        <pt x="469" y="333" on="0"/>
        <pt x="527" y="258" on="0"/>
        <pt x="527" y="194" on="1"/>
      </contour>
      <contour>
        <pt x="149" y="460" on="0"/>
        <pt x="208" y="411" on="0"/>
        <pt x="264" y="395" on="1"/>
        <pt x="264" y="623" on="1"/>
        <pt x="212" y="618" on="0"/>
        <pt x="149" y="560" on="0"/>
        <pt x="149" y="508" on="1"/>
      </contour>
      <contour>
        <pt x="375" y="77" on="0"/>
        <pt x="438" y="142" on="0"/>
        <pt x="438" y="189" on="1"/>
        <pt x="438" y="237" on="0"/>
        <pt x="377" y="286" on="0"/>
        <pt x="320" y="301" on="1"/>
        <pt x="320" y="70" on="1"/>
      </contour>
    </TTGlyph>
    <TTGlyph name="dotaccent" xMin="10" yMin="620" xMax="118" yMax="728">
      <contour>
        <pt x="10" y="697" on="0"/>
        <pt x="42" y="728" on="0"/>
        <pt x="64" y="728" on="1"/>
        <pt x="87" y="728" on="0"/>
        <pt x="118" y="697" on="0"/>
        <pt x="118" y="674" on="1"/>
        <pt x="118" y="652" on="0"/>
        <pt x="87" y="620" on="0"/>
        <pt x="64" y="620" on="1"/>
        <pt x="42" y="620" on="0"/>
        <pt x="10" y="652" on="0"/>
        <pt x="10" y="674" on="1"/>
      </contour>
    </TTGlyph>
    <TTGlyph name="dotlessi" xMin="75" yMin="0" xMax="166" yMax="549">
      <contour>
        <pt x="166" y="549" on="1"/>
        <pt x="166" y="0" on="1"/>
        <pt x="75" y="0" on="1"/>
        <pt x="75" y="549" on="1"/>
      </contour>
    </TTGlyph>
    <TTGlyph name="e" xMin="39" yMin="-9" xMax="573" yMax="558">
      <contour>
        <pt x="573" y="268" on="0"/>
        <pt x="569" y="243" on="1"/>
        <pt x="132" y="243" on="1"/>
        <pt x="136" y="161" on="0"/>
        <pt x="231" y="66" on="0"/>
        <pt x="305" y="66" on="1"/>
        <pt x="361" y="66" on="0"/>
        <pt x="438" y="116" on="0"/>
        <pt x="456" y="157" on="1"/>
        <pt x="554" y="157" on="1"/>
        <pt x="528" y="85" on="0"/>
        <pt x="401" y="-9" on="0"/>
        <pt x="305" y="-9" on="1"/>
        <pt x="228" y="-9" on="0"/>
        <pt x="107" y="61" on="0"/>
        <pt x="39" y="190" on="0"/>
        <pt x="39" y="274" on="1"/>
        <pt x="39" y="359" on="0"/>
        <pt x="107" y="488" on="0"/>
        <pt x="231" y="558" on="0"/>
        <pt x="312" y="558" on="1"/>
        <pt x="389" y="558" on="0"/>
        <pt x="507" y="490" on="0"/>
        <pt x="573" y="372" on="0"/>
        <pt x="573" y="297" on="1"/>
      </contour>
      <contour>
        <pt x="478" y="309" on="1"/>
        <pt x="478" y="362" on="0"/>
        <pt x="432" y="441" on="0"/>
        <pt x="353" y="483" on="0"/>
        <pt x="305" y="483" on="1"/>
        <pt x="234" y="483" on="0"/>
        <pt x="138" y="390" on="0"/>
        <pt x="133" y="309" on="1"/>
      </contour>
    </TTGlyph>
    <TTGlyph name="eacute" xMin="39" yMin="-9" xMax="573" yMax="783">
      <component glyphName="e" x="0" y="0" flags="0x0"/>
      <component glyphName="acute" x="180" y="0" flags="0x0"/>
    </TTGlyph>
    <TTGlyph name="ecaron" xMin="39" yMin="-9" xMax="573" yMax="757">
      <component glyphName="e" x="0" y="0" flags="0x0"/>
      <component glyphName="caron" x="157" y="0" flags="0x0"/>
    </TTGlyph>
    <TTGlyph name="ecircumflex" xMin="39" yMin="-9" xMax="573" yMax="757">
      <component glyphName="e" x="0" y="0" flags="0x0"/>
      <component glyphName="circumflex" x="157" y="0" flags="0x0"/>
    </TTGlyph>
    <TTGlyph name="edieresis" xMin="39" yMin="-9" xMax="573" yMax="728">
      <component glyphName="e" x="0" y="0" flags="0x0"/>
      <component glyphName="dieresis" x="161" y="0" flags="0x0"/>
    </TTGlyph>
    <TTGlyph name="edotaccent" xMin="39" yMin="-9" xMax="573" yMax="728">
      <component glyphName="e" x="0" y="0" flags="0x0"/>
      <component glyphName="dotaccent" x="241" y="0" flags="0x0"/>
    </TTGlyph>
    <TTGlyph name="egrave" xMin="39" yMin="-9" xMax="573" yMax="783">
      <component glyphName="e" x="0" y="0" flags="0x0"/>
      <component glyphName="grave" x="180" y="0" flags="0x0"/>
    </TTGlyph>
    <TTGlyph name="eight" xMin="63" yMin="-20" xMax="571" yMax="752">
      <contour>
        <pt x="82" y="611" on="0"/>
        <pt x="136" y="700" on="0"/>
        <pt x="242" y="752" on="0"/>
        <pt x="317" y="752" on="1"/>
        <pt x="393" y="752" on="0"/>
        <pt x="499" y="700" on="0"/>
        <pt x="552" y="610" on="0"/>
        <pt x="552" y="555" on="1"/>
        <pt x="552" y="497" on="0"/>
        <pt x="492" y="410" on="0"/>
        <pt x="444" y="389" on="1"/>
        <pt x="501" y="370" on="0"/>
        <pt x="571" y="271" on="0"/>
        <pt x="571" y="202" on="1"/>
        <pt x="571" y="135" on="0"/>
        <pt x="507" y="34" on="0"/>
        <pt x="392" y="-20" on="0"/>
        <pt x="317" y="-20" on="1"/>
        <pt x="242" y="-20" on="0"/>
        <pt x="127" y="34" on="0"/>
        <pt x="63" y="135" on="0"/>
        <pt x="63" y="202" on="1"/>
        <pt x="63" y="271" on="0"/>
        <pt x="133" y="370" on="0"/>
        <pt x="191" y="389" on="1"/>
        <pt x="140" y="413" on="0"/>
        <pt x="82" y="497" on="0"/>
        <pt x="82" y="556" on="1"/>
      </contour>
      <contour>
        <pt x="168" y="492" on="0"/>
        <pt x="251" y="421" on="0"/>
        <pt x="317" y="421" on="1"/>
        <pt x="383" y="421" on="0"/>
        <pt x="466" y="492" on="0"/>
        <pt x="466" y="546" on="1"/>
        <pt x="466" y="608" on="0"/>
        <pt x="387" y="675" on="0"/>
        <pt x="317" y="675" on="1"/>
        <pt x="248" y="675" on="0"/>
        <pt x="168" y="608" on="0"/>
        <pt x="168" y="546" on="1"/>
      </contour>
      <contour>
        <pt x="149" y="137" on="0"/>
        <pt x="240" y="57" on="0"/>
        <pt x="317" y="57" on="1"/>
        <pt x="394" y="57" on="0"/>
        <pt x="484" y="138" on="0"/>
        <pt x="484" y="204" on="1"/>
        <pt x="484" y="276" on="0"/>
        <pt x="392" y="349" on="0"/>
        <pt x="317" y="349" on="1"/>
        <pt x="243" y="349" on="0"/>
        <pt x="149" y="276" on="0"/>
        <pt x="149" y="204" on="1"/>
      </contour>
    </TTGlyph>
    <TTGlyph name="ellipsis" xMin="55" yMin="0" xMax="546" yMax="117">
      <component glyphName="period" x="188" y="0" flags="0x0"/>
      <component glyphName="period" x="375" y="0" flags="0x0"/>
      <component glyphName="period" x="0" y="0" flags="0x0"/>
    </TTGlyph>
    <TTGlyph name="emacron" xMin="39" yMin="-9" xMax="573" yMax="710">
      <component glyphName="e" x="0" y="0" flags="0x0"/>
      <component glyphName="macron" x="119" y="0" flags="0x0"/>
    </TTGlyph>
    <TTGlyph name="emdash" xMin="94" yMin="327" xMax="828" yMax="405">
      <contour>
        <pt x="828" y="405" on="1"/>
        <pt x="828" y="327" on="1"/>
        <pt x="94" y="327" on="1"/>
        <pt x="94" y="405" on="1"/>
      </contour>
    </TTGlyph>
    <TTGlyph name="endash" xMin="94" yMin="327" xMax="620" yMax="405">
      <contour>
        <pt x="620" y="405" on="1"/>
        <pt x="620" y="327" on="1"/>
        <pt x="94" y="327" on="1"/>
        <pt x="94" y="405" on="1"/>
      </contour>
    </TTGlyph>
    <TTGlyph name="eogonek" xMin="39" yMin="-141" xMax="573" yMax="558">
      <contour>
        <pt x="573" y="268" on="0"/>
        <pt x="569" y="243" on="1"/>
        <pt x="132" y="243" on="1"/>
        <pt x="136" y="161" on="0"/>
        <pt x="231" y="66" on="0"/>
        <pt x="305" y="66" on="1"/>
        <pt x="361" y="66" on="0"/>
        <pt x="438" y="116" on="0"/>
        <pt x="456" y="157" on="1"/>
        <pt x="554" y="157" on="1"/>
        <pt x="536" y="106" on="0"/>
        <pt x="460" y="28" on="0"/>
        <pt x="408" y="8" on="1"/>
        <pt x="383" y="-1" on="0"/>
        <pt x="362" y="-19" on="0"/>
        <pt x="362" y="-36" on="1"/>
        <pt x="362" y="-78" on="0"/>
        <pt x="418" y="-78" on="1"/>
        <pt x="497" y="-78" on="1"/>
        <pt x="497" y="-141" on="1"/>
        <pt x="406" y="-141" on="1"/>
        <pt x="350" y="-141" on="0"/>
        <pt x="279" y="-84" on="0"/>
        <pt x="279" y="-36" on="1"/>
        <pt x="279" y="-25" on="0"/>
        <pt x="283" y="-9" on="1"/>
        <pt x="211" y="-4" on="0"/>
        <pt x="101" y="69" on="0"/>
        <pt x="39" y="194" on="0"/>
        <pt x="39" y="274" on="1"/>
        <pt x="39" y="359" on="0"/>
        <pt x="107" y="488" on="0"/>
        <pt x="231" y="558" on="0"/>
        <pt x="312" y="558" on="1"/>
        <pt x="389" y="558" on="0"/>
        <pt x="507" y="490" on="0"/>
        <pt x="573" y="372" on="0"/>
        <pt x="573" y="297" on="1"/>
      </contour>
      <contour>
        <pt x="478" y="309" on="1"/>
        <pt x="478" y="362" on="0"/>
        <pt x="432" y="441" on="0"/>
        <pt x="353" y="483" on="0"/>
        <pt x="305" y="483" on="1"/>
        <pt x="234" y="483" on="0"/>
        <pt x="138" y="390" on="0"/>
        <pt x="133" y="309" on="1"/>
      </contour>
    </TTGlyph>
    <TTGlyph name="equal" xMin="126" yMin="218" xMax="646" yMax="514">
      <contour>
        <pt x="646" y="514" on="1"/>
        <pt x="646" y="434" on="1"/>
        <pt x="126" y="434" on="1"/>
        <pt x="126" y="514" on="1"/>
      </contour>
      <contour>
        <pt x="646" y="297" on="1"/>
        <pt x="646" y="218" on="1"/>
        <pt x="126" y="218" on="1"/>
        <pt x="126" y="297" on="1"/>
      </contour>
    </TTGlyph>
    <TTGlyph name="estimated" xMin="47" yMin="-7" xMax="714" yMax="700">
      <contour>
        <pt x="290" y="-7" on="0"/>
        <pt x="135" y="72" on="0"/>
        <pt x="47" y="225" on="0"/>
        <pt x="47" y="330" on="1"/>
        <pt x="47" y="435" on="0"/>
        <pt x="125" y="603" on="0"/>
        <pt x="276" y="700" on="0"/>
        <pt x="380" y="700" on="1"/>
        <pt x="483" y="700" on="0"/>
        <pt x="635" y="610" on="0"/>
        <pt x="714" y="461" on="0"/>
        <pt x="714" y="376" on="1"/>
        <pt x="714" y="314" on="1"/>
        <pt x="182" y="314" on="1"/>
        <pt x="182" y="148" on="1"/>
        <pt x="221" y="100" on="0"/>
        <pt x="320" y="53" on="0"/>
        <pt x="389" y="53" on="1"/>
        <pt x="461" y="53" on="0"/>
        <pt x="579" y="116" on="0"/>
        <pt x="645" y="181" on="1"/>
        <pt x="686" y="136" on="1"/>
        <pt x="551" y="-7" on="0"/>
        <pt x="389" y="-7" on="1"/>
      </contour>
      <contour>
        <pt x="570" y="555" on="1"/>
        <pt x="538" y="596" on="0"/>
        <pt x="440" y="640" on="0"/>
        <pt x="380" y="640" on="1"/>
        <pt x="317" y="640" on="0"/>
        <pt x="216" y="592" on="0"/>
        <pt x="182" y="544" on="1"/>
        <pt x="182" y="379" on="1"/>
        <pt x="570" y="379" on="1"/>
      </contour>
    </TTGlyph>
    <TTGlyph name="eth" xMin="39" yMin="-9" xMax="591" yMax="745">
      <contour>
        <pt x="591" y="506" on="0"/>
        <pt x="591" y="317" on="1"/>
        <pt x="591" y="211" on="0"/>
        <pt x="519" y="64" on="0"/>
        <pt x="391" y="-9" on="0"/>
        <pt x="308" y="-9" on="1"/>
        <pt x="231" y="-9" on="0"/>
        <pt x="108" y="61" on="0"/>
        <pt x="39" y="190" on="0"/>
        <pt x="39" y="274" on="1"/>
        <pt x="39" y="359" on="0"/>
        <pt x="111" y="488" on="0"/>
        <pt x="236" y="558" on="0"/>
        <pt x="313" y="558" on="1"/>
        <pt x="365" y="558" on="0"/>
        <pt x="445" y="525" on="0"/>
        <pt x="482" y="490" on="1"/>
        <pt x="452" y="563" on="0"/>
        <pt x="390" y="631" on="1"/>
        <pt x="262" y="588" on="1"/>
        <pt x="262" y="647" on="1"/>
        <pt x="346" y="675" on="1"/>
        <pt x="321" y="699" on="0"/>
        <pt x="271" y="740" on="1"/>
        <pt x="371" y="740" on="1"/>
        <pt x="398" y="718" on="0"/>
        <pt x="417" y="699" on="1"/>
        <pt x="553" y="745" on="1"/>
        <pt x="553" y="686" on="1"/>
        <pt x="460" y="655" on="1"/>
      </contour>
      <contour>
        <pt x="358" y="66" on="0"/>
        <pt x="445" y="115" on="0"/>
        <pt x="498" y="209" on="0"/>
        <pt x="498" y="274" on="1"/>
        <pt x="498" y="340" on="0"/>
        <pt x="447" y="435" on="0"/>
        <pt x="363" y="483" on="0"/>
        <pt x="313" y="483" on="1"/>
        <pt x="263" y="483" on="0"/>
        <pt x="180" y="435" on="0"/>
        <pt x="131" y="340" on="0"/>
        <pt x="131" y="274" on="1"/>
        <pt x="131" y="208" on="0"/>
        <pt x="178" y="114" on="0"/>
        <pt x="259" y="66" on="0"/>
        <pt x="308" y="66" on="1"/>
      </contour>
    </TTGlyph>
    <TTGlyph name="exclam" xMin="154" yMin="0" xMax="271" yMax="748">
      <contour>
        <pt x="257" y="748" on="1"/>
        <pt x="247" y="207" on="1"/>
        <pt x="173" y="207" on="1"/>
        <pt x="162" y="748" on="1"/>
      </contour>
      <contour>
        <pt x="154" y="83" on="0"/>
        <pt x="188" y="117" on="0"/>
        <pt x="212" y="117" on="1"/>
        <pt x="237" y="117" on="0"/>
        <pt x="271" y="83" on="0"/>
        <pt x="271" y="58" on="1"/>
        <pt x="271" y="34" on="0"/>
        <pt x="237" y="0" on="0"/>
        <pt x="212" y="0" on="1"/>
        <pt x="188" y="0" on="0"/>
        <pt x="154" y="34" on="0"/>
        <pt x="154" y="58" on="1"/>
      </contour>
    </TTGlyph>
    <TTGlyph name="exclamdown" xMin="154" yMin="-190" xMax="271" yMax="558">
      <contour>
        <pt x="237" y="558" on="0"/>
        <pt x="271" y="524" on="0"/>
        <pt x="271" y="500" on="1"/>
        <pt x="271" y="475" on="0"/>
        <pt x="237" y="441" on="0"/>
        <pt x="212" y="441" on="1"/>
        <pt x="188" y="441" on="0"/>
        <pt x="154" y="475" on="0"/>
        <pt x="154" y="500" on="1"/>
        <pt x="154" y="524" on="0"/>
        <pt x="188" y="558" on="0"/>
        <pt x="212" y="558" on="1"/>
      </contour>
      <contour>
        <pt x="173" y="351" on="1"/>
        <pt x="247" y="351" on="1"/>
        <pt x="257" y="-190" on="1"/>
        <pt x="162" y="-190" on="1"/>
      </contour>
    </TTGlyph>
    <TTGlyph name="f" xMin="23" yMin="0" xMax="301" yMax="767">
      <contour>
        <pt x="301" y="475" on="1"/>
        <pt x="186" y="475" on="1"/>
        <pt x="186" y="0" on="1"/>
        <pt x="94" y="0" on="1"/>
        <pt x="94" y="475" on="1"/>
        <pt x="23" y="475" on="1"/>
        <pt x="23" y="549" on="1"/>
        <pt x="94" y="549" on="1"/>
        <pt x="94" y="595" on="1"/>
        <pt x="94" y="685" on="0"/>
        <pt x="190" y="767" on="0"/>
        <pt x="293" y="767" on="1"/>
        <pt x="293" y="693" on="1"/>
        <pt x="233" y="693" on="0"/>
        <pt x="186" y="648" on="0"/>
        <pt x="186" y="595" on="1"/>
        <pt x="186" y="549" on="1"/>
        <pt x="301" y="549" on="1"/>
      </contour>
    </TTGlyph>
    <TTGlyph name="fi" xMin="23" yMin="0" xMax="512" yMax="767">
      <contour>
        <pt x="186" y="549" on="1"/>
        <pt x="496" y="549" on="1"/>
        <pt x="496" y="0" on="1"/>
        <pt x="405" y="0" on="1"/>
        <pt x="405" y="475" on="1"/>
        <pt x="186" y="475" on="1"/>
        <pt x="186" y="0" on="1"/>
        <pt x="94" y="0" on="1"/>
        <pt x="94" y="475" on="1"/>
        <pt x="23" y="475" on="1"/>
        <pt x="23" y="549" on="1"/>
        <pt x="94" y="549" on="1"/>
        <pt x="94" y="595" on="1"/>
        <pt x="94" y="685" on="0"/>
        <pt x="190" y="767" on="0"/>
        <pt x="293" y="767" on="1"/>
        <pt x="293" y="693" on="1"/>
        <pt x="233" y="693" on="0"/>
        <pt x="186" y="648" on="0"/>
        <pt x="186" y="595" on="1"/>
      </contour>
      <contour>
        <pt x="425" y="637" on="0"/>
        <pt x="390" y="673" on="0"/>
        <pt x="390" y="699" on="1"/>
        <pt x="390" y="725" on="0"/>
        <pt x="426" y="761" on="0"/>
        <pt x="451" y="761" on="1"/>
        <pt x="477" y="761" on="0"/>
        <pt x="512" y="725" on="0"/>
        <pt x="512" y="699" on="1"/>
        <pt x="512" y="673" on="0"/>
        <pt x="477" y="637" on="0"/>
        <pt x="451" y="637" on="1"/>
      </contour>
    </TTGlyph>
    <TTGlyph name="five" xMin="73" yMin="0" xMax="571" yMax="731">
      <contour>
        <pt x="523" y="652" on="1"/>
        <pt x="174" y="652" on="1"/>
        <pt x="174" y="423" on="1"/>
        <pt x="196" y="456" on="0"/>
        <pt x="286" y="500" on="0"/>
        <pt x="338" y="500" on="1"/>
        <pt x="421" y="500" on="0"/>
        <pt x="526" y="429" on="0"/>
        <pt x="571" y="318" on="0"/>
        <pt x="571" y="256" on="1"/>
        <pt x="571" y="143" on="0"/>
        <pt x="445" y="0" on="0"/>
        <pt x="324" y="0" on="1"/>
        <pt x="218" y="0" on="0"/>
        <pt x="89" y="106" on="0"/>
        <pt x="73" y="193" on="1"/>
        <pt x="160" y="193" on="1"/>
        <pt x="174" y="139" on="0"/>
        <pt x="261" y="77" on="0"/>
        <pt x="324" y="77" on="1"/>
        <pt x="404" y="77" on="0"/>
        <pt x="485" y="173" on="0"/>
        <pt x="485" y="253" on="1"/>
        <pt x="485" y="335" on="0"/>
        <pt x="404" y="422" on="0"/>
        <pt x="324" y="422" on="1"/>
        <pt x="270" y="422" on="0"/>
        <pt x="192" y="366" on="0"/>
        <pt x="173" y="318" on="1"/>
        <pt x="90" y="318" on="1"/>
        <pt x="90" y="731" on="1"/>
        <pt x="523" y="731" on="1"/>
      </contour>
    </TTGlyph>
    <TTGlyph name="fl" xMin="23" yMin="0" xMax="496" yMax="767">
      <component glyphName="f" x="0" y="0" flags="0x0"/>
      <component glyphName="l" x="330" y="0" flags="0x0"/>
    </TTGlyph>
    <TTGlyph name="florin" xMin="-45" yMin="-197" xMax="322" yMax="767">
      <contour>
        <pt x="255" y="693" on="0"/>
        <pt x="202" y="648" on="0"/>
        <pt x="197" y="595" on="1"/>
        <pt x="192" y="549" on="1"/>
        <pt x="307" y="549" on="1"/>
        <pt x="300" y="475" on="1"/>
        <pt x="184" y="475" on="1"/>
        <pt x="128" y="-57" on="1"/>
        <pt x="121" y="-131" on="0"/>
        <pt x="47" y="-197" on="0"/>
        <pt x="-22" y="-197" on="1"/>
        <pt x="-45" y="-197" on="1"/>
        <pt x="-38" y="-123" on="1"/>
        <pt x="-22" y="-123" on="1"/>
        <pt x="5" y="-123" on="0"/>
        <pt x="33" y="-93" on="0"/>
        <pt x="37" y="-57" on="1"/>
        <pt x="93" y="475" on="1"/>
        <pt x="23" y="475" on="1"/>
        <pt x="29" y="549" on="1"/>
        <pt x="101" y="549" on="1"/>
        <pt x="106" y="595" on="1"/>
        <pt x="115" y="685" on="0"/>
        <pt x="219" y="767" on="0"/>
        <pt x="322" y="767" on="1"/>
        <pt x="314" y="693" on="1"/>
      </contour>
    </TTGlyph>
    <TTGlyph name="four" xMin="45" yMin="0" xMax="602" yMax="720">
      <contour>
        <pt x="45" y="162" on="1"/>
        <pt x="45" y="226" on="1"/>
        <pt x="389" y="720" on="1"/>
        <pt x="505" y="720" on="1"/>
        <pt x="505" y="240" on="1"/>
        <pt x="602" y="240" on="1"/>
        <pt x="602" y="162" on="1"/>
        <pt x="505" y="162" on="1"/>
        <pt x="505" y="0" on="1"/>
        <pt x="417" y="0" on="1"/>
        <pt x="417" y="162" on="1"/>
      </contour>
      <contour>
        <pt x="420" y="636" on="1"/>
        <pt x="151" y="240" on="1"/>
        <pt x="420" y="240" on="1"/>
      </contour>
    </TTGlyph>
    <TTGlyph name="fraction" xMin="68" yMin="0" xMax="564" yMax="693">
      <contour>
        <pt x="564" y="693" on="1"/>
        <pt x="159" y="0" on="1"/>
        <pt x="68" y="0" on="1"/>
        <pt x="473" y="693" on="1"/>
      </contour>
    </TTGlyph>
    <TTGlyph name="g" xMin="39" yMin="-270" xMax="595" yMax="558">
      <contour>
        <pt x="371" y="558" on="0"/>
        <pt x="476" y="492" on="0"/>
        <pt x="503" y="439" on="1"/>
        <pt x="503" y="549" on="1"/>
        <pt x="595" y="549" on="1"/>
        <pt x="595" y="-14" on="1"/>
        <pt x="595" y="-89" on="0"/>
        <pt x="529" y="-205" on="0"/>
        <pt x="409" y="-270" on="0"/>
        <pt x="330" y="-270" on="1"/>
        <pt x="261" y="-270" on="0"/>
        <pt x="147" y="-223" on="0"/>
        <pt x="75" y="-137" on="0"/>
        <pt x="68" y="-82" on="1"/>
        <pt x="157" y="-82" on="1"/>
        <pt x="170" y="-129" on="0"/>
        <pt x="266" y="-191" on="0"/>
        <pt x="330" y="-191" on="1"/>
        <pt x="408" y="-191" on="0"/>
        <pt x="503" y="-98" on="0"/>
        <pt x="503" y="-14" on="1"/>
        <pt x="503" y="112" on="1"/>
        <pt x="476" y="58" on="0"/>
        <pt x="371" y="-9" on="0"/>
        <pt x="301" y="-9" on="1"/>
        <pt x="227" y="-9" on="0"/>
        <pt x="108" y="64" on="0"/>
        <pt x="39" y="195" on="0"/>
        <pt x="39" y="278" on="1"/>
        <pt x="39" y="361" on="0"/>
        <pt x="108" y="488" on="0"/>
        <pt x="227" y="558" on="0"/>
        <pt x="301" y="558" on="1"/>
      </contour>
      <contour>
        <pt x="268" y="479" on="0"/>
        <pt x="183" y="431" on="0"/>
        <pt x="132" y="340" on="0"/>
        <pt x="132" y="278" on="1"/>
        <pt x="132" y="216" on="0"/>
        <pt x="183" y="121" on="0"/>
        <pt x="268" y="69" on="0"/>
        <pt x="317" y="69" on="1"/>
        <pt x="367" y="69" on="0"/>
        <pt x="452" y="119" on="0"/>
        <pt x="503" y="212" on="0"/>
        <pt x="503" y="274" on="1"/>
        <pt x="503" y="336" on="0"/>
        <pt x="452" y="429" on="0"/>
        <pt x="367" y="479" on="0"/>
        <pt x="317" y="479" on="1"/>
      </contour>
    </TTGlyph>
    <TTGlyph name="gbreve" xMin="39" yMin="-270" xMax="595" yMax="758">
      <component glyphName="g" x="0" y="0" flags="0x0"/>
      <component glyphName="breve" x="182" y="0" flags="0x0"/>
    </TTGlyph>
    <TTGlyph name="germandbls" xMin="75" yMin="-9" xMax="626" yMax="750">
      <contour>
        <pt x="565" y="330" on="0"/>
        <pt x="626" y="239" on="0"/>
        <pt x="626" y="175" on="1"/>
        <pt x="626" y="119" on="0"/>
        <pt x="570" y="35" on="0"/>
        <pt x="480" y="-9" on="0"/>
        <pt x="430" y="-9" on="1"/>
        <pt x="381" y="-9" on="0"/>
        <pt x="295" y="31" on="0"/>
        <pt x="242" y="109" on="0"/>
        <pt x="242" y="162" on="1"/>
        <pt x="322" y="162" on="1"/>
        <pt x="325" y="120" on="0"/>
        <pt x="380" y="71" on="0"/>
        <pt x="428" y="71" on="1"/>
        <pt x="478" y="71" on="0"/>
        <pt x="533" y="132" on="0"/>
        <pt x="533" y="175" on="1"/>
        <pt x="533" y="210" on="0"/>
        <pt x="493" y="267" on="0"/>
        <pt x="448" y="295" on="1"/>
        <pt x="290" y="396" on="1"/>
        <pt x="290" y="444" on="1"/>
        <pt x="323" y="461" on="1"/>
        <pt x="386" y="494" on="0"/>
        <pt x="386" y="564" on="1"/>
        <pt x="386" y="610" on="0"/>
        <pt x="325" y="672" on="0"/>
        <pt x="279" y="672" on="1"/>
        <pt x="231" y="672" on="0"/>
        <pt x="166" y="608" on="0"/>
        <pt x="166" y="556" on="1"/>
        <pt x="166" y="0" on="1"/>
        <pt x="75" y="0" on="1"/>
        <pt x="75" y="553" on="1"/>
        <pt x="75" y="613" on="0"/>
        <pt x="128" y="702" on="0"/>
        <pt x="221" y="750" on="0"/>
        <pt x="281" y="750" on="1"/>
        <pt x="345" y="750" on="0"/>
        <pt x="435" y="702" on="0"/>
        <pt x="479" y="624" on="0"/>
        <pt x="479" y="580" on="1"/>
        <pt x="479" y="489" on="0"/>
        <pt x="388" y="441" on="1"/>
        <pt x="494" y="374" on="1"/>
      </contour>
    </TTGlyph>
    <TTGlyph name="grave" xMin="10" yMin="587" xMax="223" yMax="783">
      <contour>
        <pt x="223" y="657" on="1"/>
        <pt x="223" y="587" on="1"/>
        <pt x="10" y="699" on="1"/>
        <pt x="10" y="783" on="1"/>
      </contour>
    </TTGlyph>
    <TTGlyph name="greater" xMin="132" yMin="136" xMax="488" yMax="595">
      <contour>
        <pt x="132" y="595" on="1"/>
        <pt x="246" y="595" on="1"/>
        <pt x="488" y="366" on="1"/>
        <pt x="246" y="136" on="1"/>
        <pt x="132" y="136" on="1"/>
        <pt x="374" y="366" on="1"/>
      </contour>
    </TTGlyph>
    <TTGlyph name="greaterequal" xMin="93" yMin="95" xMax="457" yMax="595">
      <contour>
        <pt x="93" y="211" on="1"/>
        <pt x="334" y="404" on="1"/>
        <pt x="93" y="595" on="1"/>
        <pt x="215" y="595" on="1"/>
        <pt x="457" y="403" on="1"/>
        <pt x="215" y="211" on="1"/>
      </contour>
      <contour>
        <pt x="97" y="163" on="1"/>
        <pt x="454" y="163" on="1"/>
        <pt x="454" y="95" on="1"/>
        <pt x="97" y="95" on="1"/>
      </contour>
    </TTGlyph>
    <TTGlyph name="guillemotleft" xMin="45" yMin="120" xMax="411" yMax="470">
      <contour>
        <pt x="141" y="120" on="1"/>
        <pt x="45" y="295" on="1"/>
        <pt x="141" y="470" on="1"/>
        <pt x="230" y="470" on="1"/>
        <pt x="131" y="295" on="1"/>
        <pt x="230" y="120" on="1"/>
      </contour>
      <contour>
        <pt x="321" y="120" on="1"/>
        <pt x="226" y="295" on="1"/>
        <pt x="321" y="470" on="1"/>
        <pt x="411" y="470" on="1"/>
        <pt x="312" y="295" on="1"/>
        <pt x="411" y="120" on="1"/>
      </contour>
    </TTGlyph>
    <TTGlyph name="guillemotright" xMin="50" yMin="120" xMax="416" yMax="470">
      <contour>
        <pt x="149" y="295" on="1"/>
        <pt x="50" y="470" on="1"/>
        <pt x="139" y="470" on="1"/>
        <pt x="235" y="295" on="1"/>
        <pt x="139" y="120" on="1"/>
        <pt x="50" y="120" on="1"/>
      </contour>
      <contour>
        <pt x="329" y="295" on="1"/>
        <pt x="231" y="470" on="1"/>
        <pt x="320" y="470" on="1"/>
        <pt x="416" y="295" on="1"/>
        <pt x="320" y="120" on="1"/>
        <pt x="231" y="120" on="1"/>
      </contour>
    </TTGlyph>
    <TTGlyph name="guilsinglleft" xMin="45" yMin="120" xMax="230" yMax="470">
      <contour>
        <pt x="141" y="120" on="1"/>
        <pt x="45" y="295" on="1"/>
        <pt x="141" y="470" on="1"/>
        <pt x="230" y="470" on="1"/>
        <pt x="131" y="295" on="1"/>
        <pt x="230" y="120" on="1"/>
      </contour>
    </TTGlyph>
    <TTGlyph name="guilsinglright" xMin="50" yMin="120" xMax="235" yMax="470">
      <contour>
        <pt x="149" y="295" on="1"/>
        <pt x="50" y="470" on="1"/>
        <pt x="139" y="470" on="1"/>
        <pt x="235" y="295" on="1"/>
        <pt x="139" y="120" on="1"/>
        <pt x="50" y="120" on="1"/>
      </contour>
    </TTGlyph>
    <TTGlyph name="h" xMin="75" yMin="0" xMax="558" yMax="740">
      <contour>
        <pt x="404" y="558" on="0"/>
        <pt x="501" y="505" on="0"/>
        <pt x="558" y="400" on="0"/>
        <pt x="558" y="325" on="1"/>
        <pt x="558" y="0" on="1"/>
        <pt x="468" y="0" on="1"/>
        <pt x="468" y="310" on="1"/>
        <pt x="468" y="393" on="0"/>
        <pt x="388" y="479" on="0"/>
        <pt x="317" y="479" on="1"/>
        <pt x="247" y="479" on="0"/>
        <pt x="166" y="393" on="0"/>
        <pt x="166" y="310" on="1"/>
        <pt x="166" y="0" on="1"/>
        <pt x="75" y="0" on="1"/>
        <pt x="75" y="740" on="1"/>
        <pt x="166" y="740" on="1"/>
        <pt x="166" y="460" on="1"/>
        <pt x="193" y="508" on="0"/>
        <pt x="287" y="558" on="0"/>
        <pt x="345" y="558" on="1"/>
      </contour>
    </TTGlyph>
    <TTGlyph name="hungarumlaut" xMin="10" yMin="601" xMax="323" yMax="755">
      <contour>
        <pt x="72" y="601" on="1"/>
        <pt x="10" y="601" on="1"/>
        <pt x="77" y="755" on="1"/>
        <pt x="161" y="755" on="1"/>
      </contour>
      <contour>
        <pt x="222" y="601" on="1"/>
        <pt x="160" y="601" on="1"/>
        <pt x="240" y="755" on="1"/>
        <pt x="323" y="755" on="1"/>
      </contour>
    </TTGlyph>
    <TTGlyph name="hyphen" xMin="94" yMin="327" xMax="493" yMax="405">
      <component glyphName="minus" x="0" y="0" flags="0x0"/>
    </TTGlyph>
    <TTGlyph name="i" xMin="60" yMin="0" xMax="183" yMax="761">
      <contour>
        <pt x="60" y="725" on="0"/>
        <pt x="96" y="761" on="0"/>
        <pt x="121" y="761" on="1"/>
        <pt x="147" y="761" on="0"/>
        <pt x="183" y="725" on="0"/>
        <pt x="183" y="699" on="1"/>
        <pt x="183" y="673" on="0"/>
        <pt x="147" y="637" on="0"/>
        <pt x="121" y="637" on="1"/>
        <pt x="95" y="637" on="0"/>
        <pt x="60" y="673" on="0"/>
        <pt x="60" y="699" on="1"/>
      </contour>
      <contour>
        <pt x="166" y="549" on="1"/>
        <pt x="166" y="0" on="1"/>
        <pt x="75" y="0" on="1"/>
        <pt x="75" y="549" on="1"/>
      </contour>
    </TTGlyph>
    <TTGlyph name="iacute" xMin="5" yMin="0" xMax="218" yMax="783">
      <component glyphName="dotlessi" x="0" y="0" flags="0x0"/>
      <component glyphName="acute" x="-5" y="0" flags="0x0"/>
    </TTGlyph>
    <TTGlyph name="icircumflex" xMin="-18" yMin="0" xMax="259" yMax="757">
      <component glyphName="dotlessi" x="0" y="0" flags="0x0"/>
      <component glyphName="circumflex" x="-28" y="0" flags="0x0"/>
    </TTGlyph>
    <TTGlyph name="idieresis" xMin="-14" yMin="0" xMax="255" yMax="728">
      <component glyphName="dotlessi" x="0" y="0" flags="0x0"/>
      <component glyphName="dieresis" x="-24" y="0" flags="0x0"/>
    </TTGlyph>
    <TTGlyph name="igrave" xMin="5" yMin="0" xMax="218" yMax="783">
      <component glyphName="dotlessi" x="0" y="0" flags="0x0"/>
      <component glyphName="grave" x="-5" y="0" flags="0x0"/>
    </TTGlyph>
    <TTGlyph name="imacron" xMin="-56" yMin="0" xMax="296" yMax="710">
      <component glyphName="dotlessi" x="0" y="0" flags="0x0"/>
      <component glyphName="macron" x="-66" y="0" flags="0x0"/>
    </TTGlyph>
    <TTGlyph name="indianrupee" xMin="44" yMin="-10" xMax="588" yMax="693">
      <contour>
        <pt x="459" y="558" on="1"/>
        <pt x="459" y="533" on="0"/>
        <pt x="458" y="521" on="1"/>
        <pt x="588" y="521" on="1"/>
        <pt x="588" y="452" on="1"/>
        <pt x="452" y="452" on="1"/>
        <pt x="441" y="383" on="0"/>
        <pt x="380" y="306" on="0"/>
        <pt x="268" y="274" on="0"/>
        <pt x="175" y="274" on="1"/>
        <pt x="175" y="197" on="1"/>
        <pt x="175" y="62" on="0"/>
        <pt x="292" y="62" on="1"/>
        <pt x="353" y="62" on="0"/>
        <pt x="409" y="128" on="0"/>
        <pt x="409" y="191" on="1"/>
        <pt x="492" y="191" on="1"/>
        <pt x="491" y="91" on="0"/>
        <pt x="388" y="-10" on="0"/>
        <pt x="291" y="-10" on="1"/>
        <pt x="193" y="-10" on="0"/>
        <pt x="89" y="102" on="0"/>
        <pt x="89" y="200" on="1"/>
        <pt x="89" y="340" on="1"/>
        <pt x="202" y="340" on="0"/>
        <pt x="309" y="354" on="0"/>
        <pt x="361" y="400" on="0"/>
        <pt x="369" y="452" on="1"/>
        <pt x="44" y="452" on="1"/>
        <pt x="44" y="521" on="1"/>
        <pt x="374" y="521" on="1"/>
        <pt x="374" y="561" on="1"/>
        <pt x="374" y="624" on="1"/>
        <pt x="44" y="624" on="1"/>
        <pt x="44" y="693" on="1"/>
        <pt x="588" y="693" on="1"/>
        <pt x="588" y="624" on="1"/>
        <pt x="459" y="624" on="1"/>
      </contour>
    </TTGlyph>
    <TTGlyph name="infinity" xMin="26" yMin="199" xMax="645" yMax="496">
      <contour>
        <pt x="535" y="496" on="0"/>
        <pt x="603" y="461" on="0"/>
        <pt x="645" y="394" on="0"/>
        <pt x="645" y="348" on="1"/>
        <pt x="645" y="280" on="0"/>
        <pt x="557" y="199" on="0"/>
        <pt x="492" y="199" on="1"/>
        <pt x="446" y="199" on="0"/>
        <pt x="371" y="250" on="0"/>
        <pt x="334" y="295" on="1"/>
        <pt x="309" y="252" on="0"/>
        <pt x="226" y="199" on="0"/>
        <pt x="176" y="199" on="1"/>
        <pt x="113" y="199" on="0"/>
        <pt x="26" y="278" on="0"/>
        <pt x="26" y="347" on="1"/>
        <pt x="26" y="415" on="0"/>
        <pt x="115" y="496" on="0"/>
        <pt x="180" y="496" on="1"/>
        <pt x="226" y="496" on="0"/>
        <pt x="299" y="445" on="0"/>
        <pt x="336" y="399" on="1"/>
        <pt x="362" y="442" on="0"/>
        <pt x="445" y="496" on="0"/>
        <pt x="495" y="496" on="1"/>
      </contour>
      <contour>
        <pt x="215" y="268" on="0"/>
        <pt x="275" y="309" on="0"/>
        <pt x="296" y="343" on="1"/>
        <pt x="261" y="385" on="0"/>
        <pt x="211" y="427" on="0"/>
        <pt x="183" y="427" on="1"/>
        <pt x="148" y="427" on="0"/>
        <pt x="104" y="384" on="0"/>
        <pt x="104" y="347" on="1"/>
        <pt x="104" y="310" on="0"/>
        <pt x="148" y="268" on="0"/>
        <pt x="183" y="268" on="1"/>
      </contour>
      <contour>
        <pt x="524" y="268" on="0"/>
        <pt x="567" y="311" on="0"/>
        <pt x="567" y="348" on="1"/>
        <pt x="567" y="385" on="0"/>
        <pt x="524" y="427" on="0"/>
        <pt x="489" y="427" on="1"/>
        <pt x="456" y="427" on="0"/>
        <pt x="395" y="385" on="0"/>
        <pt x="375" y="351" on="1"/>
        <pt x="406" y="311" on="0"/>
        <pt x="459" y="268" on="0"/>
        <pt x="489" y="268" on="1"/>
      </contour>
    </TTGlyph>
    <TTGlyph name="integral" xMin="-39" yMin="-197" xMax="308" yMax="918">
      <contour>
        <pt x="143" y="852" on="0"/>
        <pt x="216" y="918" on="0"/>
        <pt x="285" y="918" on="1"/>
        <pt x="308" y="918" on="1"/>
        <pt x="300" y="844" on="1"/>
        <pt x="284" y="844" on="1"/>
        <pt x="257" y="844" on="0"/>
        <pt x="230" y="813" on="0"/>
        <pt x="226" y="777" on="1"/>
        <pt x="134" y="-57" on="1"/>
        <pt x="126" y="-131" on="0"/>
        <pt x="53" y="-197" on="0"/>
        <pt x="-16" y="-197" on="1"/>
        <pt x="-39" y="-197" on="1"/>
        <pt x="-31" y="-123" on="1"/>
        <pt x="-15" y="-123" on="1"/>
        <pt x="12" y="-123" on="0"/>
        <pt x="39" y="-92" on="0"/>
        <pt x="43" y="-57" on="1"/>
        <pt x="135" y="777" on="1"/>
      </contour>
    </TTGlyph>
    <TTGlyph name="iogonek" xMin="-19" yMin="-201" xMax="199" yMax="761">
      <contour>
        <pt x="95" y="637" on="0"/>
        <pt x="60" y="673" on="0"/>
        <pt x="60" y="699" on="1"/>
        <pt x="60" y="725" on="0"/>
        <pt x="96" y="761" on="0"/>
        <pt x="121" y="761" on="1"/>
        <pt x="147" y="761" on="0"/>
        <pt x="183" y="725" on="0"/>
        <pt x="183" y="699" on="1"/>
        <pt x="183" y="673" on="0"/>
        <pt x="147" y="637" on="0"/>
        <pt x="121" y="637" on="1"/>
      </contour>
      <contour>
        <pt x="199" y="-138" on="1"/>
        <pt x="199" y="-201" on="1"/>
        <pt x="108" y="-201" on="1"/>
        <pt x="52" y="-201" on="0"/>
        <pt x="-19" y="-144" on="0"/>
        <pt x="-19" y="-96" on="1"/>
        <pt x="-19" y="-57" on="0"/>
        <pt x="32" y="-5" on="0"/>
        <pt x="75" y="3" on="1"/>
        <pt x="75" y="549" on="1"/>
        <pt x="166" y="549" on="1"/>
        <pt x="166" y="6" on="1"/>
        <pt x="167" y="6" on="1"/>
        <pt x="167" y="-55" on="1"/>
        <pt x="120" y="-55" on="1"/>
        <pt x="64" y="-55" on="0"/>
        <pt x="64" y="-96" on="1"/>
        <pt x="64" y="-138" on="0"/>
        <pt x="120" y="-138" on="1"/>
      </contour>
    </TTGlyph>
    <TTGlyph name="j" xMin="-32" yMin="-260" xMax="183" yMax="761">
      <contour>
        <pt x="60" y="725" on="0"/>
        <pt x="96" y="761" on="0"/>
        <pt x="121" y="761" on="1"/>
        <pt x="147" y="761" on="0"/>
        <pt x="183" y="725" on="0"/>
        <pt x="183" y="699" on="1"/>
        <pt x="183" y="673" on="0"/>
        <pt x="147" y="637" on="0"/>
        <pt x="121" y="637" on="1"/>
        <pt x="95" y="637" on="0"/>
        <pt x="60" y="673" on="0"/>
        <pt x="60" y="699" on="1"/>
      </contour>
      <contour>
        <pt x="166" y="-118" on="1"/>
        <pt x="166" y="-260" on="0"/>
        <pt x="24" y="-260" on="1"/>
        <pt x="-32" y="-260" on="1"/>
        <pt x="-32" y="-185" on="1"/>
        <pt x="6" y="-185" on="1"/>
        <pt x="45" y="-185" on="0"/>
        <pt x="75" y="-155" on="0"/>
        <pt x="75" y="-118" on="1"/>
        <pt x="75" y="549" on="1"/>
        <pt x="166" y="549" on="1"/>
      </contour>
    </TTGlyph>
    <TTGlyph name="k" xMin="75" yMin="0" xMax="504" yMax="740">
      <contour>
        <pt x="245" y="276" on="1"/>
        <pt x="504" y="0" on="1"/>
        <pt x="381" y="0" on="1"/>
        <pt x="166" y="241" on="1"/>
        <pt x="166" y="0" on="1"/>
        <pt x="75" y="0" on="1"/>
        <pt x="75" y="740" on="1"/>
        <pt x="166" y="740" on="1"/>
        <pt x="166" y="306" on="1"/>
        <pt x="376" y="549" on="1"/>
        <pt x="504" y="549" on="1"/>
      </contour>
    </TTGlyph>
    <TTGlyph name="l" xMin="75" yMin="0" xMax="166" yMax="740">
      <contour>
        <pt x="166" y="740" on="1"/>
        <pt x="166" y="0" on="1"/>
        <pt x="75" y="0" on="1"/>
        <pt x="75" y="740" on="1"/>
      </contour>
    </TTGlyph>
    <TTGlyph name="lacute" xMin="5" yMin="0" xMax="218" yMax="974">
      <component glyphName="l" x="0" y="0" flags="0x0"/>
      <component glyphName="acute" x="-5" y="191" flags="0x4"/>
    </TTGlyph>
    <TTGlyph name="lcaron" xMin="75" yMin="0" xMax="347" yMax="740">
      <contour>
        <pt x="166" y="740" on="1"/>
        <pt x="166" y="0" on="1"/>
        <pt x="75" y="0" on="1"/>
        <pt x="75" y="740" on="1"/>
      </contour>
      <contour>
        <pt x="347" y="685" on="0"/>
        <pt x="347" y="648" on="1"/>
        <pt x="347" y="589" on="0"/>
        <pt x="297" y="535" on="0"/>
        <pt x="246" y="535" on="1"/>
        <pt x="246" y="578" on="1"/>
        <pt x="270" y="578" on="0"/>
        <pt x="293" y="604" on="0"/>
        <pt x="293" y="631" on="1"/>
        <pt x="293" y="654" on="1"/>
        <pt x="244" y="654" on="1"/>
        <pt x="244" y="740" on="1"/>
        <pt x="336" y="740" on="1"/>
      </contour>
    </TTGlyph>
    <TTGlyph name="less" xMin="111" yMin="136" xMax="468" yMax="595">
      <contour>
        <pt x="353" y="136" on="1"/>
        <pt x="111" y="366" on="1"/>
        <pt x="353" y="595" on="1"/>
        <pt x="468" y="595" on="1"/>
        <pt x="226" y="366" on="1"/>
        <pt x="468" y="136" on="1"/>
      </contour>
    </TTGlyph>
    <TTGlyph name="lessequal" xMin="93" yMin="95" xMax="457" yMax="595">
      <contour>
        <pt x="216" y="404" on="1"/>
        <pt x="457" y="211" on="1"/>
        <pt x="335" y="211" on="1"/>
        <pt x="93" y="403" on="1"/>
        <pt x="335" y="595" on="1"/>
        <pt x="457" y="595" on="1"/>
      </contour>
      <contour>
        <pt x="96" y="163" on="1"/>
        <pt x="453" y="163" on="1"/>
        <pt x="453" y="95" on="1"/>
        <pt x="96" y="95" on="1"/>
      </contour>
    </TTGlyph>
    <TTGlyph name="logicalnot" xMin="45" yMin="220" xMax="686" yMax="433">
      <contour>
        <pt x="686" y="433" on="1"/>
        <pt x="686" y="220" on="1"/>
        <pt x="596" y="220" on="1"/>
        <pt x="596" y="360" on="1"/>
        <pt x="45" y="360" on="1"/>
        <pt x="45" y="433" on="1"/>
      </contour>
    </TTGlyph>
    <TTGlyph name="lozenge" xMin="36" yMin="108" xMax="518" yMax="591">
      <contour>
        <pt x="518" y="350" on="1"/>
        <pt x="277" y="108" on="1"/>
        <pt x="36" y="350" on="1"/>
        <pt x="277" y="591" on="1"/>
      </contour>
      <contour>
        <pt x="134" y="350" on="1"/>
        <pt x="277" y="206" on="1"/>
        <pt x="420" y="350" on="1"/>
        <pt x="277" y="493" on="1"/>
      </contour>
    </TTGlyph>
    <TTGlyph name="lslash" xMin="4" yMin="0" xMax="237" yMax="740">
      <contour>
        <pt x="237" y="358" on="1"/>
        <pt x="166" y="330" on="1"/>
        <pt x="166" y="0" on="1"/>
        <pt x="75" y="0" on="1"/>
        <pt x="75" y="295" on="1"/>
        <pt x="4" y="267" on="1"/>
        <pt x="4" y="349" on="1"/>
        <pt x="75" y="377" on="1"/>
        <pt x="75" y="740" on="1"/>
        <pt x="166" y="740" on="1"/>
        <pt x="166" y="412" on="1"/>
        <pt x="237" y="440" on="1"/>
      </contour>
    </TTGlyph>
    <TTGlyph name="m" xMin="75" yMin="0" xMax="950" yMax="558">
      <contour>
        <pt x="795" y="558" on="0"/>
        <pt x="893" y="505" on="0"/>
        <pt x="950" y="400" on="0"/>
        <pt x="950" y="325" on="1"/>
        <pt x="950" y="0" on="1"/>
        <pt x="860" y="0" on="1"/>
        <pt x="860" y="310" on="1"/>
        <pt x="860" y="393" on="0"/>
        <pt x="779" y="479" on="0"/>
        <pt x="709" y="479" on="1"/>
        <pt x="639" y="479" on="0"/>
        <pt x="558" y="393" on="0"/>
        <pt x="558" y="310" on="1"/>
        <pt x="558" y="0" on="1"/>
        <pt x="468" y="0" on="1"/>
        <pt x="468" y="310" on="1"/>
        <pt x="468" y="393" on="0"/>
        <pt x="388" y="479" on="0"/>
        <pt x="317" y="479" on="1"/>
        <pt x="247" y="479" on="0"/>
        <pt x="166" y="393" on="0"/>
        <pt x="166" y="310" on="1"/>
        <pt x="166" y="0" on="1"/>
        <pt x="75" y="0" on="1"/>
        <pt x="75" y="549" on="1"/>
        <pt x="166" y="549" on="1"/>
        <pt x="166" y="460" on="1"/>
        <pt x="193" y="508" on="0"/>
        <pt x="287" y="558" on="0"/>
        <pt x="345" y="558" on="1"/>
        <pt x="408" y="558" on="0"/>
        <pt x="510" y="497" on="0"/>
        <pt x="536" y="439" on="1"/>
        <pt x="566" y="495" on="0"/>
        <pt x="669" y="558" on="0"/>
        <pt x="735" y="558" on="1"/>
      </contour>
    </TTGlyph>
    <TTGlyph name="macron" xMin="10" yMin="637" xMax="362" yMax="710">
      <contour>
        <pt x="362" y="710" on="1"/>
        <pt x="362" y="637" on="1"/>
        <pt x="10" y="637" on="1"/>
        <pt x="10" y="710" on="1"/>
      </contour>
    </TTGlyph>
    <TTGlyph name="minus" xMin="94" yMin="327" xMax="493" yMax="405">
      <contour>
        <pt x="493" y="405" on="1"/>
        <pt x="493" y="327" on="1"/>
        <pt x="94" y="327" on="1"/>
        <pt x="94" y="405" on="1"/>
      </contour>
    </TTGlyph>
    <TTGlyph name="multiply" xMin="143" yMin="151" xMax="575" yMax="581">
      <contour>
        <pt x="418" y="366" on="1"/>
        <pt x="575" y="208" on="1"/>
        <pt x="518" y="151" on="1"/>
        <pt x="361" y="309" on="1"/>
        <pt x="202" y="151" on="1"/>
        <pt x="143" y="211" on="1"/>
        <pt x="301" y="368" on="1"/>
        <pt x="146" y="524" on="1"/>
        <pt x="203" y="581" on="1"/>
        <pt x="358" y="425" on="1"/>
        <pt x="515" y="581" on="1"/>
        <pt x="575" y="522" on="1"/>
      </contour>
    </TTGlyph>
    <TTGlyph name="n" xMin="75" yMin="0" xMax="558" yMax="558">
      <contour>
        <pt x="404" y="558" on="0"/>
        <pt x="501" y="505" on="0"/>
        <pt x="558" y="400" on="0"/>
        <pt x="558" y="325" on="1"/>
        <pt x="558" y="0" on="1"/>
        <pt x="468" y="0" on="1"/>
        <pt x="468" y="310" on="1"/>
        <pt x="468" y="393" on="0"/>
        <pt x="388" y="479" on="0"/>
        <pt x="317" y="479" on="1"/>
        <pt x="247" y="479" on="0"/>
        <pt x="166" y="393" on="0"/>
        <pt x="166" y="310" on="1"/>
        <pt x="166" y="0" on="1"/>
        <pt x="75" y="0" on="1"/>
        <pt x="75" y="549" on="1"/>
        <pt x="166" y="549" on="1"/>
        <pt x="166" y="460" on="1"/>
        <pt x="193" y="508" on="0"/>
        <pt x="287" y="558" on="0"/>
        <pt x="345" y="558" on="1"/>
      </contour>
    </TTGlyph>
    <TTGlyph name="nacute" xMin="75" yMin="0" xMax="558" yMax="783">
      <component glyphName="n" x="0" y="0" flags="0x0"/>
      <component glyphName="acute" x="194" y="0" flags="0x0"/>
    </TTGlyph>
    <TTGlyph name="ncaron" xMin="75" yMin="0" xMax="558" yMax="757">
      <component glyphName="n" x="0" y="0" flags="0x0"/>
      <component glyphName="caron" x="171" y="0" flags="0x0"/>
    </TTGlyph>
    <TTGlyph name="nine" xMin="83" yMin="1" xMax="566" yMax="747">
      <contour>
        <pt x="197" y="134" on="0"/>
        <pt x="272" y="78" on="0"/>
        <pt x="334" y="78" on="1"/>
        <pt x="387" y="78" on="0"/>
        <pt x="454" y="129" on="0"/>
        <pt x="488" y="251" on="0"/>
        <pt x="488" y="355" on="1"/>
        <pt x="462" y="315" on="0"/>
        <pt x="369" y="273" on="0"/>
        <pt x="315" y="273" on="1"/>
        <pt x="251" y="273" on="0"/>
        <pt x="145" y="328" on="0"/>
        <pt x="83" y="434" on="0"/>
        <pt x="83" y="507" on="1"/>
        <pt x="83" y="616" on="0"/>
        <pt x="209" y="747" on="0"/>
        <pt x="321" y="747" on="1"/>
        <pt x="452" y="747" on="0"/>
        <pt x="566" y="568" on="0"/>
        <pt x="566" y="381" on="1"/>
        <pt x="566" y="251" on="0"/>
        <pt x="523" y="85" on="0"/>
        <pt x="419" y="1" on="0"/>
        <pt x="329" y="1" on="1"/>
        <pt x="228" y="1" on="0"/>
        <pt x="114" y="107" on="0"/>
        <pt x="103" y="187" on="1"/>
        <pt x="186" y="187" on="1"/>
      </contour>
      <contour>
        <pt x="475" y="583" on="0"/>
        <pt x="394" y="670" on="0"/>
        <pt x="323" y="670" on="1"/>
        <pt x="252" y="670" on="0"/>
        <pt x="169" y="582" on="0"/>
        <pt x="169" y="508" on="1"/>
        <pt x="169" y="439" on="0"/>
        <pt x="250" y="351" on="0"/>
        <pt x="331" y="351" on="1"/>
        <pt x="399" y="351" on="0"/>
        <pt x="475" y="435" on="0"/>
        <pt x="475" y="505" on="1"/>
      </contour>
    </TTGlyph>
    <TTGlyph name="notequal" xMin="126" yMin="122" xMax="646" yMax="610">
      <contour>
        <pt x="559" y="514" on="1"/>
        <pt x="646" y="514" on="1"/>
        <pt x="646" y="434" on="1"/>
        <pt x="487" y="434" on="1"/>
        <pt x="363" y="297" on="1"/>
        <pt x="646" y="297" on="1"/>
        <pt x="646" y="218" on="1"/>
        <pt x="291" y="218" on="1"/>
        <pt x="204" y="122" on="1"/>
        <pt x="126" y="122" on="1"/>
        <pt x="213" y="218" on="1"/>
        <pt x="126" y="218" on="1"/>
        <pt x="126" y="297" on="1"/>
        <pt x="284" y="297" on="1"/>
        <pt x="408" y="434" on="1"/>
        <pt x="126" y="434" on="1"/>
        <pt x="126" y="514" on="1"/>
        <pt x="480" y="514" on="1"/>
        <pt x="567" y="610" on="1"/>
        <pt x="646" y="610" on="1"/>
      </contour>
    </TTGlyph>
    <TTGlyph name="ntilde" xMin="75" yMin="0" xMax="558" yMax="711">
      <component glyphName="n" x="0" y="0" flags="0x0"/>
      <component glyphName="tilde" x="160" y="0" flags="0x0"/>
    </TTGlyph>
    <TTGlyph name="numbersign" xMin="37" yMin="0" xMax="790" yMax="740">
      <contour>
        <pt x="634" y="462" on="1"/>
        <pt x="595" y="280" on="1"/>
        <pt x="732" y="280" on="1"/>
        <pt x="732" y="202" on="1"/>
        <pt x="578" y="202" on="1"/>
        <pt x="535" y="0" on="1"/>
        <pt x="447" y="0" on="1"/>
        <pt x="490" y="202" on="1"/>
        <pt x="281" y="202" on="1"/>
        <pt x="238" y="0" on="1"/>
        <pt x="150" y="0" on="1"/>
        <pt x="193" y="202" on="1"/>
        <pt x="37" y="202" on="1"/>
        <pt x="37" y="280" on="1"/>
        <pt x="210" y="280" on="1"/>
        <pt x="249" y="462" on="1"/>
        <pt x="94" y="462" on="1"/>
        <pt x="94" y="540" on="1"/>
        <pt x="265" y="540" on="1"/>
        <pt x="308" y="740" on="1"/>
        <pt x="396" y="740" on="1"/>
        <pt x="353" y="540" on="1"/>
        <pt x="562" y="540" on="1"/>
        <pt x="605" y="740" on="1"/>
        <pt x="693" y="740" on="1"/>
        <pt x="650" y="540" on="1"/>
        <pt x="790" y="540" on="1"/>
        <pt x="790" y="462" on="1"/>
      </contour>
      <contour>
        <pt x="546" y="462" on="1"/>
        <pt x="337" y="462" on="1"/>
        <pt x="298" y="280" on="1"/>
        <pt x="507" y="280" on="1"/>
      </contour>
    </TTGlyph>
    <TTGlyph name="o" xMin="39" yMin="-9" xMax="593" yMax="558">
      <contour>
        <pt x="394" y="558" on="0"/>
        <pt x="520" y="488" on="0"/>
        <pt x="593" y="358" on="0"/>
        <pt x="593" y="274" on="1"/>
        <pt x="593" y="191" on="0"/>
        <pt x="517" y="62" on="0"/>
        <pt x="387" y="-9" on="0"/>
        <pt x="308" y="-9" on="1"/>
        <pt x="231" y="-9" on="0"/>
        <pt x="108" y="61" on="0"/>
        <pt x="39" y="190" on="0"/>
        <pt x="39" y="274" on="1"/>
        <pt x="39" y="359" on="0"/>
        <pt x="112" y="488" on="0"/>
        <pt x="238" y="558" on="0"/>
        <pt x="316" y="558" on="1"/>
      </contour>
      <contour>
        <pt x="263" y="483" on="0"/>
        <pt x="181" y="435" on="0"/>
        <pt x="132" y="341" on="0"/>
        <pt x="132" y="274" on="1"/>
        <pt x="132" y="208" on="0"/>
        <pt x="179" y="114" on="0"/>
        <pt x="259" y="66" on="0"/>
        <pt x="308" y="66" on="1"/>
        <pt x="358" y="66" on="0"/>
        <pt x="445" y="115" on="0"/>
        <pt x="499" y="209" on="0"/>
        <pt x="499" y="274" on="1"/>
        <pt x="499" y="340" on="0"/>
        <pt x="448" y="435" on="0"/>
        <pt x="363" y="483" on="0"/>
        <pt x="313" y="483" on="1"/>
      </contour>
    </TTGlyph>
    <TTGlyph name="oacute" xMin="39" yMin="-9" xMax="593" yMax="783">
      <component glyphName="o" x="0" y="0" flags="0x0"/>
      <component glyphName="acute" x="190" y="0" flags="0x0"/>
    </TTGlyph>
    <TTGlyph name="ocircumflex" xMin="39" yMin="-9" xMax="593" yMax="757">
      <component glyphName="o" x="0" y="0" flags="0x0"/>
      <component glyphName="circumflex" x="168" y="0" flags="0x0"/>
    </TTGlyph>
    <TTGlyph name="odieresis" xMin="39" yMin="-9" xMax="593" yMax="728">
      <component glyphName="o" x="0" y="0" flags="0x0"/>
      <component glyphName="dieresis" x="171" y="0" flags="0x0"/>
    </TTGlyph>
    <TTGlyph name="oe" xMin="39" yMin="-9" xMax="1033" yMax="558">
      <contour>
        <pt x="1033" y="268" on="0"/>
        <pt x="1029" y="243" on="1"/>
        <pt x="593" y="243" on="1"/>
        <pt x="597" y="160" on="0"/>
        <pt x="692" y="66" on="0"/>
        <pt x="765" y="66" on="1"/>
        <pt x="822" y="66" on="0"/>
        <pt x="899" y="116" on="0"/>
        <pt x="916" y="157" on="1"/>
        <pt x="1014" y="157" on="1"/>
        <pt x="988" y="85" on="0"/>
        <pt x="861" y="-9" on="0"/>
        <pt x="765" y="-9" on="1"/>
        <pt x="692" y="-9" on="0"/>
        <pt x="577" y="56" on="0"/>
        <pt x="543" y="116" on="1"/>
        <pt x="506" y="57" on="0"/>
        <pt x="382" y="-9" on="0"/>
        <pt x="308" y="-9" on="1"/>
        <pt x="231" y="-9" on="0"/>
        <pt x="108" y="61" on="0"/>
        <pt x="39" y="190" on="0"/>
        <pt x="39" y="274" on="1"/>
        <pt x="39" y="359" on="0"/>
        <pt x="112" y="488" on="0"/>
        <pt x="238" y="558" on="0"/>
        <pt x="316" y="558" on="1"/>
        <pt x="388" y="558" on="0"/>
        <pt x="508" y="493" on="0"/>
        <pt x="544" y="434" on="1"/>
        <pt x="578" y="493" on="0"/>
        <pt x="696" y="558" on="0"/>
        <pt x="772" y="558" on="1"/>
        <pt x="849" y="558" on="0"/>
        <pt x="967" y="490" on="0"/>
        <pt x="1033" y="372" on="0"/>
        <pt x="1033" y="297" on="1"/>
      </contour>
      <contour>
        <pt x="358" y="66" on="0"/>
        <pt x="445" y="115" on="0"/>
        <pt x="498" y="209" on="0"/>
        <pt x="498" y="274" on="1"/>
        <pt x="498" y="340" on="0"/>
        <pt x="447" y="435" on="0"/>
        <pt x="363" y="483" on="0"/>
        <pt x="313" y="483" on="1"/>
        <pt x="263" y="483" on="0"/>
        <pt x="180" y="435" on="0"/>
        <pt x="131" y="340" on="0"/>
        <pt x="131" y="274" on="1"/>
        <pt x="131" y="208" on="0"/>
        <pt x="178" y="114" on="0"/>
        <pt x="259" y="66" on="0"/>
        <pt x="308" y="66" on="1"/>
      </contour>
      <contour>
        <pt x="939" y="309" on="1"/>
        <pt x="939" y="362" on="0"/>
        <pt x="893" y="441" on="0"/>
        <pt x="814" y="483" on="0"/>
        <pt x="765" y="483" on="1"/>
        <pt x="694" y="483" on="0"/>
        <pt x="599" y="390" on="0"/>
        <pt x="594" y="309" on="1"/>
      </contour>
    </TTGlyph>
    <TTGlyph name="ogonek" xMin="10" yMin="-202" xMax="228" yMax="5">
      <contour>
        <pt x="196" y="5" on="1"/>
        <pt x="196" y="-56" on="1"/>
        <pt x="149" y="-56" on="1"/>
        <pt x="93" y="-56" on="0"/>
        <pt x="93" y="-97" on="1"/>
        <pt x="93" y="-139" on="0"/>
        <pt x="149" y="-139" on="1"/>
        <pt x="228" y="-139" on="1"/>
        <pt x="228" y="-202" on="1"/>
        <pt x="137" y="-202" on="1"/>
        <pt x="81" y="-202" on="0"/>
        <pt x="10" y="-145" on="0"/>
        <pt x="10" y="-97" on="1"/>
        <pt x="10" y="-50" on="0"/>
        <pt x="81" y="5" on="0"/>
        <pt x="140" y="5" on="1"/>
      </contour>
    </TTGlyph>
    <TTGlyph name="ograve" xMin="39" yMin="-9" xMax="593" yMax="783">
      <component glyphName="o" x="0" y="0" flags="0x0"/>
      <component glyphName="grave" x="190" y="0" flags="0x0"/>
    </TTGlyph>
    <TTGlyph name="ohungarumlaut" xMin="39" yMin="-9" xMax="593" yMax="755">
      <component glyphName="o" x="0" y="0" flags="0x0"/>
      <component glyphName="hungarumlaut" x="191" y="0" flags="0x0"/>
    </TTGlyph>
    <TTGlyph name="omacron" xMin="39" yMin="-9" xMax="593" yMax="710">
      <component glyphName="o" x="0" y="0" flags="0x0"/>
      <component glyphName="macron" x="130" y="0" flags="0x0"/>
    </TTGlyph>
    <TTGlyph name="one" xMin="52" yMin="0" xMax="223" yMax="710">
      <contour>
        <pt x="52" y="629" on="1"/>
        <pt x="52" y="710" on="1"/>
        <pt x="223" y="710" on="1"/>
        <pt x="223" y="0" on="1"/>
        <pt x="134" y="0" on="1"/>
        <pt x="134" y="629" on="1"/>
      </contour>
    </TTGlyph>
    <TTGlyph name="onehalf" xMin="32" yMin="-1" xMax="615" yMax="704">
      <contour>
        <pt x="83" y="649" on="1"/>
        <pt x="32" y="649" on="1"/>
        <pt x="32" y="704" on="1"/>
        <pt x="156" y="704" on="1"/>
        <pt x="156" y="352" on="1"/>
        <pt x="83" y="352" on="1"/>
      </contour>
      <contour>
        <pt x="502" y="693" on="1"/>
        <pt x="137" y="0" on="1"/>
        <pt x="53" y="0" on="1"/>
        <pt x="418" y="693" on="1"/>
      </contour>
      <contour>
        <pt x="615" y="60" on="1"/>
        <pt x="615" y="-1" on="1"/>
        <pt x="363" y="-1" on="1"/>
        <pt x="363" y="51" on="1"/>
        <pt x="465" y="132" on="1"/>
        <pt x="500" y="160" on="0"/>
        <pt x="535" y="211" on="0"/>
        <pt x="535" y="241" on="1"/>
        <pt x="535" y="267" on="0"/>
        <pt x="505" y="299" on="0"/>
        <pt x="483" y="299" on="1"/>
        <pt x="463" y="299" on="0"/>
        <pt x="438" y="277" on="0"/>
        <pt x="435" y="258" on="1"/>
        <pt x="362" y="258" on="1"/>
        <pt x="364" y="302" on="0"/>
        <pt x="428" y="357" on="0"/>
        <pt x="485" y="357" on="1"/>
        <pt x="542" y="357" on="0"/>
        <pt x="612" y="289" on="0"/>
        <pt x="612" y="242" on="1"/>
        <pt x="612" y="206" on="0"/>
        <pt x="570" y="146" on="0"/>
        <pt x="521" y="110" on="1"/>
        <pt x="450" y="60" on="1"/>
      </contour>
    </TTGlyph>
    <TTGlyph name="onequarter" xMin="32" yMin="0" xMax="597" yMax="704">
      <contour>
        <pt x="32" y="649" on="1"/>
        <pt x="32" y="704" on="1"/>
        <pt x="156" y="704" on="1"/>
        <pt x="156" y="352" on="1"/>
        <pt x="83" y="352" on="1"/>
        <pt x="83" y="649" on="1"/>
      </contour>
      <contour>
        <pt x="518" y="693" on="1"/>
        <pt x="137" y="0" on="1"/>
        <pt x="53" y="0" on="1"/>
        <pt x="434" y="693" on="1"/>
      </contour>
      <contour>
        <pt x="597" y="69" on="1"/>
        <pt x="549" y="69" on="1"/>
        <pt x="549" y="0" on="1"/>
        <pt x="476" y="0" on="1"/>
        <pt x="476" y="69" on="1"/>
        <pt x="295" y="69" on="1"/>
        <pt x="295" y="111" on="1"/>
        <pt x="452" y="354" on="1"/>
        <pt x="549" y="354" on="1"/>
        <pt x="549" y="118" on="1"/>
        <pt x="597" y="118" on="1"/>
      </contour>
      <contour>
        <pt x="478" y="289" on="1"/>
        <pt x="370" y="118" on="1"/>
        <pt x="478" y="118" on="1"/>
      </contour>
    </TTGlyph>
    <TTGlyph name="onesuperior" xMin="20" yMin="352" xMax="144" yMax="704">
      <contour>
        <pt x="20" y="649" on="1"/>
        <pt x="20" y="704" on="1"/>
        <pt x="144" y="704" on="1"/>
        <pt x="144" y="352" on="1"/>
        <pt x="71" y="352" on="1"/>
        <pt x="71" y="649" on="1"/>
      </contour>
    </TTGlyph>
    <TTGlyph name="ordfeminine" xMin="33" yMin="347" xMax="404" yMax="709">
      <contour>
        <pt x="246" y="709" on="0"/>
        <pt x="314" y="669" on="0"/>
        <pt x="331" y="637" on="1"/>
        <pt x="331" y="703" on="1"/>
        <pt x="404" y="703" on="1"/>
        <pt x="404" y="353" on="1"/>
        <pt x="331" y="353" on="1"/>
        <pt x="331" y="419" on="1"/>
        <pt x="314" y="387" on="0"/>
        <pt x="246" y="347" on="0"/>
        <pt x="199" y="347" on="1"/>
        <pt x="153" y="347" on="0"/>
        <pt x="77" y="395" on="0"/>
        <pt x="33" y="479" on="0"/>
        <pt x="33" y="530" on="1"/>
        <pt x="33" y="582" on="0"/>
        <pt x="77" y="663" on="0"/>
        <pt x="153" y="709" on="0"/>
        <pt x="199" y="709" on="1"/>
      </contour>
      <contour>
        <pt x="175" y="650" on="0"/>
        <pt x="110" y="585" on="0"/>
        <pt x="110" y="530" on="1"/>
        <pt x="110" y="474" on="0"/>
        <pt x="175" y="405" on="0"/>
        <pt x="220" y="405" on="1"/>
        <pt x="266" y="405" on="0"/>
        <pt x="331" y="472" on="0"/>
        <pt x="331" y="528" on="1"/>
        <pt x="331" y="584" on="0"/>
        <pt x="266" y="650" on="0"/>
        <pt x="220" y="650" on="1"/>
      </contour>
    </TTGlyph>
    <TTGlyph name="ordmasculine" xMin="33" yMin="347" xMax="403" yMax="709">
      <contour>
        <pt x="271" y="709" on="0"/>
        <pt x="354" y="664" on="0"/>
        <pt x="403" y="581" on="0"/>
        <pt x="403" y="527" on="1"/>
        <pt x="403" y="474" on="0"/>
        <pt x="352" y="392" on="0"/>
        <pt x="266" y="347" on="0"/>
        <pt x="214" y="347" on="1"/>
        <pt x="163" y="347" on="0"/>
        <pt x="80" y="392" on="0"/>
        <pt x="33" y="474" on="0"/>
        <pt x="33" y="527" on="1"/>
        <pt x="33" y="581" on="0"/>
        <pt x="82" y="664" on="0"/>
        <pt x="167" y="709" on="0"/>
        <pt x="219" y="709" on="1"/>
      </contour>
      <contour>
        <pt x="171" y="653" on="0"/>
        <pt x="110" y="587" on="0"/>
        <pt x="110" y="527" on="1"/>
        <pt x="110" y="469" on="0"/>
        <pt x="169" y="404" on="0"/>
        <pt x="214" y="404" on="1"/>
        <pt x="260" y="404" on="0"/>
        <pt x="327" y="469" on="0"/>
        <pt x="327" y="527" on="1"/>
        <pt x="327" y="587" on="0"/>
        <pt x="263" y="653" on="0"/>
        <pt x="217" y="653" on="1"/>
      </contour>
    </TTGlyph>
    <TTGlyph name="oslash" xMin="29" yMin="-9" xMax="603" yMax="558">
      <contour>
        <pt x="527" y="465" on="1"/>
        <pt x="593" y="388" on="0"/>
        <pt x="593" y="274" on="1"/>
        <pt x="593" y="191" on="0"/>
        <pt x="517" y="62" on="0"/>
        <pt x="387" y="-9" on="0"/>
        <pt x="308" y="-9" on="1"/>
        <pt x="213" y="-9" on="0"/>
        <pt x="143" y="44" on="1"/>
        <pt x="103" y="0" on="1"/>
        <pt x="29" y="0" on="1"/>
        <pt x="103" y="82" on="1"/>
        <pt x="72" y="119" on="0"/>
        <pt x="39" y="217" on="0"/>
        <pt x="39" y="274" on="1"/>
        <pt x="39" y="359" on="0"/>
        <pt x="112" y="488" on="0"/>
        <pt x="238" y="558" on="0"/>
        <pt x="316" y="558" on="1"/>
        <pt x="413" y="558" on="0"/>
        <pt x="487" y="503" on="1"/>
        <pt x="529" y="549" on="1"/>
        <pt x="603" y="549" on="1"/>
      </contour>
      <contour>
        <pt x="132" y="198" on="0"/>
        <pt x="163" y="147" on="1"/>
        <pt x="431" y="441" on="1"/>
        <pt x="382" y="483" on="0"/>
        <pt x="313" y="483" on="1"/>
        <pt x="263" y="483" on="0"/>
        <pt x="181" y="435" on="0"/>
        <pt x="132" y="341" on="0"/>
        <pt x="132" y="274" on="1"/>
      </contour>
      <contour>
        <pt x="499" y="348" on="0"/>
        <pt x="467" y="399" on="1"/>
        <pt x="198" y="105" on="1"/>
        <pt x="243" y="66" on="0"/>
        <pt x="308" y="66" on="1"/>
        <pt x="358" y="66" on="0"/>
        <pt x="445" y="115" on="0"/>
        <pt x="499" y="209" on="0"/>
        <pt x="499" y="274" on="1"/>
      </contour>
    </TTGlyph>
    <TTGlyph name="otilde" xMin="39" yMin="-9" xMax="593" yMax="711">
      <component glyphName="o" x="0" y="0" flags="0x0"/>
      <component glyphName="tilde" x="156" y="0" flags="0x0"/>
    </TTGlyph>
    <TTGlyph name="p" xMin="75" yMin="-260" xMax="631" yMax="558">
      <contour>
        <pt x="443" y="558" on="0"/>
        <pt x="562" y="488" on="0"/>
        <pt x="631" y="361" on="0"/>
        <pt x="631" y="278" on="1"/>
        <pt x="631" y="195" on="0"/>
        <pt x="562" y="64" on="0"/>
        <pt x="443" y="-9" on="0"/>
        <pt x="369" y="-9" on="1"/>
        <pt x="299" y="-9" on="0"/>
        <pt x="194" y="58" on="0"/>
        <pt x="166" y="112" on="1"/>
        <pt x="166" y="-260" on="1"/>
        <pt x="75" y="-260" on="1"/>
        <pt x="75" y="549" on="1"/>
        <pt x="166" y="549" on="1"/>
        <pt x="166" y="439" on="1"/>
        <pt x="194" y="492" on="0"/>
        <pt x="299" y="558" on="0"/>
        <pt x="369" y="558" on="1"/>
      </contour>
      <contour>
        <pt x="302" y="479" on="0"/>
        <pt x="217" y="429" on="0"/>
        <pt x="166" y="336" on="0"/>
        <pt x="166" y="274" on="1"/>
        <pt x="166" y="212" on="0"/>
        <pt x="217" y="119" on="0"/>
        <pt x="302" y="69" on="0"/>
        <pt x="351" y="69" on="1"/>
        <pt x="400" y="69" on="0"/>
        <pt x="486" y="120" on="0"/>
        <pt x="537" y="216" on="0"/>
        <pt x="537" y="278" on="1"/>
        <pt x="537" y="340" on="0"/>
        <pt x="486" y="431" on="0"/>
        <pt x="401" y="479" on="0"/>
        <pt x="351" y="479" on="1"/>
      </contour>
    </TTGlyph>
    <TTGlyph name="paragraph" xMin="37" yMin="0" xMax="523" yMax="693">
      <contour>
        <pt x="523" y="0" on="1"/>
        <pt x="438" y="0" on="1"/>
        <pt x="438" y="620" on="1"/>
        <pt x="370" y="620" on="1"/>
        <pt x="370" y="0" on="1"/>
        <pt x="285" y="0" on="1"/>
        <pt x="285" y="286" on="1"/>
        <pt x="274" y="286" on="1"/>
        <pt x="156" y="286" on="0"/>
        <pt x="37" y="398" on="0"/>
        <pt x="37" y="489" on="1"/>
        <pt x="37" y="579" on="0"/>
        <pt x="158" y="693" on="0"/>
        <pt x="274" y="693" on="1"/>
        <pt x="523" y="693" on="1"/>
      </contour>
    </TTGlyph>
    <TTGlyph name="parenleft" xMin="152" yMin="-184" xMax="513" yMax="989">
      <contour>
        <pt x="152" y="526" on="0"/>
        <pt x="218" y="751" on="0"/>
        <pt x="337" y="931" on="0"/>
        <pt x="416" y="989" on="1"/>
        <pt x="513" y="989" on="1"/>
        <pt x="513" y="980" on="1"/>
        <pt x="375" y="872" on="0"/>
        <pt x="240" y="569" on="0"/>
        <pt x="240" y="403" on="1"/>
        <pt x="240" y="236" on="0"/>
        <pt x="375" y="-68" on="0"/>
        <pt x="513" y="-175" on="1"/>
        <pt x="513" y="-184" on="1"/>
        <pt x="416" y="-184" on="1"/>
        <pt x="337" y="-126" on="0"/>
        <pt x="218" y="54" on="0"/>
        <pt x="152" y="280" on="0"/>
        <pt x="152" y="403" on="1"/>
      </contour>
    </TTGlyph>
    <TTGlyph name="parenright" xMin="49" yMin="-184" xMax="410" yMax="989">
      <contour>
        <pt x="410" y="280" on="0"/>
        <pt x="344" y="54" on="0"/>
        <pt x="225" y="-126" on="0"/>
        <pt x="146" y="-184" on="1"/>
        <pt x="49" y="-184" on="1"/>
        <pt x="49" y="-175" on="1"/>
        <pt x="186" y="-68" on="0"/>
        <pt x="322" y="236" on="0"/>
        <pt x="322" y="403" on="1"/>
        <pt x="322" y="569" on="0"/>
        <pt x="186" y="872" on="0"/>
        <pt x="49" y="980" on="1"/>
        <pt x="49" y="989" on="1"/>
        <pt x="146" y="989" on="1"/>
        <pt x="225" y="931" on="0"/>
        <pt x="344" y="751" on="0"/>
        <pt x="410" y="526" on="0"/>
        <pt x="410" y="403" on="1"/>
      </contour>
    </TTGlyph>
    <TTGlyph name="partialdiff" xMin="39" yMin="-9" xMax="532" yMax="740">
      <contour>
        <pt x="356" y="558" on="0"/>
        <pt x="417" y="524" on="0"/>
        <pt x="439" y="490" on="1"/>
        <pt x="434" y="578" on="0"/>
        <pt x="358" y="683" on="0"/>
        <pt x="289" y="683" on="1"/>
        <pt x="250" y="683" on="0"/>
        <pt x="210" y="672" on="1"/>
        <pt x="210" y="726" on="1"/>
        <pt x="256" y="740" on="0"/>
        <pt x="302" y="740" on="1"/>
        <pt x="413" y="740" on="0"/>
        <pt x="532" y="568" on="0"/>
        <pt x="532" y="412" on="1"/>
        <pt x="532" y="286" on="0"/>
        <pt x="451" y="94" on="0"/>
        <pt x="313" y="-9" on="0"/>
        <pt x="230" y="-9" on="1"/>
        <pt x="146" y="-9" on="0"/>
        <pt x="39" y="109" on="0"/>
        <pt x="39" y="223" on="1"/>
        <pt x="39" y="310" on="0"/>
        <pt x="112" y="464" on="0"/>
        <pt x="238" y="558" on="0"/>
        <pt x="314" y="558" on="1"/>
      </contour>
      <contour>
        <pt x="262" y="483" on="0"/>
        <pt x="180" y="414" on="0"/>
        <pt x="132" y="294" on="0"/>
        <pt x="132" y="223" on="1"/>
        <pt x="132" y="145" on="0"/>
        <pt x="191" y="66" on="0"/>
        <pt x="243" y="66" on="1"/>
        <pt x="292" y="66" on="0"/>
        <pt x="377" y="137" on="0"/>
        <pt x="428" y="255" on="0"/>
        <pt x="428" y="322" on="1"/>
        <pt x="428" y="400" on="0"/>
        <pt x="366" y="483" on="0"/>
        <pt x="311" y="483" on="1"/>
      </contour>
    </TTGlyph>
    <TTGlyph name="percent" xMin="46" yMin="-10" xMax="639" yMax="703">
      <contour>
        <pt x="255" y="703" on="0"/>
        <pt x="337" y="623" on="0"/>
        <pt x="337" y="555" on="1"/>
        <pt x="337" y="488" on="0"/>
        <pt x="255" y="407" on="0"/>
        <pt x="191" y="407" on="1"/>
        <pt x="128" y="407" on="0"/>
        <pt x="46" y="488" on="0"/>
        <pt x="46" y="555" on="1"/>
        <pt x="46" y="623" on="0"/>
        <pt x="127" y="703" on="0"/>
        <pt x="191" y="703" on="1"/>
      </contour>
      <contour>
        <pt x="590" y="693" on="1"/>
        <pt x="185" y="0" on="1"/>
        <pt x="94" y="0" on="1"/>
        <pt x="499" y="693" on="1"/>
      </contour>
      <contour>
        <pt x="122" y="509" on="0"/>
        <pt x="158" y="464" on="0"/>
        <pt x="191" y="464" on="1"/>
        <pt x="224" y="464" on="0"/>
        <pt x="260" y="509" on="0"/>
        <pt x="260" y="555" on="1"/>
        <pt x="260" y="646" on="0"/>
        <pt x="191" y="646" on="1"/>
        <pt x="122" y="646" on="0"/>
        <pt x="122" y="555" on="1"/>
      </contour>
      <contour>
        <pt x="556" y="286" on="0"/>
        <pt x="639" y="205" on="0"/>
        <pt x="639" y="138" on="1"/>
        <pt x="639" y="70" on="0"/>
        <pt x="557" y="-10" on="0"/>
        <pt x="493" y="-10" on="1"/>
        <pt x="429" y="-10" on="0"/>
        <pt x="348" y="70" on="0"/>
        <pt x="348" y="138" on="1"/>
        <pt x="348" y="205" on="0"/>
        <pt x="430" y="286" on="0"/>
        <pt x="493" y="286" on="1"/>
      </contour>
      <contour>
        <pt x="424" y="92" on="0"/>
        <pt x="460" y="47" on="0"/>
        <pt x="493" y="47" on="1"/>
        <pt x="526" y="47" on="0"/>
        <pt x="562" y="92" on="0"/>
        <pt x="562" y="138" on="1"/>
        <pt x="562" y="184" on="0"/>
        <pt x="526" y="229" on="0"/>
        <pt x="493" y="229" on="1"/>
        <pt x="460" y="229" on="0"/>
        <pt x="424" y="184" on="0"/>
        <pt x="424" y="138" on="1"/>
      </contour>
    </TTGlyph>
    <TTGlyph name="period" xMin="55" yMin="0" xMax="171" yMax="117">
      <contour>
        <pt x="55" y="83" on="0"/>
        <pt x="89" y="117" on="0"/>
        <pt x="113" y="117" on="1"/>
        <pt x="137" y="117" on="0"/>
        <pt x="171" y="83" on="0"/>
        <pt x="171" y="58" on="1"/>
        <pt x="171" y="34" on="0"/>
        <pt x="137" y="0" on="0"/>
        <pt x="113" y="0" on="1"/>
        <pt x="89" y="0" on="0"/>
        <pt x="55" y="34" on="0"/>
        <pt x="55" y="58" on="1"/>
      </contour>
    </TTGlyph>
    <TTGlyph name="periodcentered" xMin="57" yMin="285" xMax="173" yMax="402">
      <component glyphName="period" x="2" y="285" flags="0x4"/>
    </TTGlyph>
    <TTGlyph name="perthousand" xMin="46" yMin="-10" xMax="968" yMax="703">
      <contour>
        <pt x="255" y="703" on="0"/>
        <pt x="337" y="623" on="0"/>
        <pt x="337" y="555" on="1"/>
        <pt x="337" y="488" on="0"/>
        <pt x="255" y="407" on="0"/>
        <pt x="191" y="407" on="1"/>
        <pt x="128" y="407" on="0"/>
        <pt x="46" y="488" on="0"/>
        <pt x="46" y="555" on="1"/>
        <pt x="46" y="623" on="0"/>
        <pt x="127" y="703" on="0"/>
        <pt x="191" y="703" on="1"/>
      </contour>
      <contour>
        <pt x="590" y="693" on="1"/>
        <pt x="185" y="0" on="1"/>
        <pt x="94" y="0" on="1"/>
        <pt x="499" y="693" on="1"/>
      </contour>
      <contour>
        <pt x="122" y="509" on="0"/>
        <pt x="158" y="464" on="0"/>
        <pt x="191" y="464" on="1"/>
        <pt x="224" y="464" on="0"/>
        <pt x="260" y="509" on="0"/>
        <pt x="260" y="555" on="1"/>
        <pt x="260" y="646" on="0"/>
        <pt x="191" y="646" on="1"/>
        <pt x="122" y="646" on="0"/>
        <pt x="122" y="555" on="1"/>
      </contour>
      <contour>
        <pt x="556" y="286" on="0"/>
        <pt x="639" y="205" on="0"/>
        <pt x="639" y="138" on="1"/>
        <pt x="639" y="70" on="0"/>
        <pt x="557" y="-10" on="0"/>
        <pt x="493" y="-10" on="1"/>
        <pt x="429" y="-10" on="0"/>
        <pt x="348" y="70" on="0"/>
        <pt x="348" y="138" on="1"/>
        <pt x="348" y="205" on="0"/>
        <pt x="430" y="286" on="0"/>
        <pt x="493" y="286" on="1"/>
      </contour>
      <contour>
        <pt x="886" y="286" on="0"/>
        <pt x="968" y="205" on="0"/>
        <pt x="968" y="138" on="1"/>
        <pt x="968" y="70" on="0"/>
        <pt x="887" y="-10" on="0"/>
        <pt x="823" y="-10" on="1"/>
        <pt x="759" y="-10" on="0"/>
        <pt x="677" y="70" on="0"/>
        <pt x="677" y="138" on="1"/>
        <pt x="677" y="205" on="0"/>
        <pt x="759" y="286" on="0"/>
        <pt x="823" y="286" on="1"/>
      </contour>
      <contour>
        <pt x="424" y="92" on="0"/>
        <pt x="460" y="47" on="0"/>
        <pt x="493" y="47" on="1"/>
        <pt x="526" y="47" on="0"/>
        <pt x="562" y="92" on="0"/>
        <pt x="562" y="138" on="1"/>
        <pt x="562" y="184" on="0"/>
        <pt x="526" y="229" on="0"/>
        <pt x="493" y="229" on="1"/>
        <pt x="460" y="229" on="0"/>
        <pt x="424" y="184" on="0"/>
        <pt x="424" y="138" on="1"/>
      </contour>
      <contour>
        <pt x="753" y="92" on="0"/>
        <pt x="790" y="47" on="0"/>
        <pt x="822" y="47" on="1"/>
        <pt x="855" y="47" on="0"/>
        <pt x="891" y="92" on="0"/>
        <pt x="891" y="138" on="1"/>
        <pt x="891" y="184" on="0"/>
        <pt x="855" y="229" on="0"/>
        <pt x="822" y="229" on="1"/>
        <pt x="790" y="229" on="0"/>
        <pt x="753" y="184" on="0"/>
        <pt x="753" y="138" on="1"/>
      </contour>
    </TTGlyph>
    <TTGlyph name="pi" xMin="36" yMin="0" xMax="663" yMax="549">
      <contour>
        <pt x="663" y="549" on="1"/>
        <pt x="663" y="476" on="1"/>
        <pt x="584" y="476" on="1"/>
        <pt x="584" y="0" on="1"/>
        <pt x="493" y="0" on="1"/>
        <pt x="493" y="476" on="1"/>
        <pt x="205" y="476" on="1"/>
        <pt x="205" y="0" on="1"/>
        <pt x="114" y="0" on="1"/>
        <pt x="114" y="476" on="1"/>
        <pt x="36" y="476" on="1"/>
        <pt x="36" y="549" on="1"/>
      </contour>
    </TTGlyph>
    <TTGlyph name="plus" xMin="116" yMin="111" xMax="625" yMax="621">
      <contour>
        <pt x="625" y="326" on="1"/>
        <pt x="413" y="326" on="1"/>
        <pt x="413" y="111" on="1"/>
        <pt x="328" y="111" on="1"/>
        <pt x="328" y="326" on="1"/>
        <pt x="116" y="326" on="1"/>
        <pt x="116" y="406" on="1"/>
        <pt x="328" y="406" on="1"/>
        <pt x="328" y="621" on="1"/>
        <pt x="413" y="621" on="1"/>
        <pt x="413" y="406" on="1"/>
        <pt x="625" y="406" on="1"/>
      </contour>
    </TTGlyph>
    <TTGlyph name="plusminus" xMin="117" yMin="130" xMax="627" yMax="623">
      <contour>
        <pt x="415" y="375" on="1"/>
        <pt x="415" y="210" on="1"/>
        <pt x="627" y="210" on="1"/>
        <pt x="627" y="130" on="1"/>
        <pt x="117" y="130" on="1"/>
        <pt x="117" y="210" on="1"/>
        <pt x="329" y="210" on="1"/>
        <pt x="329" y="375" on="1"/>
        <pt x="117" y="375" on="1"/>
        <pt x="117" y="455" on="1"/>
        <pt x="329" y="455" on="1"/>
        <pt x="329" y="623" on="1"/>
        <pt x="415" y="623" on="1"/>
        <pt x="415" y="455" on="1"/>
        <pt x="627" y="455" on="1"/>
        <pt x="627" y="375" on="1"/>
      </contour>
    </TTGlyph>
    <TTGlyph name="product" xMin="36" yMin="0" xMax="703" yMax="693">
      <contour>
        <pt x="703" y="693" on="1"/>
        <pt x="703" y="621" on="1"/>
        <pt x="624" y="621" on="1"/>
        <pt x="624" y="0" on="1"/>
        <pt x="533" y="0" on="1"/>
        <pt x="533" y="621" on="1"/>
        <pt x="205" y="621" on="1"/>
        <pt x="205" y="0" on="1"/>
        <pt x="114" y="0" on="1"/>
        <pt x="114" y="621" on="1"/>
        <pt x="36" y="621" on="1"/>
        <pt x="36" y="693" on="1"/>
      </contour>
    </TTGlyph>
    <TTGlyph name="q" xMin="39" yMin="-260" xMax="595" yMax="558">
      <contour>
        <pt x="371" y="558" on="0"/>
        <pt x="476" y="492" on="0"/>
        <pt x="503" y="439" on="1"/>
        <pt x="503" y="549" on="1"/>
        <pt x="595" y="549" on="1"/>
        <pt x="595" y="-260" on="1"/>
        <pt x="503" y="-260" on="1"/>
        <pt x="503" y="112" on="1"/>
        <pt x="476" y="58" on="0"/>
        <pt x="371" y="-9" on="0"/>
        <pt x="301" y="-9" on="1"/>
        <pt x="227" y="-9" on="0"/>
        <pt x="108" y="64" on="0"/>
        <pt x="39" y="195" on="0"/>
        <pt x="39" y="278" on="1"/>
        <pt x="39" y="361" on="0"/>
        <pt x="108" y="488" on="0"/>
        <pt x="227" y="558" on="0"/>
        <pt x="301" y="558" on="1"/>
      </contour>
      <contour>
        <pt x="268" y="479" on="0"/>
        <pt x="183" y="431" on="0"/>
        <pt x="132" y="340" on="0"/>
        <pt x="132" y="278" on="1"/>
        <pt x="132" y="216" on="0"/>
        <pt x="183" y="121" on="0"/>
        <pt x="268" y="69" on="0"/>
        <pt x="317" y="69" on="1"/>
        <pt x="367" y="69" on="0"/>
        <pt x="452" y="119" on="0"/>
        <pt x="503" y="212" on="0"/>
        <pt x="503" y="274" on="1"/>
        <pt x="503" y="336" on="0"/>
        <pt x="452" y="429" on="0"/>
        <pt x="367" y="479" on="0"/>
        <pt x="317" y="479" on="1"/>
      </contour>
    </TTGlyph>
    <TTGlyph name="question" xMin="99" yMin="-8" xMax="535" yMax="742">
      <contour>
        <pt x="416" y="742" on="0"/>
        <pt x="535" y="632" on="0"/>
        <pt x="535" y="537" on="1"/>
        <pt x="535" y="427" on="0"/>
        <pt x="416" y="332" on="0"/>
        <pt x="296" y="331" on="1"/>
        <pt x="296" y="199" on="1"/>
        <pt x="210" y="199" on="1"/>
        <pt x="210" y="396" on="1"/>
        <pt x="250" y="396" on="1"/>
        <pt x="317" y="395" on="0"/>
        <pt x="402" y="417" on="0"/>
        <pt x="449" y="478" on="0"/>
        <pt x="449" y="536" on="1"/>
        <pt x="449" y="597" on="0"/>
        <pt x="379" y="665" on="0"/>
        <pt x="317" y="665" on="1"/>
        <pt x="255" y="665" on="0"/>
        <pt x="184" y="600" on="0"/>
        <pt x="184" y="540" on="1"/>
        <pt x="99" y="540" on="1"/>
        <pt x="99" y="601" on="0"/>
        <pt x="153" y="692" on="0"/>
        <pt x="252" y="742" on="0"/>
        <pt x="316" y="742" on="1"/>
      </contour>
      <contour>
        <pt x="280" y="109" on="0"/>
        <pt x="314" y="75" on="0"/>
        <pt x="314" y="50" on="1"/>
        <pt x="314" y="26" on="0"/>
        <pt x="280" y="-8" on="0"/>
        <pt x="255" y="-8" on="1"/>
        <pt x="231" y="-8" on="0"/>
        <pt x="197" y="26" on="0"/>
        <pt x="197" y="50" on="1"/>
        <pt x="197" y="75" on="0"/>
        <pt x="231" y="109" on="0"/>
        <pt x="255" y="109" on="1"/>
      </contour>
    </TTGlyph>
    <TTGlyph name="questiondown" xMin="91" yMin="-192" xMax="527" yMax="558">
      <contour>
        <pt x="346" y="441" on="0"/>
        <pt x="312" y="475" on="0"/>
        <pt x="312" y="500" on="1"/>
        <pt x="312" y="524" on="0"/>
        <pt x="346" y="558" on="0"/>
        <pt x="371" y="558" on="1"/>
        <pt x="395" y="558" on="0"/>
        <pt x="429" y="524" on="0"/>
        <pt x="429" y="500" on="1"/>
        <pt x="429" y="475" on="0"/>
        <pt x="395" y="441" on="0"/>
        <pt x="371" y="441" on="1"/>
      </contour>
      <contour>
        <pt x="210" y="-192" on="0"/>
        <pt x="91" y="-82" on="0"/>
        <pt x="91" y="13" on="1"/>
        <pt x="91" y="123" on="0"/>
        <pt x="210" y="218" on="0"/>
        <pt x="330" y="219" on="1"/>
        <pt x="330" y="351" on="1"/>
        <pt x="416" y="351" on="1"/>
        <pt x="416" y="154" on="1"/>
        <pt x="376" y="154" on="1"/>
        <pt x="309" y="155" on="0"/>
        <pt x="224" y="133" on="0"/>
        <pt x="177" y="72" on="0"/>
        <pt x="177" y="14" on="1"/>
        <pt x="177" y="-47" on="0"/>
        <pt x="247" y="-115" on="0"/>
        <pt x="309" y="-115" on="1"/>
        <pt x="371" y="-115" on="0"/>
        <pt x="442" y="-50" on="0"/>
        <pt x="442" y="10" on="1"/>
        <pt x="527" y="10" on="1"/>
        <pt x="527" y="-51" on="0"/>
        <pt x="473" y="-142" on="0"/>
        <pt x="374" y="-192" on="0"/>
        <pt x="310" y="-192" on="1"/>
      </contour>
    </TTGlyph>
    <TTGlyph name="quotedbl" xMin="32" yMin="597" xMax="254" yMax="796">
      <contour>
        <pt x="119" y="796" on="1"/>
        <pt x="107" y="597" on="1"/>
        <pt x="44" y="597" on="1"/>
        <pt x="32" y="796" on="1"/>
      </contour>
      <contour>
        <pt x="254" y="796" on="1"/>
        <pt x="242" y="597" on="1"/>
        <pt x="179" y="597" on="1"/>
        <pt x="167" y="796" on="1"/>
      </contour>
    </TTGlyph>
    <TTGlyph name="quotedblbase" xMin="39" yMin="-143" xMax="145" yMax="67">
      <contour>
        <pt x="145" y="14" on="0"/>
        <pt x="145" y="-30" on="1"/>
        <pt x="145" y="-143" on="0"/>
        <pt x="42" y="-143" on="1"/>
        <pt x="42" y="-99" on="1"/>
        <pt x="67" y="-99" on="0"/>
        <pt x="90" y="-75" on="0"/>
        <pt x="90" y="-49" on="1"/>
        <pt x="90" y="-26" on="1"/>
        <pt x="39" y="-26" on="1"/>
        <pt x="39" y="67" on="1"/>
        <pt x="132" y="67" on="1"/>
      </contour>
    </TTGlyph>
    <TTGlyph name="quotedblleft" xMin="24" yMin="578" xMax="263" yMax="783">
      <contour>
        <pt x="24" y="631" on="0"/>
        <pt x="24" y="670" on="1"/>
        <pt x="24" y="729" on="0"/>
        <pt x="75" y="783" on="0"/>
        <pt x="125" y="783" on="1"/>
        <pt x="125" y="739" on="1"/>
        <pt x="101" y="739" on="0"/>
        <pt x="78" y="714" on="0"/>
        <pt x="78" y="687" on="1"/>
        <pt x="78" y="664" on="1"/>
        <pt x="127" y="664" on="1"/>
        <pt x="127" y="578" on="1"/>
        <pt x="36" y="578" on="1"/>
      </contour>
      <contour>
        <pt x="160" y="626" on="0"/>
        <pt x="160" y="670" on="1"/>
        <pt x="160" y="729" on="0"/>
        <pt x="210" y="783" on="0"/>
        <pt x="261" y="783" on="1"/>
        <pt x="261" y="739" on="1"/>
        <pt x="237" y="739" on="0"/>
        <pt x="214" y="714" on="0"/>
        <pt x="214" y="687" on="1"/>
        <pt x="214" y="664" on="1"/>
        <pt x="263" y="664" on="1"/>
        <pt x="263" y="578" on="1"/>
        <pt x="171" y="578" on="1"/>
      </contour>
    </TTGlyph>
    <TTGlyph name="quotedblright" xMin="25" yMin="578" xMax="263" yMax="783">
      <contour>
        <pt x="128" y="731" on="0"/>
        <pt x="128" y="691" on="1"/>
        <pt x="128" y="632" on="0"/>
        <pt x="77" y="578" on="0"/>
        <pt x="27" y="578" on="1"/>
        <pt x="27" y="622" on="1"/>
        <pt x="51" y="622" on="0"/>
        <pt x="74" y="647" on="0"/>
        <pt x="74" y="674" on="1"/>
        <pt x="74" y="697" on="1"/>
        <pt x="25" y="697" on="1"/>
        <pt x="25" y="783" on="1"/>
        <pt x="116" y="783" on="1"/>
      </contour>
      <contour>
        <pt x="263" y="735" on="0"/>
        <pt x="263" y="691" on="1"/>
        <pt x="263" y="632" on="0"/>
        <pt x="213" y="578" on="0"/>
        <pt x="162" y="578" on="1"/>
        <pt x="162" y="622" on="1"/>
        <pt x="186" y="622" on="0"/>
        <pt x="209" y="647" on="0"/>
        <pt x="209" y="674" on="1"/>
        <pt x="209" y="697" on="1"/>
        <pt x="160" y="697" on="1"/>
        <pt x="160" y="783" on="1"/>
        <pt x="252" y="783" on="1"/>
      </contour>
    </TTGlyph>
    <TTGlyph name="quoteleft" xMin="24" yMin="578" xMax="127" yMax="783">
      <contour>
        <pt x="24" y="631" on="0"/>
        <pt x="24" y="670" on="1"/>
        <pt x="24" y="729" on="0"/>
        <pt x="75" y="783" on="0"/>
        <pt x="125" y="783" on="1"/>
        <pt x="125" y="739" on="1"/>
        <pt x="101" y="739" on="0"/>
        <pt x="78" y="714" on="0"/>
        <pt x="78" y="687" on="1"/>
        <pt x="78" y="664" on="1"/>
        <pt x="127" y="664" on="1"/>
        <pt x="127" y="578" on="1"/>
        <pt x="36" y="578" on="1"/>
      </contour>
    </TTGlyph>
    <TTGlyph name="quoteright" xMin="25" yMin="578" xMax="128" yMax="783">
      <contour>
        <pt x="128" y="731" on="0"/>
        <pt x="128" y="691" on="1"/>
        <pt x="128" y="632" on="0"/>
        <pt x="77" y="578" on="0"/>
        <pt x="27" y="578" on="1"/>
        <pt x="27" y="622" on="1"/>
        <pt x="51" y="622" on="0"/>
        <pt x="74" y="647" on="0"/>
        <pt x="74" y="674" on="1"/>
        <pt x="74" y="697" on="1"/>
        <pt x="25" y="697" on="1"/>
        <pt x="25" y="783" on="1"/>
        <pt x="116" y="783" on="1"/>
      </contour>
    </TTGlyph>
    <TTGlyph name="quotesinglbase" xMin="39" yMin="-143" xMax="145" yMax="67">
      <component glyphName="comma" x="0" y="0" flags="0x0"/>
    </TTGlyph>
    <TTGlyph name="quotesingle" xMin="32" yMin="597" xMax="119" yMax="796">
      <contour>
        <pt x="119" y="796" on="1"/>
        <pt x="107" y="597" on="1"/>
        <pt x="44" y="597" on="1"/>
        <pt x="32" y="796" on="1"/>
      </contour>
    </TTGlyph>
    <TTGlyph name="r" xMin="75" yMin="0" xMax="333" yMax="558">
      <contour>
        <pt x="215" y="558" on="0"/>
        <pt x="333" y="558" on="1"/>
        <pt x="333" y="463" on="1"/>
        <pt x="309" y="463" on="1"/>
        <pt x="239" y="463" on="0"/>
        <pt x="166" y="390" on="0"/>
        <pt x="166" y="300" on="1"/>
        <pt x="166" y="0" on="1"/>
        <pt x="75" y="0" on="1"/>
        <pt x="75" y="549" on="1"/>
        <pt x="166" y="549" on="1"/>
        <pt x="166" y="456" on="1"/>
      </contour>
    </TTGlyph>
    <TTGlyph name="racute" xMin="75" yMin="0" xMax="333" yMax="783">
      <component glyphName="r" x="0" y="0" flags="0x0"/>
      <component glyphName="acute" x="103" y="0" flags="0x0"/>
    </TTGlyph>
    <TTGlyph name="radical" xMin="22" yMin="-43" xMax="780" yMax="868">
      <contour>
        <pt x="780" y="868" on="1"/>
        <pt x="286" y="-43" on="1"/>
        <pt x="238" y="-43" on="1"/>
        <pt x="114" y="176" on="1"/>
        <pt x="49" y="137" on="1"/>
        <pt x="22" y="185" on="1"/>
        <pt x="162" y="269" on="1"/>
        <pt x="274" y="69" on="1"/>
        <pt x="707" y="868" on="1"/>
      </contour>
    </TTGlyph>
    <TTGlyph name="rcaron" xMin="75" yMin="0" xMax="367" yMax="757">
      <component glyphName="r" x="0" y="0" flags="0x0"/>
      <component glyphName="caron" x="80" y="0" flags="0x0"/>
    </TTGlyph>
    <TTGlyph name="registered" xMin="48" yMin="-9" xMax="748" yMax="700">
      <contour>
        <pt x="501" y="700" on="0"/>
        <pt x="660" y="610" on="0"/>
        <pt x="748" y="449" on="0"/>
        <pt x="748" y="346" on="1"/>
        <pt x="748" y="243" on="0"/>
        <pt x="660" y="81" on="0"/>
        <pt x="501" y="-9" on="0"/>
        <pt x="398" y="-9" on="1"/>
        <pt x="295" y="-9" on="0"/>
        <pt x="136" y="81" on="0"/>
        <pt x="48" y="243" on="0"/>
        <pt x="48" y="346" on="1"/>
        <pt x="48" y="449" on="0"/>
        <pt x="136" y="610" on="0"/>
        <pt x="295" y="700" on="0"/>
        <pt x="398" y="700" on="1"/>
      </contour>
      <contour>
        <pt x="491" y="31" on="0"/>
        <pt x="629" y="109" on="0"/>
        <pt x="703" y="252" on="0"/>
        <pt x="703" y="346" on="1"/>
        <pt x="703" y="440" on="0"/>
        <pt x="629" y="582" on="0"/>
        <pt x="491" y="660" on="0"/>
        <pt x="398" y="660" on="1"/>
        <pt x="306" y="660" on="0"/>
        <pt x="168" y="582" on="0"/>
        <pt x="93" y="440" on="0"/>
        <pt x="93" y="346" on="1"/>
        <pt x="93" y="252" on="0"/>
        <pt x="168" y="109" on="0"/>
        <pt x="306" y="31" on="0"/>
        <pt x="398" y="31" on="1"/>
      </contour>
      <contour>
        <pt x="568" y="400" on="0"/>
        <pt x="508" y="327" on="0"/>
        <pt x="447" y="317" on="1"/>
        <pt x="574" y="123" on="1"/>
        <pt x="499" y="123" on="1"/>
        <pt x="378" y="314" on="1"/>
        <pt x="316" y="314" on="1"/>
        <pt x="316" y="123" on="1"/>
        <pt x="256" y="123" on="1"/>
        <pt x="256" y="586" on="1"/>
        <pt x="406" y="586" on="1"/>
        <pt x="485" y="586" on="0"/>
        <pt x="568" y="510" on="0"/>
        <pt x="568" y="450" on="1"/>
      </contour>
      <contour>
        <pt x="316" y="362" on="1"/>
        <pt x="406" y="362" on="1"/>
        <pt x="457" y="362" on="0"/>
        <pt x="506" y="408" on="0"/>
        <pt x="506" y="450" on="1"/>
        <pt x="506" y="539" on="0"/>
        <pt x="406" y="539" on="1"/>
        <pt x="316" y="539" on="1"/>
      </contour>
    </TTGlyph>
    <TTGlyph name="ring" xMin="10" yMin="608" xMax="219" yMax="817">
      <contour>
        <pt x="159" y="817" on="0"/>
        <pt x="219" y="760" on="0"/>
        <pt x="219" y="712" on="1"/>
        <pt x="219" y="665" on="0"/>
        <pt x="159" y="608" on="0"/>
        <pt x="114" y="608" on="1"/>
        <pt x="70" y="608" on="0"/>
        <pt x="10" y="665" on="0"/>
        <pt x="10" y="712" on="1"/>
        <pt x="10" y="759" on="0"/>
        <pt x="70" y="817" on="0"/>
        <pt x="114" y="817" on="1"/>
      </contour>
      <contour>
        <pt x="92" y="765" on="0"/>
        <pt x="62" y="736" on="0"/>
        <pt x="62" y="713" on="1"/>
        <pt x="62" y="690" on="0"/>
        <pt x="92" y="660" on="0"/>
        <pt x="114" y="660" on="1"/>
        <pt x="137" y="660" on="0"/>
        <pt x="167" y="690" on="0"/>
        <pt x="167" y="713" on="1"/>
        <pt x="167" y="736" on="0"/>
        <pt x="137" y="765" on="0"/>
        <pt x="114" y="765" on="1"/>
      </contour>
    </TTGlyph>
    <TTGlyph name="s" xMin="55" yMin="-9" xMax="470" yMax="558">
      <contour>
        <pt x="353" y="558" on="0"/>
        <pt x="457" y="465" on="0"/>
        <pt x="462" y="384" on="1"/>
        <pt x="368" y="384" on="1"/>
        <pt x="366" y="430" on="0"/>
        <pt x="308" y="486" on="0"/>
        <pt x="257" y="486" on="1"/>
        <pt x="205" y="486" on="0"/>
        <pt x="146" y="437" on="0"/>
        <pt x="146" y="400" on="1"/>
        <pt x="146" y="369" on="0"/>
        <pt x="183" y="332" on="0"/>
        <pt x="238" y="314" on="0"/>
        <pt x="285" y="304" on="1"/>
        <pt x="345" y="290" on="0"/>
        <pt x="418" y="263" on="0"/>
        <pt x="470" y="200" on="0"/>
        <pt x="470" y="146" on="1"/>
        <pt x="470" y="101" on="0"/>
        <pt x="418" y="30" on="0"/>
        <pt x="324" y="-9" on="0"/>
        <pt x="263" y="-9" on="1"/>
        <pt x="171" y="-9" on="0"/>
        <pt x="60" y="83" on="0"/>
        <pt x="55" y="164" on="1"/>
        <pt x="149" y="164" on="1"/>
        <pt x="151" y="118" on="0"/>
        <pt x="212" y="63" on="0"/>
        <pt x="263" y="63" on="1"/>
        <pt x="319" y="63" on="0"/>
        <pt x="380" y="109" on="0"/>
        <pt x="380" y="147" on="1"/>
        <pt x="380" y="178" on="0"/>
        <pt x="343" y="215" on="0"/>
        <pt x="287" y="234" on="0"/>
        <pt x="238" y="245" on="1"/>
        <pt x="179" y="258" on="0"/>
        <pt x="106" y="285" on="0"/>
        <pt x="55" y="343" on="0"/>
        <pt x="55" y="394" on="1"/>
        <pt x="55" y="439" on="0"/>
        <pt x="106" y="514" on="0"/>
        <pt x="201" y="558" on="0"/>
        <pt x="264" y="558" on="1"/>
      </contour>
    </TTGlyph>
    <TTGlyph name="sacute" xMin="55" yMin="-9" xMax="470" yMax="783">
      <component glyphName="s" x="0" y="0" flags="0x0"/>
      <component glyphName="acute" x="137" y="0" flags="0x0"/>
    </TTGlyph>
    <TTGlyph name="scaron" xMin="55" yMin="-9" xMax="470" yMax="757">
      <component glyphName="s" x="0" y="0" flags="0x0"/>
      <component glyphName="caron" x="115" y="0" flags="0x0"/>
    </TTGlyph>
    <TTGlyph name="section" xMin="45" yMin="-207" xMax="529" yMax="695">
      <contour>
        <pt x="443" y="57" on="0"/>
        <pt x="497" y="-2" on="0"/>
        <pt x="497" y="-50" on="1"/>
        <pt x="497" y="-94" on="0"/>
        <pt x="447" y="-165" on="0"/>
        <pt x="352" y="-207" on="0"/>
        <pt x="287" y="-207" on="1"/>
        <pt x="199" y="-207" on="0"/>
        <pt x="86" y="-124" on="0"/>
        <pt x="86" y="-52" on="1"/>
        <pt x="173" y="-52" on="1"/>
        <pt x="176" y="-93" on="0"/>
        <pt x="232" y="-143" on="0"/>
        <pt x="287" y="-143" on="1"/>
        <pt x="345" y="-143" on="0"/>
        <pt x="408" y="-99" on="0"/>
        <pt x="408" y="-56" on="1"/>
        <pt x="408" y="-32" on="0"/>
        <pt x="381" y="2" on="0"/>
        <pt x="314" y="33" on="0"/>
        <pt x="248" y="55" on="1"/>
        <pt x="143" y="89" on="0"/>
        <pt x="45" y="174" on="0"/>
        <pt x="45" y="244" on="1"/>
        <pt x="45" y="302" on="0"/>
        <pt x="118" y="388" on="0"/>
        <pt x="183" y="407" on="1"/>
        <pt x="132" y="431" on="0"/>
        <pt x="78" y="490" on="0"/>
        <pt x="78" y="538" on="1"/>
        <pt x="78" y="582" on="0"/>
        <pt x="128" y="653" on="0"/>
        <pt x="223" y="695" on="0"/>
        <pt x="288" y="695" on="1"/>
        <pt x="375" y="695" on="0"/>
        <pt x="489" y="612" on="0"/>
        <pt x="489" y="540" on="1"/>
        <pt x="401" y="540" on="1"/>
        <pt x="398" y="581" on="0"/>
        <pt x="342" y="631" on="0"/>
        <pt x="288" y="631" on="1"/>
        <pt x="230" y="631" on="0"/>
        <pt x="167" y="587" on="0"/>
        <pt x="167" y="544" on="1"/>
        <pt x="167" y="520" on="0"/>
        <pt x="194" y="486" on="0"/>
        <pt x="261" y="455" on="0"/>
        <pt x="326" y="433" on="1"/>
        <pt x="431" y="399" on="0"/>
        <pt x="529" y="314" on="0"/>
        <pt x="529" y="244" on="1"/>
        <pt x="529" y="188" on="0"/>
        <pt x="458" y="102" on="0"/>
        <pt x="392" y="81" on="1"/>
      </contour>
      <contour>
        <pt x="137" y="213" on="0"/>
        <pt x="174" y="161" on="0"/>
        <pt x="243" y="130" on="0"/>
        <pt x="289" y="130" on="1"/>
        <pt x="357" y="130" on="0"/>
        <pt x="438" y="196" on="0"/>
        <pt x="438" y="244" on="1"/>
        <pt x="438" y="293" on="0"/>
        <pt x="353" y="358" on="0"/>
        <pt x="285" y="358" on="1"/>
        <pt x="217" y="358" on="0"/>
        <pt x="137" y="292" on="0"/>
        <pt x="137" y="244" on="1"/>
      </contour>
    </TTGlyph>
    <TTGlyph name="semicolon" xMin="93" yMin="-143" xMax="209" yMax="545">
      <component glyphName="period" x="38" y="428" flags="0x4"/>
      <component glyphName="comma" x="59" y="0" flags="0x0"/>
    </TTGlyph>
    <TTGlyph name="seven" xMin="40" yMin="0" xMax="522" yMax="728">
      <contour>
        <pt x="522" y="660" on="1"/>
        <pt x="236" y="0" on="1"/>
        <pt x="136" y="0" on="1"/>
        <pt x="435" y="651" on="1"/>
        <pt x="40" y="651" on="1"/>
        <pt x="40" y="728" on="1"/>
        <pt x="522" y="728" on="1"/>
      </contour>
    </TTGlyph>
    <TTGlyph name="six" xMin="80" yMin="0" xMax="578" yMax="747">
      <contour>
        <pt x="458" y="620" on="0"/>
        <pt x="394" y="670" on="0"/>
        <pt x="335" y="670" on="1"/>
        <pt x="275" y="670" on="0"/>
        <pt x="198" y="614" on="0"/>
        <pt x="158" y="487" on="0"/>
        <pt x="156" y="380" on="1"/>
        <pt x="183" y="429" on="0"/>
        <pt x="289" y="484" on="0"/>
        <pt x="354" y="484" on="1"/>
        <pt x="420" y="484" on="0"/>
        <pt x="521" y="426" on="0"/>
        <pt x="578" y="318" on="0"/>
        <pt x="578" y="243" on="1"/>
        <pt x="578" y="174" on="0"/>
        <pt x="525" y="64" on="0"/>
        <pt x="419" y="0" on="0"/>
        <pt x="342" y="0" on="1"/>
        <pt x="237" y="0" on="0"/>
        <pt x="122" y="96" on="0"/>
        <pt x="80" y="262" on="0"/>
        <pt x="80" y="385" on="1"/>
        <pt x="80" y="557" on="0"/>
        <pt x="204" y="747" on="0"/>
        <pt x="335" y="747" on="1"/>
        <pt x="400" y="747" on="0"/>
        <pt x="494" y="698" on="0"/>
        <pt x="547" y="617" on="0"/>
        <pt x="553" y="568" on="1"/>
        <pt x="471" y="568" on="1"/>
      </contour>
      <contour>
        <pt x="169" y="169" on="0"/>
        <pt x="255" y="77" on="0"/>
        <pt x="338" y="77" on="1"/>
        <pt x="409" y="77" on="0"/>
        <pt x="492" y="164" on="0"/>
        <pt x="492" y="238" on="1"/>
        <pt x="492" y="317" on="0"/>
        <pt x="413" y="406" on="0"/>
        <pt x="335" y="406" on="1"/>
        <pt x="292" y="406" on="0"/>
        <pt x="216" y="371" on="0"/>
        <pt x="169" y="300" on="0"/>
        <pt x="169" y="247" on="1"/>
      </contour>
    </TTGlyph>
    <TTGlyph name="slash" xMin="82" yMin="-170" xMax="445" yMax="942">
      <contour>
        <pt x="445" y="942" on="1"/>
        <pt x="172" y="-170" on="1"/>
        <pt x="82" y="-170" on="1"/>
        <pt x="355" y="942" on="1"/>
      </contour>
    </TTGlyph>
    <TTGlyph name="sterling" xMin="45" yMin="-1" xMax="545" yMax="710">
      <contour>
        <pt x="545" y="75" on="1"/>
        <pt x="545" y="-1" on="1"/>
        <pt x="102" y="-1" on="1"/>
        <pt x="83" y="52" on="1"/>
        <pt x="123" y="99" on="0"/>
        <pt x="162" y="185" on="0"/>
        <pt x="162" y="249" on="1"/>
        <pt x="162" y="279" on="0"/>
        <pt x="154" y="308" on="1"/>
        <pt x="45" y="308" on="1"/>
        <pt x="45" y="372" on="1"/>
        <pt x="132" y="372" on="1"/>
        <pt x="121" y="402" on="0"/>
        <pt x="109" y="460" on="0"/>
        <pt x="109" y="497" on="1"/>
        <pt x="109" y="560" on="0"/>
        <pt x="165" y="657" on="0"/>
        <pt x="264" y="710" on="0"/>
        <pt x="327" y="710" on="1"/>
        <pt x="431" y="710" on="0"/>
        <pt x="537" y="593" on="0"/>
        <pt x="538" y="503" on="1"/>
        <pt x="456" y="503" on="1"/>
        <pt x="456" y="562" on="0"/>
        <pt x="394" y="633" on="0"/>
        <pt x="328" y="633" on="1"/>
        <pt x="269" y="633" on="0"/>
        <pt x="194" y="565" on="0"/>
        <pt x="194" y="492" on="1"/>
        <pt x="194" y="463" on="0"/>
        <pt x="207" y="407" on="0"/>
        <pt x="219" y="372" on="1"/>
        <pt x="417" y="372" on="1"/>
        <pt x="417" y="308" on="1"/>
        <pt x="239" y="308" on="1"/>
        <pt x="248" y="272" on="0"/>
        <pt x="248" y="248" on="1"/>
        <pt x="248" y="151" on="0"/>
        <pt x="180" y="75" on="1"/>
      </contour>
    </TTGlyph>
    <TTGlyph name="summation" xMin="40" yMin="-58" xMax="417" yMax="693">
      <contour>
        <pt x="417" y="622" on="1"/>
        <pt x="118" y="622" on="1"/>
        <pt x="383" y="352" on="1"/>
        <pt x="383" y="282" on="1"/>
        <pt x="118" y="13" on="1"/>
        <pt x="417" y="13" on="1"/>
        <pt x="417" y="-58" on="1"/>
        <pt x="40" y="-58" on="1"/>
        <pt x="40" y="47" on="1"/>
        <pt x="302" y="315" on="1"/>
        <pt x="40" y="588" on="1"/>
        <pt x="40" y="693" on="1"/>
        <pt x="417" y="693" on="1"/>
      </contour>
    </TTGlyph>
    <TTGlyph name="t" xMin="24" yMin="0" xMax="330" yMax="685">
      <contour>
        <pt x="330" y="74" on="1"/>
        <pt x="330" y="0" on="1"/>
        <pt x="238" y="0" on="1"/>
        <pt x="168" y="0" on="0"/>
        <pt x="95" y="68" on="0"/>
        <pt x="95" y="141" on="1"/>
        <pt x="95" y="475" on="1"/>
        <pt x="24" y="475" on="1"/>
        <pt x="24" y="549" on="1"/>
        <pt x="95" y="549" on="1"/>
        <pt x="95" y="685" on="1"/>
        <pt x="187" y="685" on="1"/>
        <pt x="187" y="549" on="1"/>
        <pt x="329" y="549" on="1"/>
        <pt x="329" y="475" on="1"/>
        <pt x="187" y="475" on="1"/>
        <pt x="187" y="141" on="1"/>
        <pt x="187" y="104" on="0"/>
        <pt x="217" y="74" on="0"/>
        <pt x="255" y="74" on="1"/>
      </contour>
    </TTGlyph>
    <TTGlyph name="tcaron" xMin="24" yMin="0" xMax="371" yMax="761">
      <contour>
        <pt x="371" y="713" on="0"/>
        <pt x="371" y="679" on="1"/>
        <pt x="371" y="630" on="0"/>
        <pt x="321" y="586" on="0"/>
        <pt x="270" y="586" on="1"/>
        <pt x="270" y="629" on="1"/>
        <pt x="295" y="629" on="0"/>
        <pt x="317" y="643" on="0"/>
        <pt x="317" y="660" on="1"/>
        <pt x="317" y="675" on="1"/>
        <pt x="268" y="675" on="1"/>
        <pt x="268" y="761" on="1"/>
        <pt x="360" y="761" on="1"/>
      </contour>
      <contour>
        <pt x="187" y="104" on="0"/>
        <pt x="217" y="74" on="0"/>
        <pt x="255" y="74" on="1"/>
        <pt x="330" y="74" on="1"/>
        <pt x="330" y="0" on="1"/>
        <pt x="238" y="0" on="1"/>
        <pt x="168" y="0" on="0"/>
        <pt x="95" y="68" on="0"/>
        <pt x="95" y="141" on="1"/>
        <pt x="95" y="475" on="1"/>
        <pt x="24" y="475" on="1"/>
        <pt x="24" y="549" on="1"/>
        <pt x="95" y="549" on="1"/>
        <pt x="95" y="685" on="1"/>
        <pt x="187" y="685" on="1"/>
        <pt x="187" y="549" on="1"/>
        <pt x="329" y="549" on="1"/>
        <pt x="329" y="475" on="1"/>
        <pt x="187" y="475" on="1"/>
        <pt x="187" y="141" on="1"/>
      </contour>
    </TTGlyph>
    <TTGlyph name="thorn" xMin="75" yMin="-260" xMax="631" yMax="740">
      <contour>
        <pt x="443" y="558" on="0"/>
        <pt x="562" y="488" on="0"/>
        <pt x="631" y="361" on="0"/>
        <pt x="631" y="278" on="1"/>
        <pt x="631" y="195" on="0"/>
        <pt x="562" y="64" on="0"/>
        <pt x="443" y="-9" on="0"/>
        <pt x="369" y="-9" on="1"/>
        <pt x="299" y="-9" on="0"/>
        <pt x="194" y="58" on="0"/>
        <pt x="166" y="112" on="1"/>
        <pt x="166" y="-260" on="1"/>
        <pt x="75" y="-260" on="1"/>
        <pt x="75" y="740" on="1"/>
        <pt x="166" y="740" on="1"/>
        <pt x="166" y="439" on="1"/>
        <pt x="194" y="492" on="0"/>
        <pt x="299" y="558" on="0"/>
        <pt x="369" y="558" on="1"/>
      </contour>
      <contour>
        <pt x="302" y="479" on="0"/>
        <pt x="217" y="429" on="0"/>
        <pt x="166" y="336" on="0"/>
        <pt x="166" y="274" on="1"/>
        <pt x="166" y="212" on="0"/>
        <pt x="217" y="119" on="0"/>
        <pt x="302" y="69" on="0"/>
        <pt x="351" y="69" on="1"/>
        <pt x="400" y="69" on="0"/>
        <pt x="486" y="120" on="0"/>
        <pt x="537" y="216" on="0"/>
        <pt x="537" y="278" on="1"/>
        <pt x="537" y="340" on="0"/>
        <pt x="486" y="431" on="0"/>
        <pt x="401" y="479" on="0"/>
        <pt x="351" y="479" on="1"/>
      </contour>
    </TTGlyph>
</ttFont>
